{
.appVersion = "3133";
.formatVersion = 3;
DisplayStrings = (
"00112233445566778899AABBCCDDEEFFGGHHIIJJKKLLMMNNOOPPQQRRSSTTUUVVWWXXYYZZaabbccddeeffgghhiijjkkllmmnnooppqqrrssttuuvvwwwxxyyzz''"
);
customParameters = (
{
name = vendorID;
value = "    ";
},
{
name = panose;
value = (
2,
0,
5,
3,
9,
0,
0,
2,
0,
3
);
},
{
name = unicodeRanges;
value = (
0,
1
);
},
{
name = codePageRanges;
value = (
"1252",
"1250",
"bit 29"
);
},
{
name = "Family Alignment Zones";
value = (
{
pos = 704;
size = 16;
},
{
pos = 444;
size = 0;
},
{
pos = 420;
size = 12;
},
{
pos = 278;
size = "-6";
},
{
pos = 0;
size = "-16";
},
{
pos = "-270";
size = "-10";
}
);
},
{
name = glyphOrder;
value = (
.notdef,
NULL,
CR,
space,
numbersign,
dollar,
percent,
ampersand,
quotesingle,
parenleft,
parenright,
asterisk,
plus,
comma,
hyphen,
period,
slash,
zero,
one,
two,
three,
four,
five,
six,
seven,
eight,
nine,
colon,
semicolon,
less,
equal,
greater,
question,
at,
A,
B,
C,
D,
E,
F,
G,
H,
I,
J,
K,
L,
M,
N,
O,
P,
Q,
R,
S,
T,
U,
V,
W,
X,
Y,
Z,
bracketleft,
backslash,
bracketright,
asciicircum,
underscore,
grave,
a,
b,
c,
d,
e,
f,
g,
h,
i,
j,
k,
l,
m,
n,
o,
p,
q,
r,
s,
t,
u,
v,
w,
x,
y,
z,
braceleft,
bar,
braceright,
asciitilde,
uni007F,
uni00A0,
exclamdown,
cent,
sterling,
currency,
yen,
brokenbar,
section,
dieresis,
copyright,
ordfeminine,
guillemotleft,
logicalnot,
uni00AD,
registered,
macron,
degree,
plusminus,
twosuperior,
threesuperior,
acute,
mu,
paragraph,
periodcentered,
cedilla,
onesuperior,
ordmasculine,
guillemotright,
onequarter,
onehalf,
threequarters,
questiondown,
Agrave,
Aacute,
Acircumflex,
Atilde,
Adieresis,
Aring,
AE,
Ccedilla,
Egrave,
Eacute,
Ecircumflex,
Edieresis,
Igrave,
Iacute,
Icircumflex,
Idieresis,
Eth,
Ntilde,
Ograve,
Oacute,
Ocircumflex,
Otilde,
Odieresis,
multiply,
Oslash,
Ugrave,
Uacute,
Ucircumflex,
Udieresis,
Yacute,
Thorn,
germandbls,
agrave,
aacute,
acircumflex,
atilde,
adieresis,
aring,
ae,
ccedilla,
egrave,
eacute,
ecircumflex,
edieresis,
igrave,
iacute,
icircumflex,

glyphs = (
{
glyphname = .notdef;
layers = (
{
hints = (
{
horizontal = 1;
place = (0, 40);
place = (0, 40);
type = Stem;
},
{
horizontal = 1;
place = (664, 40);
place = (664, 40);
type = Stem;
},
{
place = (-1, 40);
place = (-1, 40);
type = Stem;
},
{
place = (467, 40);
place = (467, 40);
type = Stem;
}
);
layerId = m01;
shapes = (
{
closed = 1;
nodes = (
(-1,704,l),
(-1,0,l),
(507,0,l),
(507,704,l)
);
},
{
closed = 1;
nodes = (
(228,352,l),
(39,79,l),
(39,625,l)
);
},
{
closed = 1;
nodes = (
(61,664,l),
(444,664,l),
(253,387,l)
);
},
{
closed = 1;
nodes = (
(253,317,l),
(445,40,l),
(61,40,l)
);
},
{
closed = 1;
nodes = (
(277,352,l),
(467,626,l),
(467,78,l)
);
}
);
width = 507;
}
);
note = ".notdef";
},
{
glyphname = numbersign;
layers = (
{
hints = (
{
horizontal = 1;
place = (0, 21);
target = up;
type = BottomGhost;
},
{
horizontal = 1;
place = (256, 30);
place = (256, 30);
type = Stem;
},
{
horizontal = 1;
place = (493, 30);
place = (493, 30);
type = Stem;
},
{
horizontal = 1;
place = (746, -20);
target = down;
type = TopGhost;
}
);
layerId = m01;
shapes = (
{
closed = 1;
nodes = (
(647,493,l),
(647,523,l),
(500,523,l),
(551,746,l),
(516,746,l),
(465,523,l),
(281,523,l),
(332,746,l),
(297,746,l),
(246,523,l),
(107,523,l),
(107,493,l),
(240,493,l),
(193,286,l),
(44,286,l),
(44,256,l),
(186,256,l),
(128,0,l),
(163,0,l),
(221,256,l),
(405,256,l),
(347,0,l),
(382,0,l),
(440,256,l),
(584,256,l),
(584,286,l),
(447,286,l),
(494,493,l)
);
},
{
closed = 1;
nodes = (
(412,286,l),
(228,286,l),
(275,493,l),
(459,493,l)
);
}
);
width = 692;
}
);
note = numbersign;
unicode = 35;
},
{
glyphname = dollar;
layers = (
{
hints = (
{
horizontal = 1;
place = (-130, 21);
target = up;
type = BottomGhost;
},
{
horizontal = 1;
place = (234, -20);
target = down;
type = TopGhost;
},
{
horizontal = 1;
place = (836, -20);
target = down;
type = TopGhost;
},
{
place = (31, 218);
place = (31, 218);
type = Stem;
},
{
place = (210, 39);
place = (210, 39);
type = Stem;
},
{
place = (210, 201);
place = (210, 201);
type = Stem;
}
);
layerId = m01;
shapes = (
{
closed = 1;
nodes = (
(249,320,l),
(325,270,ls),
(435,195,o),
(429,12,o),
(249,0,c)
);
},
{
closed = 1;
nodes = (
(210,407,l),
(149,447,ls),
(-20,557,o),
(103,701,o),
(210,704,c)
);
},
{
closed = 1;
nodes = (
(249,381,l),
(249,703,l),
(387,695,o),
(401,631,o),
(401,499,c),
(411,499,l),
(411,667,l),
(411,667,o),
(347,705,o),
(249,713,c),
(249,836,l),
(210,836,l),
(210,713,l),
(92,711,o),
(41,634,o),
(41,634,c),
(-30,506,o),
(100,425,o),
(148,388,c),
(210,346,l),
(210,0,l),
(68,5,o),
(39,60,o),
(39,234,c),
(31,234,l),
(31,42,l),
(31,42,o),
(94,-3,o),
(210,-9,c),
(210,-130,l),
(249,-130,l),
(249,-9,l),
(384,-3,o),
(421,73,o),
(421,73,c),
(451,129,o),
(461,242,o),
(325,332,cs)
);
}
);
width = 463;
}
);
note = dollar;
unicode = 36;
},
{
glyphname = percent;
layers = (
{
hints = (
{
horizontal = 1;
place = (0, 21);
target = up;
type = BottomGhost;
},
{
horizontal = 1;
place = (318, -20);
target = down;
type = TopGhost;
},
{
horizontal = 1;
place = (384, -20);
target = down;
type = TopGhost;
},
{
horizontal = 1;
place = (704, -20);
target = down;
type = TopGhost;
},
{
place = (141, 39);
place = (141, 39);
type = Stem;
},
{
place = (361, 39);
place = (361, 39);
type = Stem;
},
{
place = (547, 39);
place = (547, 39);
type = Stem;
},
{
place = (767, 39);
place = (767, 39);
type = Stem;
},
{
horizontal = 1;
place = (375, -20);
target = down;
type = TopGhost;
},
{
horizontal = 1;
place = (327, -20);
target = down;
type = TopGhost;
}
);
layerId = m01;
shapes = (
{
closed = 1;
nodes = (
(224,0,l),
(265,0,l),
(721,704,l),
(680,704,l)
);
},
{
closed = 1;
nodes = (
(566,384,o),
(547,273,o),
(547,200,cs),
(547,128,o),
(566,24,o),
(676,24,cs),
(786,24,o),
(806,128,o),
(806,200,cs),
(806,273,o),
(786,384,o),
(676,384,cs)
);
},
{
closed = 1;
nodes = (
(633,33,o),
(586,57,o),
(586,200,cs),
(586,344,o),
(632,375,o),
(676,375,cs),
(719,375,o),
(767,344,o),
(767,200,cs),
(767,57,o),
(722,33,o),
(676,33,cs)
);
},
{
closed = 1;
nodes = (
(160,678,o),
(141,567,o),
(141,494,cs),
(141,422,o),
(160,318,o),
(270,318,cs),
(380,318,o),
(400,422,o),
(400,494,cs),
(400,567,o),
(380,678,o),
(270,678,cs)
);
},
{
closed = 1;
nodes = (
(227,327,o),
(180,351,o),
(180,494,cs),
(180,638,o),
(226,669,o),
(270,669,cs),
(313,669,o),
(361,638,o),
(361,494,cs),
(361,351,o),
(316,327,o),
(270,327,cs)
);
}
);
width = 952;
}
);
note = percent;
unicode = 37;
},
{
glyphname = ampersand;
layers = (
{
hints = (
{
horizontal = 1;
place = (-9, 21);
target = up;
type = BottomGhost;
}
);
layerId = m01;
shapes = (
{
closed = 1;
nodes = (
(240,524,ls),
(192,595,o),
(178,695,o),
(258,726,cs),
(305,744,o),
(359,729,o),
(389,697,c),
(448,623,o),
(446,505,o),
(310,425,c)
);
},
{
closed = 1;
nodes = (
(49,188,o),
(138,314,o),
(201,353,cs),
(268,393,l),
(442,145,l),
(386,4,o),
(226,-13,o),
(147,76,cs)
);
},
{
closed = 1;
nodes = (
(676,72,l),
(677,40,o),
(650,26,o),
(627,26,c),
(627,26,o),
(587,28,o),
(554,75,cs),
(474,188,l),
(506,303,o),
(583,318,o),
(583,294,cs),
(584,284,o),
(585,279,o),
(596,270,cs),
(612,257,o),
(635,259,o),
(648,274,cs),
(666,293,o),
(655,317,o),
(644,325,cs),
(631,336,o),
(611,338,o),
(593,334,cs),
(568,329,o),
(505,312,o),
(467,197,c),
(315,418,l),
(475,514,o),
(448,646,o),
(397,702,cs),
(368,734,o),
(317,752,o),
(255,742,cs),
(143,723,o),
(110,605,o),
(219,463,c),
(262,401,l),
(195,359,l),
(112,314,o),
(0,173,o),
(112,49,cs),
(227,-77,o),
(420,25,o),
(448,137,c),
(512,41,ls),
(549,-14,o),
(608,-9,o),
(608,-9,c),
(635,-9,o),
(681,14,o),
(683,72,c)
);
}
);
width = 740;
}
);
note = ampersand;
unicode = 38;
},
{
glyphname = quotesingle;
layers = (
{
hints = (
{
horizontal = 1;
place = (377, 21);
target = up;
type = BottomGhost;
},
{
horizontal = 1;
place = (704, -20);
target = down;
type = TopGhost;
},
{
place = (83, 45);
place = (83, 45);
type = Stem;
}
);
layerId = m01;
shapes = (
{
closed = 1;
nodes = (
(91,377,l),
(121,377,l),
(135,704,l),
(75,704,l)
);
}
);
width = 208;
}
);
note = quotesingle;
unicode = 39;
},
{
glyphname = parenleft;
layers = (
{
hints = (
{
horizontal = 1;
place = (-206, 21);
target = up;
type = BottomGhost;
},
{
horizontal = 1;
place = (745, -20);
target = down;
type = TopGhost;
}
);
layerId = m01;
shapes = (
{
closed = 1;
nodes = (
(79,-32,o),
(296,-206,o),
(296,-206,c),
(305,-194,l),
(124,-31,o),
(134,251,o),
(134,251,c),
(134,251,o),
(123,518,o),
(308,736,c),
(298,745,l),
(298,745,o),
(79,540,o),
(79,254,cs)
);
}
);
width = 309;
}
);
note = parenleft;
unicode = 40;
},
{
glyphname = parenright;
layers = (
{
hints = (
{
horizontal = 1;
place = (-205, 21);
target = up;
type = BottomGhost;
},
{
horizontal = 1;
place = (746, -20);
target = down;
type = TopGhost;
}
);
layerId = m01;
shapes = (
{
closed = 1;
nodes = (
(-2,737,l),
(183,519,o),
(172,252,o),
(172,252,c),
(172,252,o),
(182,-30,o),
(1,-193,c),
(10,-205,l),
(10,-205,o),
(227,-31,o),
(227,255,cs),
(227,541,o),
(8,746,o),
(8,746,c)
);
}
);
width = 312;
}
);
note = parenright;
unicode = 41;
},
{
glyphname = asterisk;
layers = (
{
hints = (
{
horizontal = 1;
place = (317, 21);
target = up;
type = BottomGhost;
},
{
horizontal = 1;
place = (704, -20);
target = down;
type = TopGhost;
}
);
layerId = m01;
shapes = (
{
closed = 1;
nodes = (
(469,537,l),
(453,588,l),
(276,512,l),
(293,704,l),
(239,704,l),
(256,512,l),
(80,588,l),
(63,537,l),
(250,493,l),
(124,349,l),
(167,317,l),
(266,481,l),
(365,317,l),
(408,349,l),
(282,493,l)
);
}
);
width = 534;
}
);
note = asterisk;
unicode = 42;
},
{
glyphname = plus;
layers = (
{
hints = (
{
horizontal = 1;
place = (0, 21);
target = up;
type = BottomGhost;
},
{
horizontal = 1;
place = (289, 43);
place = (289, 43);
type = Stem;
},
{
horizontal = 1;
place = (619, -20);
target = down;
type = TopGhost;
},
{
place = (336, 42);
place = (336, 42);
type = Stem;
}
);
layerId = m01;
shapes = (
{
closed = 1;
nodes = (
(657,332,l),
(378,332,l),
(378,619,l),
(336,619,l),
(336,332,l),
(56,332,l),
(56,289,l),
(336,289,l),
(336,0,l),
(378,0,l),
(378,289,l),
(657,289,l)
);
}
);
width = 715;
}
);
note = plus;
unicode = 43;
},
{
glyphname = comma;
kernLeft = comma;
layers = (
{
hints = (
{
horizontal = 1;
place = (-119, 21);
target = up;
type = BottomGhost;
}
);
layerId = m01;
shapes = (
{
closed = 1;
nodes = (
(101,67,o),
(79,67,o),
(65,53,cs),
(52,39,o),
(51,16,o),
(66,4,cs),
(75,-3,o),
(82,-3,o),
(90,-5,cs),
(106,-8,o),
(129,-65,o),
(52,-116,c),
(54,-119,l),
(95,-98,o),
(104,-78,o),
(115,-60,cs),
(137,-19,o),
(135,33,o),
(114,53,cs)
);
}
);
width = 184;
}
);
note = comma;
unicode = 44;
},
{
glyphname = hyphen;
kernLeft = hyphen;
layers = (
{
hints = (
{
horizontal = 1;
place = (233, 43);
place = (233, 43);
type = Stem;
}
);
layerId = m01;
shapes = (
{
closed = 1;
nodes = (
(379,233,l),
(379,276,l),
(64,276,l),
(64,233,l)
);
}
);
width = 444;
}
);
note = hyphen;
unicode = 45;
},
{
glyphname = period;
kernLeft = period;
layers = (
{
hints = (
{
horizontal = 1;
place = (-5, 68);
place = (-5, 68);
type = Stem;
},
{
place = (56, 67);
place = (56, 67);
type = Stem;
}
);
layerId = m01;
shapes = (
{
closed = 1;
nodes = (
(123,48,o),
(107,63,o),
(89,63,cs),
(70,63,o),
(56,48,o),
(56,28,cs),
(56,10,o),
(70,-5,o),
(89,-5,cs),
(107,-5,o),
(123,10,o),
(123,28,cs)
);
}
);
width = 170;
}
);
note = period;
unicode = 46;
},
{
glyphname = slash;
layers = (
{
hints = (
{
horizontal = 1;
place = (-21, 21);
target = up;
type = BottomGhost;
},
{
horizontal = 1;
place = (725, -20);
target = down;
type = TopGhost;
}
);
layerId = m01;
shapes = (
{
closed = 1;
nodes = (
(373,725,l),
(322,725,l),
(14,-21,l),
(65,-21,l)
);
}
);
width = 390;
}
);
note = slash;
unicode = 47;
},
{
glyphname = zero;
lastChange = "2022-10-06 07:21:02 +0000";
layers = (
{
hints = (
{
horizontal = 1;
place = (-9, 21);
target = up;
type = BottomGhost;
},
{
horizontal = 1;
place = (713, -20);
target = down;
type = TopGhost;
},
{
place = (34, 58);
place = (34, 58);
type = Stem;
},
{
place = (495, 58);
place = (495, 58);
type = Stem;
},
{
horizontal = 1;
place = (0, 21);
target = up;
type = BottomGhost;
},
{
horizontal = 1;
place = (704, -20);
target = down;
type = TopGhost;
}
);
layerId = m01;
shapes = (
{
closed = 1;
nodes = (
(267,712,l),
(65,698,o),
(34,487,o),
(34,346,cs),
(34,202,o),
(73,-9,o),
(294,-9,cs),
(514,-9,o),
(553,202,o),
(553,346,cs),
(553,488,o),
(521,700,o),
(318,712,c)
);
},
{
closed = 1;
nodes = (
(206,0,o),
(92,59,o),
(92,346,cs),
(92,612,o),
(182,692,o),
(267,703,c),
(267,712,l),
(318,712,l),
(318,703,l),
(401,693,o),
(495,614,o),
(495,346,cs),
(495,59,o),
(385,0,o),
(294,0,cs)
);
}
);
width = 590;
}
);
note = zero;
unicode = 48;
},
{
glyphname = one;
layers = (
{
hints = (
{
horizontal = 1;
place = (0, 21);
target = up;
type = BottomGhost;
},
{
horizontal = 1;
place = (713, -20);
target = down;
type = TopGhost;
},
{
place = (142, 49);
place = (142, 49);
type = Stem;
}
);
layerId = m01;
shapes = (
{
closed = 1;
nodes = (
(191,713,l),
(158,713,l),
(45,607,l),
(50,600,l),
(124,659,o),
(142,662,o),
(142,606,cs),
(142,86,ls),
(142,12,o),
(113,8,o),
(72,8,c),
(72,0,l),
(263,0,l),
(263,8,l),
(228,8,o),
(191,9,o),
(191,86,cs)
);
}
);
width = 325;
}
);
note = one;
unicode = 49;
},
{
glyphname = two;
lastChange = "2022-10-06 07:22:05 +0000";
layers = (
{
hints = (
{
horizontal = 1;
place = (0, 47);
place = (0, 47);
type = Stem;
},
{
horizontal = 1;
place = (104, -20);
target = down;
type = TopGhost;
},
{
horizontal = 1;
place = (713, -20);
target = down;
type = TopGhost;
}
);
layerId = m01;
shapes = (
{
closed = 1;
nodes = (
(411,104,l),
(389,64,o),
(350,47,o),
(316,47,cs),
(142,47,l),
(112,0,l),
(62,0,l),
(62,0,o),
(224,252,o),
(270,318,cs),
(348,428,o),
(391,480,o),
(391,546,cs),
(391,637,o),
(319,713,o),
(219,713,c),
(219,713,o),
(39,724,o),
(41,525,c),
(54,523,l),
(58,773,o),
(511,694,o),
(252,332,c),
(39,0,l),
(391,0,l),
(419,104,l)
);
}
);
width = 450;
}
);
note = two;
unicode = 50;
},
{
glyphname = three;
layers = (
{
hints = (
{
horizontal = 1;
place = (-9, 21);
target = up;
type = BottomGhost;
},
{
horizontal = 1;
place = (367, -20);
target = down;
type = TopGhost;
},
{
horizontal = 1;
place = (713, -20);
target = down;
type = TopGhost;
},
{
place = (375, 61);
place = (375, 61);
type = Stem;
},
{
horizontal = 1;
place = (0, 21);
target = up;
type = BottomGhost;
},
{
horizontal = 1;
place = (355, -20);
target = down;
type = TopGhost;
}
);
layerId = m01;
shapes = (
{
closed = 1;
nodes = (
(296,-9,o),
(436,19,o),
(436,189,cs),
(436,272,o),
(374,360,o),
(256,374,c),
(466,424,o),
(415,713,o),
(234,713,cs),
(201,713,o),
(44,713,o),
(44,551,c),
(57,551,l),
(53,658,o),
(201,718,o),
(283,646,cs),
(399,545,o),
(319,367,o),
(180,367,c),
(180,355,l),
(321,355,o),
(369,269,o),
(375,186,cs),
(385,39,o),
(311,0,o),
(209,0,cs),
(129,0,o),
(86,36,o),
(91,35,c),
(100,36,o),
(108,40,o),
(114,47,cs),
(126,63,o),
(124,85,o),
(109,98,cs),
(94,110,o),
(71,108,o),
(58,93,cs),
(50,82,o),
(48,66,o),
(53,55,cs),
(66,31,o),
(121,-9,o),
(209,-9,cs)
);
}
);
width = 484;
}
);
note = three;
unicode = 51;
},
{
glyphname = four;
lastChange = "2022-10-06 07:23:25 +0000";
layers = (
{
hints = (
{
horizontal = 1;
place = (0, 246);
place = (0, 246);
type = Stem;
},
{
horizontal = 1;
place = (704, -20);
target = down;
type = TopGhost;
},
{
place = (331, 53);
place = (331, 53);
type = Stem;
},
{
horizontal = 1;
place = (211, 35);
place = (211, 35);
type = Stem;
}
);
layerId = m01;
shapes = (
{
closed = 1;
nodes = (
(473,211,l),
(473,246,l),
(384,246,l),
(384,654,l),
(369,704,l),
(355,704,l),
(29,223,l),
(29,211,l),
(331,211,l),
(331,92,ls),
(331,13,o),
(308,9,o),
(266,9,c),
(266,0,l),
(449,0,l),
(449,9,l),
(407,9,o),
(384,11,o),
(384,97,cs),
(384,211,l)
);
},
{
closed = 1;
nodes = (
(384,654,l),
(331,578,l),
(331,246,l),
(91,246,ls),
(57,246,o),
(57,246,o),
(77,275,cs),
(369,704,l)
);
}
);
width = 513;
}
);
note = four;
unicode = 52;
},
{
glyphname = five;
lastChange = "2022-10-06 07:24:34 +0000";
layers = (
{
hints = (
{
horizontal = 1;
place = (0, 21);
target = up;
type = BottomGhost;
},
{
horizontal = 1;
place = (650, 54);
place = (650, 54);
type = Stem;
},
{
horizontal = 1;
place = (-9, 21);
target = up;
type = BottomGhost;
}
);
layerId = m01;
shapes = (
{
closed = 1;
nodes = (
(118,650,l),
(447,650,l),
(457,704,l),
(111,704,l),
(65,358,l),
(77,361,l),
(130,374,l),
(292,411,o),
(400,364,o),
(434,257,cs),
(483,94,o),
(346,0,o),
(233,0,cs),
(141,0,o),
(88,46,o),
(99,47,cs),
(109,48,o),
(119,51,o),
(125,61,cs),
(135,78,o),
(131,102,o),
(114,113,cs),
(96,124,o),
(73,118,o),
(62,101,cs),
(54,89,o),
(57,71,o),
(63,60,cs),
(70,48,o),
(126,-9,o),
(233,-9,cs),
(352,-9,o),
(524,60,o),
(490,267,cs),
(468,394,o),
(317,469,o),
(138,429,c),
(130,374,l),
(77,361,l)
);
}
);
width = 539;
}
);
note = five;
unicode = 53;
},
{
glyphname = six;
lastChange = "2022-10-06 07:27:11 +0000";
layers = (
{
hints = (
{
horizontal = 1;
place = (-9, 21);
target = up;
type = BottomGhost;
},
{
horizontal = 1;
place = (401, 27);
place = (401, 27);
type = Stem;
},
{
horizontal = 1;
place = (713, -20);
target = down;
type = TopGhost;
},
{
place = (42, 53);
place = (42, 53);
type = Stem;
},
{
place = (408, 52);
place = (408, 52);
type = Stem;
},
{
horizontal = 1;
place = (0, 21);
target = up;
type = BottomGhost;
}
);
layerId = m01;
shapes = (
{
closed = 1;
nodes = (
(200,428,o),
(149,378,o),
(121,336,c),
(95,284,l),
(95,572,o),
(175,714,o),
(306,703,cs),
(369,698,o),
(383,675,o),
(375,677,cs),
(366,678,o),
(356,674,o),
(348,669,c),
(333,656,o),
(330,633,o),
(342,617,cs),
(355,601,o),
(379,598,o),
(395,611,cs),
(406,619,o),
(411,638,o),
(407,650,cs),
(404,660,o),
(397,713,o),
(276,713,cs),
(118,713,o),
(42,511,o),
(42,318,cs),
(42,119,o),
(88,-9,o),
(257,-9,cs),
(396,-9,o),
(460,63,o),
(460,218,cs),
(460,313,o),
(415,428,o),
(273,428,cs)
);
},
{
closed = 1;
nodes = (
(154,0,o),
(95,109,o),
(95,284,c),
(121,336,l),
(122,311,l),
(148,346,o),
(203,401,o),
(270,401,cs),
(330,401,o),
(408,372,o),
(408,203,cs),
(408,48,o),
(332,0,o),
(257,0,cs)
);
}
);
width = 504;
}
);
note = six;
unicode = 54;
},
{
glyphname = seven;
lastChange = "2022-10-06 07:31:55 +0000";
layers = (
{
hints = (
{
horizontal = 1;
place = (0, 21);
target = up;
type = BottomGhost;
},
{
horizontal = 1;
place = (659, 45);
place = (659, 45);
type = Stem;
}
);
layerId = m01;
shapes = (
{
closed = 1;
nodes = (
(61,704,l),
(47,601,l),
(56,601,l),
(71,643,o),
(74,659,o),
(135,659,cs),
(423,659,l),
(451,704,l),
(502,704,l),
(331,446,o),
(236,217,o),
(212,0,c),
(279,0,l),
(279,192,o),
(338,399,o),
(484,659,c),
(512,704,l)
);
}
);
width = 549;
}
);
note = seven;
unicode = 55;
},
{
glyphname = eight;
lastChange = "2022-10-06 07:35:20 +0000";
layers = (
{
hints = (
{
horizontal = 1;
place = (0, 21);
target = up;
type = BottomGhost;
},
{
horizontal = 1;
place = (704, -20);
target = down;
type = TopGhost;
},
{
place = (81, 36);
place = (81, 36);
type = Stem;
},
{
place = (394, 36);
place = (394, 36);
type = Stem;
},
{
place = (436, 45);
place = (436, 45);
type = Stem;
},
{
horizontal = 1;
place = (-9, 21);
target = up;
type = BottomGhost;
},
{
horizontal = 1;
place = (713, -20);
target = down;
type = TopGhost;
},
{
place = (36, 45);
place = (36, 45);
type = Stem;
}
);
layerId = m01;
shapes = (
{
closed = 1;
nodes = (
(180,418,l),
(228,439,l),
(183,470,o),
(117,513,o),
(117,586,cs),
(117,659,o),
(190,704,o),
(256,704,cs),
(321,704,o),
(391,675,o),
(394,549,cs),
(396,481,o),
(324,422,o),
(277,396,cs),
(264,389,o),
(252,385,o),
(245,383,c)
);
},
{
closed = 1;
nodes = (
(439,24,o),
(315,0,o),
(265,0,cs),
(182,0,o),
(81,31,o),
(81,168,cs),
(81,296,o),
(181,344,o),
(225,363,c),
(240,354,o),
(241,354,o),
(258,345,cs),
(407,267,o),
(434,229,o),
(436,161,cs)
);
},
{
closed = 1;
nodes = (
(481,287,o),
(390,337,o),
(288,388,c),
(356,407,o),
(430,490,o),
(430,547,cs),
(430,642,o),
(376,713,o),
(256,713,cs),
(165,713,o),
(81,656,o),
(81,553,cs),
(81,486,o),
(128,457,o),
(180,418,c),
(245,383,l),
(235,379,o),
(226,375,o),
(216,371,cs),
(122,326,o),
(36,245,o),
(36,167,cs),
(36,46,o),
(117,-9,o),
(265,-9,cs),
(388,-9,o),
(481,49,o),
(481,177,cs)
);
}
);
width = 515;
}
);
note = eight;
unicode = 56;
},
{
glyphname = nine;
lastChange = "2022-10-06 07:34:48 +0000";
layers = (
{
hints = (
{
horizontal = 1;
place = (-9, 21);
target = up;
type = BottomGhost;
},
{
horizontal = 1;
place = (280, 27);
place = (280, 27);
type = Stem;
},
{
horizontal = 1;
place = (713, -20);
target = down;
type = TopGhost;
},
{
place = (36, 52);
place = (36, 52);
type = Stem;
},
{
place = (395, 53);
place = (395, 53);
type = Stem;
},
{
horizontal = 1;
place = (704, -20);
target = down;
type = TopGhost;
}
);
layerId = m01;
shapes = (
{
closed = 1;
nodes = (
(296,280,o),
(338,306,o),
(365,348,c),
(395,420,l),
(395,92,o),
(330,-10,o),
(199,1,cs),
(136,6,o),
(113,39,o),
(121,37,cs),
(130,36,o),
(140,40,o),
(148,45,c),
(163,58,o),
(166,81,o),
(154,97,cs),
(141,113,o),
(117,116,o),
(101,103,cs),
(90,95,o),
(85,76,o),
(89,64,cs),
(92,54,o),
(108,-9,o),
(229,-9,cs),
(387,-9,o),
(448,145,o),
(448,406,cs),
(448,605,o),
(408,713,o),
(239,713,cs),
(100,713,o),
(36,634,o),
(36,491,cs),
(36,396,o),
(81,280,o),
(223,280,cs)
);
},
{
closed = 1;
nodes = (
(342,704,o),
(395,637,o),
(395,462,c),
(395,420,l),
(365,348,l),
(367,384,l),
(344,342,o),
(304,307,o),
(226,307,cs),
(166,307,o),
(88,337,o),
(88,506,cs),
(88,643,o),
(164,704,o),
(239,704,cs)
);
}
);
width = 495;
}
);
note = nine;
unicode = 57;
},
{
glyphname = colon;
kernLeft = colon;
layers = (
{
hints = (
{
horizontal = 1;
place = (73, 68);
place = (73, 68);
type = Stem;
},
{
horizontal = 1;
place = (317, 68);
place = (317, 68);
type = Stem;
},
{
place = (53, 67);
place = (53, 67);
type = Stem;
}
);
layerId = m01;
shapes = (
{
closed = 1;
nodes = (
(120,126,o),
(104,141,o),
(86,141,cs),
(67,141,o),
(53,126,o),
(53,106,cs),
(53,88,o),
(67,73,o),
(86,73,cs),
(104,73,o),
(120,88,o),
(120,106,cs)
);
},
{
closed = 1;
nodes = (
(120,370,o),
(104,385,o),
(86,385,cs),
(67,385,o),
(53,370,o),
(53,350,cs),
(53,332,o),
(67,317,o),
(86,317,cs),
(104,317,o),
(120,332,o),
(120,350,cs)
);
}
);
width = 166;
}
);
note = colon;
unicode = 58;
},
{
glyphname = semicolon;
kernLeft = semicolon;
layers = (
{
hints = (
{
horizontal = 1;
place = (-40, 21);
target = up;
type = BottomGhost;
},
{
horizontal = 1;
place = (317, 68);
place = (317, 68);
type = Stem;
},
{
place = (53, 67);
place = (53, 67);
type = Stem;
}
);
layerId = m01;
shapes = (
{
closed = 1;
nodes = (
(120,370,o),
(104,385,o),
(86,385,cs),
(67,385,o),
(53,370,o),
(53,350,cs),
(53,332,o),
(67,317,o),
(86,317,cs),
(104,317,o),
(120,332,o),
(120,350,cs)
);
},
{
closed = 1;
nodes = (
(98,146,o),
(76,146,o),
(62,132,cs),
(49,118,o),
(48,95,o),
(63,83,cs),
(72,76,o),
(79,76,o),
(87,74,cs),
(103,71,o),
(126,14,o),
(49,-37,c),
(51,-40,l),
(92,-19,o),
(101,1,o),
(112,19,cs),
(134,60,o),
(132,112,o),
(111,132,cs)
);
}
);
width = 166;
}
);
note = semicolon;
unicode = 59;
},
{
glyphname = less;
layers = (
{
hints = (
{
horizontal = 1;
place = (-16, 21);
target = up;
type = BottomGhost;
},
{
horizontal = 1;
place = (547, -20);
target = down;
type = TopGhost;
}
);
layerId = m01;
shapes = (
{
closed = 1;
nodes = (
(94,266,l),
(553,501,l),
(553,547,l),
(46,287,l),
(46,244,l),
(553,-16,l),
(553,28,l)
);
}
);
width = 600;
}
);
note = less;
unicode = 60;
},
{
glyphname = equal;
layers = (
{
hints = (
{
horizontal = 1;
place = (133, 43);
place = (133, 43);
type = Stem;
},
{
horizontal = 1;
place = (358, 43);
place = (358, 43);
type = Stem;
}
);
layerId = m01;
shapes = (
{
closed = 1;
nodes = (
(566,358,l),
(566,401,l),
(55,401,l),
(55,358,l)
);
},
{
closed = 1;
nodes = (
(566,133,l),
(566,176,l),
(55,176,l),
(55,133,l)
);
}
);
width = 613;
}
);
note = equal;
unicode = 61;
},
{
glyphname = greater;
layers = (
{
hints = (
{
horizontal = 1;
place = (-16, 21);
target = up;
type = BottomGhost;
},
{
horizontal = 1;
place = (547, -20);
target = down;
type = TopGhost;
}
);
layerId = m01;
shapes = (
{
closed = 1;
nodes = (
(47,28,l),
(47,-16,l),
(554,244,l),
(554,287,l),
(47,547,l),
(47,502,l),
(506,266,l)
);
}
);
width = 600;
}
);
note = greater;
unicode = 62;
},
{
glyphname = question;
layers = (
{
hints = (
{
horizontal = 1;
place = (-9, 84);
place = (-9, 84);
type = Stem;
},
{
place = (214, 85);
place = (214, 85);
type = Stem;
},
{
place = (405, 69);
place = (405, 69);
type = Stem;
}
);
layerId = m01;
shapes = (
{
closed = 1;
nodes = (
(465,703,o),
(315,775,o),
(154,703,cs),
(108,683,o),
(84,641,o),
(81,627,cs),
(77,615,o),
(76,600,o),
(85,588,cs),
(97,571,o),
(121,566,o),
(138,578,cs),
(155,590,o),
(159,614,o),
(147,631,cs),
(141,640,o),
(133,646,o),
(124,646,cs),
(110,647,o),
(106,677,o),
(159,697,cs),
(246,731,o),
(390,729,o),
(405,539,cs),
(418,397,o),
(337,356,o),
(295,320,cs),
(231,267,o),
(238,204,o),
(244,165,c),
(258,167,l),
(253,227,o),
(266,280,o),
(314,307,cs),
(367,337,o),
(480,398,o),
(474,543,cs)
);
},
{
closed = 1;
nodes = (
(214,56,o),
(233,75,o),
(256,75,cs),
(280,75,o),
(299,56,o),
(299,33,cs),
(299,9,o),
(280,-9,o),
(256,-9,cs),
(233,-9,o),
(214,9,o),
(214,33,cs)
);
}
);
width = 568;
}
);
note = question;
unicode = 63;
},
{
glyphname = at;
layers = (
{
hints = (
{
horizontal = 1;
place = (-213, 222);
place = (-213, 222);
type = Stem;
},
{
horizontal = 1;
place = (361, 223);
place = (361, 223);
type = Stem;
},
{
horizontal = 1;
place = (-9, 21);
target = up;
type = BottomGhost;
}
);
layerId = m01;
shapes = (
{
closed = 1;
nodes = (
(839,448,o),
(702,577,o),
(530,584,cs),
(293,593,o),
(71,456,o),
(50,172,cs),
(28,-117,o),
(275,-213,o),
(420,-213,cs),
(585,-213,o),
(657,-147,o),
(657,-147,c),
(652,-141,l),
(625,-164,o),
(534,-210,o),
(423,-199,cs),
(59,-166,o),
(114,184,o),
(114,184,c),
(142,425,o),
(306,580,o),
(539,561,cs),
(773,542,o),
(816,359,o),
(794,235,cs),
(758,40,o),
(653,9,o),
(610,9,cs),
(570,9,o),
(573,44,o),
(577,64,cs),
(585,100,o),
(646,363,o),
(646,363,c),
(605,362,l),
(597,336,l),
(597,336,o),
(578,370,o),
(501,371,cs),
(387,372,o),
(302,265,o),
(297,141,cs),
(293,47,o),
(351,-9,o),
(423,-9,cs),
(485,-9,o),
(520,28,o),
(529,44,c),
(524,3,o),
(545,-9,o),
(588,-9,cs),
(647,-9,o),
(772,36,o),
(804,234,cs)
);
},
{
closed = 1;
nodes = (
(580,266,o),
(538,87,o),
(532,62,c),
(532,62,o),
(506,12,o),
(449,18,cs),
(394,24,o),
(342,61,o),
(362,189,cs),
(380,306,o),
(445,361,o),
(509,361,cs),
(582,361,o),
(584,282,o),
(580,266,c)
);
}
);
width = 861;
}
);
note = at;
unicode = 64;
},
{
glyphname = A;
kernLeft = A;
kernRight = A;
lastChange = "2022-10-06 07:46:19 +0000";
layers = (
{
hints = (
{
horizontal = 1;
place = (0, 239);
place = (0, 239);
type = Stem;
},
{
horizontal = 1;
place = (704, -20);
target = down;
type = TopGhost;
},
{
horizontal = 1;
place = (230, -20);
target = down;
type = TopGhost;
}
);
layerId = m01;
shapes = (
{
closed = 1;
nodes = (
(368,617,l),
(340,687,l),
(333,704,l),
(329,704,l),
(167,250,ls),
(88,28,o),
(67,9,o),
(17,9,c),
(17,0,l),
(217,0,l),
(217,9,l),
(97,9,o),
(122,70,o),
(177,230,c),
(458,230,l),
(497,128,ls),
(540,15,o),
(512,9,o),
(482,9,c),
(482,0,l),
(652,0,l),
(652,9,l),
(622,11,o),
(604,19,o),
(572,99,cs)
);
},
{
closed = 1;
nodes = (
(180,239,l),
(340,687,l),
(368,617,l),
(340,539,l),
(455,239,l)
);
}
);
width = 666;
}
);
note = A;
unicode = 65;
},
{
glyphname = B;
kernRight = B;
lastChange = "2022-10-06 07:47:00 +0000";
layers = (
{
hints = (
{
horizontal = 1;
place = (0, 21);
target = up;
type = BottomGhost;
},
{
horizontal = 1;
place = (361, -20);
target = down;
type = TopGhost;
},
{
horizontal = 1;
place = (704, -20);
target = down;
type = TopGhost;
},
{
place = (95, 59);
place = (95, 59);
type = Stem;
},
{
place = (362, 76);
place = (362, 76);
type = Stem;
},
{
place = (409, 76);
place = (409, 76);
type = Stem;
},
{
horizontal = 1;
place = (352, -20);
target = down;
type = TopGhost;
},
{
place = (409, 29);
place = (409, 29);
type = Stem;
}
);
layerId = m01;
shapes = (
{
closed = 1;
nodes = (
(204,704,l),
(204,695,l),
(214,695,ls),
(289,695,o),
(362,677,o),
(362,532,cs),
(362,377,o),
(305,361,o),
(236,361,cs),
(154,361,l),
(154,704,l)
);
},
{
closed = 1;
nodes = (
(303,361,o),
(438,370,o),
(438,532,cs),
(438,682,o),
(343,704,o),
(204,704,cs),
(37,704,l),
(37,695,l),
(81,695,o),
(95,668,o),
(95,606,cs),
(95,103,ls),
(95,35,o),
(80,9,o),
(37,9,c),
(37,0,l),
(193,0,ls),
(366,0,o),
(485,7,o),
(485,179,cs),
(485,346,o),
(348,361,o),
(283,361,cs)
);
},
{
closed = 1;
nodes = (
(154,9,l),
(154,352,l),
(236,352,ls),
(317,352,o),
(409,348,o),
(409,183,cs),
(409,7,o),
(308,9,o),
(204,9,cs)
);
}
);
width = 533;
}
);
note = B;
unicode = 66;
},
{
glyphname = C;
kernLeft = C;
kernRight = C;
lastChange = "2022-10-06 07:47:55 +0000";
layers = (
{
hints = (
{
horizontal = 1;
place = (0, 21);
target = up;
type = BottomGhost;
},
{
horizontal = 1;
place = (205, -20);
target = down;
type = TopGhost;
},
{
horizontal = 1;
place = (704, -20);
target = down;
type = TopGhost;
},
{
place = (40, 76);
place = (40, 76);
type = Stem;
},
{
horizontal = 1;
place = (-9, 21);
target = up;
type = BottomGhost;
},
{
horizontal = 1;
place = (713, -20);
target = down;
type = TopGhost;
}
);
layerId = m01;
shapes = (
{
closed = 1;
nodes = (
(591,205,l),
(591,9,o),
(428,0,o),
(387,0,cs),
(292,0,o),
(116,13,o),
(116,352,cs),
(116,662,o),
(262,700,o),
(362,704,c),
(362,713,l),
(412,713,l),
(412,704,l),
(470,701,o),
(591,678,o),
(591,500,c),
(600,500,l),
(609,652,l),
(549,701,o),
(505,712,o),
(412,713,c),
(362,713,l),
(170,706,o),
(40,595,o),
(40,352,cs),
(40,106,o),
(186,-9,o),
(387,-9,cs),
(494,-9,o),
(535,4,o),
(609,53,c),
(600,205,l)
);
}
);
width = 654;
}
);
note = C;
unicode = 67;
},
{
glyphname = D;
kernRight = D;
lastChange = "2022-10-06 07:48:27 +0000";
layers = (
{
hints = (
{
horizontal = 1;
place = (0, 21);
target = up;
type = BottomGhost;
},
{
horizontal = 1;
place = (704, -20);
target = down;
type = TopGhost;
},
{
place = (101, 62);
place = (101, 62);
type = Stem;
},
{
place = (516, 66);
place = (516, 66);
type = Stem;
}
);
layerId = m01;
shapes = (
{
closed = 1;
nodes = (
(163,9,l),
(163,704,l),
(213,704,l),
(213,695,l),
(335,695,o),
(516,686,o),
(516,352,cs),
(516,-1,o),
(324,9,o),
(207,9,cs)
);
},
{
closed = 1;
nodes = (
(41,704,l),
(41,695,l),
(85,695,o),
(101,668,o),
(101,606,cs),
(101,101,ls),
(101,33,o),
(84,9,o),
(41,9,c),
(41,0,l),
(207,0,ls),
(406,0,o),
(582,39,o),
(582,352,cs),
(582,645,o),
(412,704,o),
(213,704,cs)
);
}
);
width = 631;
}
);
note = D;
unicode = 68;
},
{
glyphname = E;
lastChange = "2022-10-06 07:49:01 +0000";
layers = (
{
hints = (
{
horizontal = 1;
place = (0, 21);
target = up;
type = BottomGhost;
},
{
horizontal = 1;
place = (198, -20);
target = down;
type = TopGhost;
},
{
horizontal = 1;
place = (253, -20);
target = down;
type = TopGhost;
},
{
horizontal = 1;
place = (351, -20);
target = down;
type = TopGhost;
},
{
horizontal = 1;
place = (704, -20);
target = down;
type = TopGhost;
},
{
place = (77, 61);
place = (77, 61);
type = Stem;
},
{
horizontal = 1;
place = (360, -20);
target = down;
type = TopGhost;
}
);
layerId = m01;
shapes = (
{
closed = 1;
nodes = (
(461,198,l),
(461,0,o),
(372,9,o),
(194,9,cs),
(138,9,l),
(138,351,l),
(232,351,ls),
(283,351,o),
(347,350,o),
(347,253,c),
(356,253,l),
(356,458,l),
(347,458,l),
(347,361,o),
(286,360,o),
(232,360,cs),
(138,360,l),
(138,704,l),
(188,704,l),
(188,695,l),
(350,695,o),
(448,692,o),
(448,534,c),
(457,534,l),
(457,704,l),
(28,704,l),
(28,695,l),
(72,695,o),
(77,691,o),
(77,629,cs),
(77,97,ls),
(77,29,o),
(70,9,o),
(28,9,c),
(28,0,l),
(470,0,l),
(470,198,l)
);
}
);
width = 530;
}
);
note = E;
unicode = 69;
},
{
glyphname = F;
kernRight = F;
lastChange = "2022-10-06 07:49:49 +0000";
layers = (
{
hints = (
{
horizontal = 1;
place = (0, 21);
target = up;
type = BottomGhost;
},
{
horizontal = 1;
place = (253, -20);
target = down;
type = TopGhost;
},
{
horizontal = 1;
place = (351, -20);
target = down;
type = TopGhost;
},
{
horizontal = 1;
place = (704, -20);
target = down;
type = TopGhost;
},
{
place = (74, 61);
place = (74, 61);
type = Stem;
},
{
horizontal = 1;
place = (360, -20);
target = down;
type = TopGhost;
}
);
layerId = m01;
shapes = (
{
closed = 1;
nodes = (
(201,9,l),
(155,9,o),
(135,22,o),
(135,105,cs),
(135,351,l),
(228,351,ls),
(281,351,o),
(343,350,o),
(343,253,c),
(352,253,l),
(352,458,l),
(343,458,l),
(343,361,o),
(282,360,o),
(228,360,cs),
(135,360,l),
(135,704,l),
(185,704,l),
(185,695,l),
(342,695,o),
(444,696,o),
(444,534,c),
(453,534,l),
(453,704,l),
(25,704,l),
(25,695,l),
(69,695,o),
(74,691,o),
(74,629,cs),
(74,97,ls),
(74,29,o),
(67,9,o),
(25,9,c),
(25,0,l),
(201,0,l)
);
}
);
width = 471;
}
);
note = F;
unicode = 70;
},
{
glyphname = G;
kernLeft = G;
lastChange = "2022-10-06 07:51:06 +0000";
layers = (
{
hints = (
{
horizontal = 1;
place = (0, 21);
target = up;
type = BottomGhost;
},
{
horizontal = 1;
place = (280, -20);
target = down;
type = TopGhost;
},
{
horizontal = 1;
place = (704, -20);
target = down;
type = TopGhost;
},
{
place = (39, 74);
place = (39, 74);
type = Stem;
},
{
place = (545, 50);
place = (545, 50);
type = Stem;
},
{
horizontal = 1;
place = (271, -20);
target = down;
type = TopGhost;
},
{
horizontal = 1;
place = (-9, 21);
target = up;
type = BottomGhost;
},
{
horizontal = 1;
place = (713, -20);
target = down;
type = TopGhost;
}
);
layerId = m01;
shapes = (
{
closed = 1;
nodes = (
(470,280,l),
(470,271,l),
(545,271,o),
(545,270,o),
(545,105,cs),
(545,35,o),
(465,0,o),
(348,0,cs),
(236,0,o),
(113,77,o),
(113,352,cs),
(113,604,o),
(218,690,o),
(323,702,c),
(323,713,l),
(373,713,l),
(373,703,l),
(480,699,o),
(579,663,o),
(579,500,c),
(588,500,l),
(598,652,l),
(541,690,o),
(489,710,o),
(373,713,c),
(323,713,l),
(127,700,o),
(39,542,o),
(39,352,cs),
(39,153,o),
(132,-9,o),
(348,-9,cs),
(455,-9,o),
(533,9,o),
(595,33,c),
(595,271,o),
(597,271,o),
(658,271,c),
(658,280,l)
);
}
);
width = 684;
}
);
note = G;
unicode = 71;
},
{
glyphname = H;
lastChange = "2022-10-06 07:51:42 +0000";
layers = (
{
hints = (
{
horizontal = 1;
place = (0, 21);
target = up;
type = BottomGhost;
},
{
horizontal = 1;
place = (346, -20);
target = down;
type = TopGhost;
},
{
horizontal = 1;
place = (704, -20);
target = down;
type = TopGhost;
},
{
place = (81, 57);
place = (81, 57);
type = Stem;
},
{
place = (445, 57);
place = (445, 57);
type = Stem;
},
{
horizontal = 1;
place = (331, -20);
target = down;
type = TopGhost;
}
);
layerId = m01;
shapes = (
{
closed = 1;
nodes = (
(556,704,l),
(411,704,l),
(411,696,l),
(439,687,o),
(445,687,o),
(445,570,cs),
(445,331,l),
(395,331,l),
(395,346,l),
(138,346,l),
(138,570,ls),
(138,687,o),
(144,687,o),
(172,696,c),
(172,704,l),
(26,704,l),
(26,696,l),
(74,687,o),
(81,673,o),
(81,570,cs),
(81,136,ls),
(81,27,o),
(79,23,o),
(26,9,c),
(26,0,l),
(172,0,l),
(172,9,l),
(144,19,o),
(138,14,o),
(138,136,cs),
(138,331,l),
(445,331,l),
(445,136,ls),
(445,40,o),
(438,19,o),
(411,9,c),
(411,0,l),
(556,0,l),
(556,9,l),
(504,23,o),
(502,54,o),
(502,136,cs),
(502,570,ls),
(502,687,o),
(509,687,o),
(556,696,c)
);
}
);
width = 583;
}
);
note = H;
unicode = 72;
},
{
glyphname = I;
layers = (
{
hints = (
{
horizontal = 1;
place = (0, 21);
target = up;
type = BottomGhost;
},
{
horizontal = 1;
place = (704, -20);
target = down;
type = TopGhost;
},
{
place = (94, 60);
place = (94, 60);
type = Stem;
}
);
layerId = m01;
shapes = (
{
closed = 1;
nodes = (
(39,704,l),
(39,696,l),
(83,696,o),
(94,689,o),
(94,627,cs),
(94,93,ls),
(94,25,o),
(82,9,o),
(39,9,c),
(39,0,l),
(209,0,l),
(209,9,l),
(167,9,o),
(154,25,o),
(154,93,cs),
(154,627,ls),
(154,689,o),
(166,696,o),
(209,696,c),
(209,704,l)
);
}
);
width = 244;
}
);
note = I;
unicode = 73;
},
{
glyphname = J;
kernRight = J;
layers = (
{
hints = (
{
horizontal = 1;
place = (-167, 21);
target = up;
type = BottomGhost;
},
{
horizontal = 1;
place = (704, -20);
target = down;
type = TopGhost;
},
{
place = (164, 57);
place = (164, 57);
type = Stem;
}
);
layerId = m01;
shapes = (
{
closed = 1;
nodes = (
(97,704,l),
(97,696,l),
(164,696,o),
(164,670,o),
(164,482,cs),
(164,157,ls),
(164,-60,o),
(80,-128,o),
(-6,-159,c),
(-3,-167,l),
(160,-143,o),
(221,-39,o),
(221,182,cs),
(221,604,ls),
(221,668,o),
(248,696,o),
(293,696,c),
(293,704,l)
);
}
);
width = 334;
}
);
note = J;
unicode = 74;
},
{
glyphname = K;
kernRight = K;
layers = (
{
hints = (
{
horizontal = 1;
place = (0, 21);
target = up;
type = BottomGhost;
},
{
horizontal = 1;
place = (704, -20);
target = down;
type = TopGhost;
},
{
place = (97, 59);
place = (97, 59);
type = Stem;
}
);
layerId = m01;
shapes = (
{
closed = 1;
nodes = (
(259,373,l),
(475,650,o),
(515,696,o),
(594,696,c),
(594,704,l),
(374,704,l),
(374,696,l),
(494,696,o),
(434,621,o),
(320,487,cs),
(206,348,l),
(206,348,o),
(269,263,o),
(327,181,cs),
(432,29,o),
(455,0,o),
(561,0,cs),
(617,0,l),
(617,9,l),
(617,9,o),
(537,3,o),
(495,56,cs)
);
},
{
closed = 1;
nodes = (
(227,704,l),
(227,696,l),
(183,696,o),
(156,700,o),
(156,627,cs),
(156,88,ls),
(156,20,o),
(173,9,o),
(216,9,c),
(216,0,l),
(41,0,l),
(41,9,l),
(83,9,o),
(97,20,o),
(97,88,cs),
(97,627,ls),
(97,689,o),
(84,696,o),
(41,696,c),
(41,704,l)
);
}
);
width = 645;
}
);
note = K;
unicode = 75;
},
{
glyphname = L;
kernRight = L;
lastChange = "2022-10-06 07:52:09 +0000";
layers = (
{
hints = (
{
horizontal = 1;
place = (0, 21);
target = up;
type = BottomGhost;
},
{
horizontal = 1;
place = (217, -20);
target = down;
type = TopGhost;
},
{
horizontal = 1;
place = (704, -20);
target = down;
type = TopGhost;
},
{
place = (90, 57);
place = (90, 57);
type = Stem;
}
);
layerId = m01;
shapes = (
{
closed = 1;
nodes = (
(472,217,l),
(472,9,o),
(411,8,o),
(197,9,c),
(197,0,l),
(147,0,l),
(147,607,ls),
(147,679,o),
(158,696,o),
(201,696,c),
(201,704,l),
(43,704,l),
(43,696,l),
(86,696,o),
(90,677,o),
(90,616,cs),
(90,109,ls),
(90,41,o),
(94,9,o),
(51,9,c),
(51,0,l),
(480,0,l),
(480,217,l)
);
}
);
width = 533;
}
);
note = L;
unicode = 76;
},
{
glyphname = M;
lastChange = "2022-10-06 07:54:07 +0000";
layers = (
{
hints = (
{
horizontal = 1;
place = (0, 21);
target = up;
type = BottomGhost;
},
{
horizontal = 1;
place = (704, -20);
target = down;
type = TopGhost;
},
{
place = (671, 57);
place = (671, 57);
type = Stem;
},
{
horizontal = 1;
place = (-9, 21);
target = up;
type = BottomGhost;
}
);
layerId = m01;
shapes = (
{
closed = 1;
nodes = (
(728,607,ls),
(728,682,o),
(762,695,o),
(805,695,c),
(805,704,l),
(671,704,l),
(446,-9,l),
(415,61,l),
(441,144,l),
(195,704,l),
(49,704,l),
(49,695,l),
(72,694,o),
(122,695,o),
(159,632,c),
(159,245,ls),
(159,20,o),
(123,9,o),
(26,9,c),
(26,0,l),
(289,0,l),
(289,9,l),
(204,9,o),
(168,14,o),
(168,245,cs),
(168,615,l),
(415,61,l),
(446,-9,l),
(454,-9,l),
(671,675,l),
(671,113,ls),
(671,19,o),
(641,9,o),
(599,9,c),
(599,0,l),
(809,0,l),
(809,9,l),
(766,9,o),
(728,19,o),
(728,113,cs)
);
}
);
width = 832;
}
);
note = M;
unicode = 77;
},
{
glyphname = N;
kernRight = N;
lastChange = "2022-10-06 07:55:50 +0000";
layers = (
{
hints = (
{
horizontal = 1;
place = (0, 21);
target = up;
type = BottomGhost;
},
{
horizontal = 1;
place = (704, -20);
target = down;
type = TopGhost;
}
);
layerId = m01;
shapes = (
{
closed = 1;
nodes = (
(467,704,l),
(467,696,l),
(592,696,o),
(592,646,o),
(592,460,cs),
(592,0,l),
(590,0,l),
(538,68,l),
(538,156,l),
(130,704,l),
(5,704,l),
(5,696,l),
(31,694,o),
(62,698,o),
(124,616,cs),
(167,559,l),
(167,245,ls),
(167,65,o),
(166,9,o),
(28,9,c),
(28,0,l),
(302,0,l),
(302,9,l),
(177,9,o),
(176,68,o),
(176,245,cs),
(176,547,l),
(538,68,l),
(590,0,l),
(601,0,l),
(601,460,ls),
(601,646,o),
(597,696,o),
(735,696,c),
(735,704,l)
);
}
);
width = 747;
}
);
note = N;
unicode = 78;
},
{
glyphname = O;
kernLeft = O;
kernRight = O;
lastChange = "2022-10-06 07:56:55 +0000";
layers = (
{
hints = (
{
horizontal = 1;
place = (0, 21);
target = up;
type = BottomGhost;
},
{
horizontal = 1;
place = (704, -20);
target = down;
type = TopGhost;
},
{
place = (42, 58);
place = (42, 58);
type = Stem;
},
{
place = (592, 60);
place = (592, 60);
type = Stem;
},
{
horizontal = 1;
place = (-9, 21);
target = up;
type = BottomGhost;
},
{
horizontal = 1;
place = (713, -20);
target = down;
type = TopGhost;
}
);
layerId = m01;
shapes = (
{
closed = 1;
nodes = (
(228,0,o),
(100,72,o),
(100,347,cs),
(100,608,o),
(213,696,o),
(327,703,c),
(327,713,l),
(377,713,l),
(377,703,l),
(489,694,o),
(592,606,o),
(592,347,cs),
(592,72,o),
(465,0,o),
(347,0,cs)
);
},
{
closed = 1;
nodes = (
(327,713,l),
(120,704,o),
(42,540,o),
(42,347,cs),
(42,148,o),
(127,-9,o),
(347,-9,cs),
(567,-9,o),
(652,148,o),
(652,347,cs),
(652,539,o),
(583,703,o),
(377,713,c)
);
}
);
width = 698;
}
);
note = O;
unicode = 79;
},
{
glyphname = P;
kernRight = P;
lastChange = "2022-10-06 07:57:43 +0000";
layers = (
{
hints = (
{
horizontal = 1;
place = (0, 21);
target = up;
type = BottomGhost;
},
{
horizontal = 1;
place = (312, -20);
target = down;
type = TopGhost;
},
{
horizontal = 1;
place = (704, -20);
target = down;
type = TopGhost;
},
{
place = (97, 52);
place = (97, 52);
type = Stem;
},
{
place = (418, 54);
place = (418, 54);
type = Stem;
},
{
horizontal = 1;
place = (303, -20);
target = down;
type = TopGhost;
}
);
layerId = m01;
shapes = (
{
closed = 1;
nodes = (
(149,312,l),
(296,312,o),
(418,309,o),
(418,502,cs),
(418,679,o),
(316,695,o),
(199,696,c),
(199,704,l),
(149,704,l)
);
},
{
closed = 1;
nodes = (
(149,137,ls),
(149,10,o),
(146,9,o),
(229,9,c),
(229,0,l),
(31,0,l),
(31,9,l),
(86,9,o),
(97,10,o),
(97,132,cs),
(97,623,ls),
(97,699,o),
(97,696,o),
(40,696,c),
(40,704,l),
(149,704,l),
(199,704,l),
(368,700,o),
(472,675,o),
(472,502,cs),
(472,315,o),
(348,303,o),
(149,303,c),
(149,303,l)
);
}
);
width = 517;
}
);
note = P;
unicode = 80;
},
{
glyphname = Q;
kernLeft = Q;
kernRight = Q;
lastChange = "2022-10-06 07:58:37 +0000";
layers = (
{
hints = (
{
horizontal = 1;
place = (0, 21);
target = up;
type = BottomGhost;
},
{
horizontal = 1;
place = (704, -20);
target = down;
type = TopGhost;
},
{
place = (41, 58);
place = (41, 58);
type = Stem;
},
{
place = (591, 60);
place = (591, 60);
type = Stem;
},
{
horizontal = 1;
place = (-9, 21);
target = up;
type = BottomGhost;
},
{
horizontal = 1;
place = (713, -20);
target = down;
type = TopGhost;
}
);
layerId = m01;
shapes = (
{
closed = 1;
nodes = (
(502,-141,ls),
(573,-167,o),
(615,-140,o),
(644,-118,c),
(651,-124,l),
(607,-157,ls),
(533,-213,o),
(496,-200,o),
(338,-128,cs),
(270,-97,l),
(218,-78,o),
(131,-108,o),
(106,-124,c),
(98,-116,l),
(210,-26,o),
(371,-93,o),
(371,-93,c)
);
},
{
closed = 1;
nodes = (
(227,0,o),
(99,72,o),
(99,347,cs),
(99,610,o),
(207,697,o),
(321,704,c),
(321,713,l),
(371,713,l),
(371,704,l),
(486,698,o),
(591,612,o),
(591,347,cs),
(591,72,o),
(464,0,o),
(346,0,cs)
);
},
{
closed = 1;
nodes = (
(321,713,l),
(112,705,o),
(41,540,o),
(41,347,cs),
(41,148,o),
(126,-9,o),
(346,-9,cs),
(566,-9,o),
(651,148,o),
(651,347,cs),
(651,541,o),
(582,707,o),
(371,713,c)
);
}
);
width = 687;
}
);
note = Q;
unicode = 81;
},
{
glyphname = R;
kernRight = R;
lastChange = "2022-10-06 07:59:03 +0000";
layers = (
{
hints = (
{
horizontal = 1;
place = (0, 21);
target = up;
type = BottomGhost;
},
{
horizontal = 1;
place = (328, -20);
target = down;
type = TopGhost;
},
{
horizontal = 1;
place = (704, -20);
target = down;
type = TopGhost;
},
{
place = (76, 50);
place = (76, 50);
type = Stem;
},
{
place = (379, 58);
place = (379, 58);
type = Stem;
},
{
horizontal = 1;
place = (325, -20);
target = down;
type = TopGhost;
},
{
horizontal = 1;
place = (334, -20);
target = down;
type = TopGhost;
}
);
layerId = m01;
shapes = (
{
closed = 1;
nodes = (
(395,348,o),
(327,316,o),
(260,328,c),
(356,328,o),
(437,364,o),
(437,513,cs),
(437,680,o),
(375,704,o),
(176,704,c),
(24,704,l),
(24,695,l),
(68,695,o),
(76,694,o),
(76,632,cs),
(76,114,ls),
(76,13,o),
(67,9,o),
(24,9,c),
(24,0,l),
(181,0,l),
(181,9,l),
(139,9,o),
(126,17,o),
(126,88,cs),
(126,325,l),
(173,325,ls),
(225,325,o),
(336,325,o),
(358,218,cs),
(403,1,o),
(398,0,o),
(477,0,cs),
(537,0,l),
(537,9,l),
(511,11,o),
(459,12,o),
(439,88,c)
);
},
{
closed = 1;
nodes = (
(126,334,l),
(126,704,l),
(176,704,l),
(176,695,l),
(293,695,o),
(379,704,o),
(379,513,cs),
(379,332,o),
(287,334,o),
(157,334,cs)
);
}
);
width = 543;
}
);
note = R;
unicode = 82;
},
{
glyphname = S;
lastChange = "2022-10-06 08:00:02 +0000";
layers = (
{
hints = (
{
horizontal = 1;
place = (0, 21);
target = up;
type = BottomGhost;
},
{
horizontal = 1;
place = (234, -20);
target = down;
type = TopGhost;
},
{
horizontal = 1;
place = (704, -20);
target = down;
type = TopGhost;
},
{
horizontal = 1;
place = (713, -20);
target = down;
type = TopGhost;
},
{
horizontal = 1;
place = (-9, 21);
target = up;
type = BottomGhost;
}
);
layerId = m01;
shapes = (
{
closed = 1;
nodes = (
(160,447,ls),
(3,549,o),
(96,681,o),
(196,701,c),
(196,713,l),
(247,713,l),
(247,704,l),
(397,698,o),
(412,636,o),
(412,499,c),
(422,499,l),
(422,667,l),
(422,667,o),
(353,708,o),
(247,713,c),
(196,713,l),
(94,703,o),
(52,634,o),
(52,634,c),
(-19,506,o),
(111,425,o),
(159,388,c),
(336,270,ls),
(450,194,o),
(441,0,o),
(244,0,cs),
(82,0,o),
(50,51,o),
(50,234,c),
(42,234,l),
(42,42,l),
(42,42,o),
(113,-9,o),
(245,-9,cs),
(394,-9,o),
(432,73,o),
(432,73,c),
(462,129,o),
(473,243,o),
(336,332,cs)
);
}
);
width = 501;
}
);
note = S;
unicode = 83;
},
{
glyphname = T;
kernLeft = T;
kernRight = T;
lastChange = "2022-10-06 08:00:48 +0000";
layers = (
{
hints = (
{
horizontal = 1;
place = (0, 21);
target = up;
type = BottomGhost;
},
{
horizontal = 1;
place = (704, -20);
target = down;
type = TopGhost;
},
{
place = (275, 53);
place = (275, 53);
type = Stem;
}
);
layerId = m01;
shapes = (
{
closed = 1;
nodes = (
(19,704,l),
(19,553,l),
(27,553,l),
(27,697,o),
(114,696,o),
(176,696,cs),
(275,696,l),
(275,73,ls),
(275,9,o),
(257,9,o),
(215,9,c),
(215,0,l),
(388,0,l),
(388,9,l),
(346,9,o),
(328,9,o),
(328,73,cs),
(328,704,l),
(378,704,l),
(378,696,l),
(427,696,ls),
(455,696,o),
(576,697,o),
(576,553,c),
(585,553,l),
(585,704,l)
);
}
);
width = 605;
}
);
note = T;
unicode = 84;
},
{
glyphname = U;
kernLeft = U;
kernRight = U;
lastChange = "2022-10-06 08:01:49 +0000";
layers = (
{
hints = (
{
horizontal = 1;
place = (-9, 30);
place = (-9, 30);
type = Stem;
},
{
horizontal = 1;
place = (704, -20);
target = down;
type = TopGhost;
},
{
place = (73, 53);
place = (73, 53);
type = Stem;
}
);
layerId = m01;
shapes = (
{
closed = 1;
nodes = (
(528,479,ls),
(528,668,o),
(524,695,o),
(635,695,c),
(635,695,l),
(635,704,l),
(418,704,l),
(418,695,l),
(513,695,o),
(519,668,o),
(519,479,cs),
(519,232,ls),
(519,101,o),
(451,21,o),
(323,21,cs),
(253,21,o),
(198,45,o),
(165,90,c),
(126,224,l),
(126,607,ls),
(126,693,o),
(149,695,o),
(192,695,c),
(192,704,l),
(12,704,l),
(12,695,l),
(56,695,o),
(73,684,o),
(73,610,cs),
(73,234,ls),
(73,160,o),
(92,102,o),
(125,62,c),
(126,224,l),
(165,90,l),
(166,25,l),
(200,3,o),
(242,-9,o),
(289,-9,cs),
(448,-9,o),
(528,88,o),
(528,232,cs)
);
}
);
width = 649;
}
);
note = U;
unicode = 85;
},
{
glyphname = V;
kernLeft = V;
kernRight = V;
lastChange = "2022-10-06 08:03:26 +0000";
layers = (
{
hints = (
{
horizontal = 1;
place = (0, 21);
target = up;
type = BottomGhost;
},
{
horizontal = 1;
place = (704, -20);
target = down;
type = TopGhost;
}
);
layerId = m01;
shapes = (
{
closed = 1;
nodes = (
(468,704,l),
(468,695,l),
(591,695,o),
(570,641,o),
(502,456,cs),
(335,0,l),
(310,71,l),
(332,135,l),
(157,634,ls),
(152,648,o),
(149,695,o),
(232,695,c),
(232,704,l),
(13,704,l),
(13,695,l),
(55,695,o),
(84,693,o),
(107,630,cs),
(310,71,l),
(335,0,l),
(346,0,l),
(511,456,ls),
(597,694,o),
(595,695,o),
(681,695,c),
(681,704,l)
);
}
);
width = 704;
}
);
note = V;
unicode = 86;
},
{
glyphname = W;
kernLeft = W;
kernRight = W;
lastChange = "2022-10-06 08:05:38 +0000";
layers = (
{
hints = (
{
horizontal = 1;
place = (0, 21);
target = up;
type = BottomGhost;
},
{
horizontal = 1;
place = (704, -20);
target = down;
type = TopGhost;
}
);
layerId = m01;
shapes = (
{
closed = 1;
nodes = (
(761,704,l),
(761,695,l),
(871,695,o),
(856,648,o),
(799,457,c),
(645,0,l),
(619,70,l),
(642,143,l),
(481,639,l),
(478,653,o),
(469,695,o),
(557,695,c),
(557,704,l),
(338,704,l),
(338,695,l),
(379,695,o),
(413,683,o),
(437,620,c),
(484,471,l),
(337,0,l),
(310,70,l),
(332,139,l),
(158,639,ls),
(153,653,o),
(146,695,o),
(234,695,c),
(234,704,l),
(14,704,l),
(14,695,l),
(56,695,o),
(90,683,o),
(113,620,cs),
(310,70,l),
(337,0,l),
(347,0,l),
(489,458,l),
(619,70,l),
(645,0,l),
(654,0,l),
(809,456,ls),
(882,671,o),
(874,695,o),
(974,695,c),
(974,704,l)
);
}
);
width = 990;
}
);
note = W;
unicode = 87;
},
{
glyphname = X;
kernLeft = X;
lastChange = "2022-10-06 08:06:53 +0000";
layers = (
{
hints = (
{
horizontal = 1;
place = (0, 21);
target = up;
type = BottomGhost;
},
{
horizontal = 1;
place = (704, -20);
target = down;
type = TopGhost;
}
);
layerId = m01;
shapes = (
{
closed = 1;
nodes = (
(348,378,l),
(397,461,ls),
(535,695,o),
(534,695,o),
(631,695,c),
(631,704,l),
(403,704,l),
(403,695,l),
(500,695,o),
(506,663,o),
(388,466,cs),
(317,348,l),
(280,408,l),
(305,451,l),
(234,579,ls),
(172,691,o),
(208,695,o),
(241,695,c),
(241,704,l),
(44,704,l),
(44,695,l),
(89,695,o),
(106,692,o),
(164,598,cs),
(280,408,l),
(317,348,l),
(260,256,ls),
(109,12,o),
(101,8,o),
(22,8,c),
(22,0,l),
(238,0,l),
(238,8,l),
(140,8,o),
(146,18,o),
(268,249,c),
(323,339,l),
(447,121,l),
(481,67,o),
(512,8,o),
(445,8,c),
(445,0,l),
(629,0,l),
(629,8,l),
(575,12,o),
(561,11,o),
(507,104,cs)
);
}
);
width = 656;
}
);
note = X;
unicode = 88;
},
{
glyphname = Y;
kernLeft = Y;
kernRight = Y;
lastChange = "2022-10-06 08:39:53 +0000";
layers = (
{
hints = (
{
horizontal = 1;
place = (0, 21);
target = up;
type = BottomGhost;
},
{
horizontal = 1;
place = (704, -20);
target = down;
type = TopGhost;
},
{
place = (293, 42);
place = (293, 42);
type = Stem;
}
);
layerId = m01;
shapes = (
{
closed = 1;
nodes = (
(383,704,l),
(383,695,l),
(510,695,o),
(488,629,o),
(419,490,cs),
(360,371,l),
(365,362,l),
(335,312,l),
(180,584,ls),
(114,700,o),
(168,696,o),
(203,696,c),
(203,704,l),
(9,704,l),
(9,696,l),
(49,692,o),
(66,696,o),
(111,619,c),
(111,619,o),
(146,560,o),
(293,300,c),
(293,104,ls),
(293,9,o),
(270,10,o),
(228,10,c),
(228,0,l),
(401,0,l),
(401,10,l),
(359,10,o),
(335,9,o),
(335,104,cs),
(335,312,l),
(365,362,l),
(422,477,ls),
(532,699,o),
(537,695,o),
(598,695,c),
(598,704,l)
);
}
);
width = 613;
}
);
note = Y;
unicode = 89;
},
{
glyphname = Z;
lastChange = "2022-10-06 08:40:48 +0000";
layers = (
{
hints = (
{
horizontal = 1;
place = (0, 21);
target = up;
type = BottomGhost;
},
{
horizontal = 1;
place = (234, -20);
target = down;
type = TopGhost;
},
{
horizontal = 1;
place = (704, -20);
target = down;
type = TopGhost;
}
);
layerId = m01;
shapes = (
{
closed = 1;
nodes = (
(468,704,l),
(72,704,l),
(56,502,l),
(71,502,l),
(93,688,o),
(129,695,o),
(368,695,c),
(373,704,l),
(423,704,l),
(56,0,l),
(452,0,l),
(476,234,l),
(461,234,l),
(431,15,o),
(391,10,o),
(125,10,c)
);
}
);
width = 513;
}
);
note = Z;
unicode = 90;
},
{
glyphname = bracketleft;
layers = (
{
hints = (
{
horizontal = 1;
place = (-146, 21);
target = up;
type = BottomGhost;
},
{
horizontal = 1;
place = (735, -20);
target = down;
type = TopGhost;
},
{
place = (113, 49);
place = (113, 49);
type = Stem;
}
);
layerId = m01;
shapes = (
{
closed = 1;
nodes = (
(113,735,l),
(113,-146,l),
(268,-146,l),
(268,-136,l),
(216,-136,o),
(162,-133,o),
(162,-60,cs),
(162,640,ls),
(162,724,o),
(214,725,o),
(268,725,c),
(268,735,l)
);
}
);
width = 283;
}
);
note = bracketleft;
unicode = 91;
},
{
glyphname = backslash;
layers = (
{
hints = (
{
horizontal = 1;
place = (-20, 21);
target = up;
type = BottomGhost;
},
{
horizontal = 1;
place = (726, -20);
target = down;
type = TopGhost;
}
);
layerId = m01;
shapes = (
{
closed = 1;
nodes = (
(322,-20,l),
(369,-20,l),
(61,726,l),
(14,726,l)
);
}
);
width = 390;
}
);
note = backslash;
unicode = 92;
},
{
glyphname = bracketright;
layers = (
{
hints = (
{
horizontal = 1;
place = (-146, 21);
target = up;
type = BottomGhost;
},
{
horizontal = 1;
place = (735, -20);
target = down;
type = TopGhost;
},
{
place = (117, 49);
place = (117, 49);
type = Stem;
}
);
layerId = m01;
shapes = (
{
closed = 1;
nodes = (
(11,735,l),
(11,725,l),
(65,725,o),
(117,724,o),
(117,640,cs),
(117,-60,ls),
(117,-133,o),
(63,-136,o),
(11,-136,c),
(11,-146,l),
(166,-146,l),
(166,735,l)
);
}
);
width = 285;
}
);
note = bracketright;
unicode = 93;
},
{
glyphname = asciicircum;
layers = (
{
hints = (
{
horizontal = 1;
place = (376, 21);
target = up;
type = BottomGhost;
},
{
horizontal = 1;
place = (704, -20);
target = down;
type = TopGhost;
}
);
layerId = m01;
shapes = (
{
closed = 1;
nodes = (
(285,704,l),
(262,704,l),
(89,376,l),
(104,376,l),
(273,632,l),
(445,376,l),
(460,376,l)
);
}
);
width = 554;
}
);
note = asciicircum;
unicode = 94;
},
{
glyphname = underscore;
layers = (
{
hints = (
{
horizontal = 1;
place = (-115, 31);
place = (-115, 31);
type = Stem;
}
);
layerId = m01;
shapes = (
{
closed = 1;
nodes = (
(0,-84,l),
(0,-115,l),
(560,-115,l),
(560,-84,l)
);
}
);
width = 560;
}
);
note = underscore;
unicode = 95;
},
{
glyphname = grave;
layers = (
{
hints = (
{
horizontal = 1;
place = (556, 21);
target = up;
type = BottomGhost;
},
{
horizontal = 1;
place = (716, -20);
target = down;
type = TopGhost;
}
);
layerId = m01;
shapes = (
{
closed = 1;
nodes = (
(82,716,l),
(33,702,l),
(259,556,l),
(267,556,l)
);
}
);
width = 309;
}
);
note = grave;
unicode = 96;
},
{
glyphname = a;
kernLeft = a;
kernRight = a;
lastChange = "2022-10-06 08:41:40 +0000";
layers = (
{
hints = (
{
horizontal = 1;
place = (-9, 29);
place = (-9, 29);
type = Stem;
},
{
horizontal = 1;
place = (471, -20);
target = down;
type = TopGhost;
},
{
place = (41, 50);
place = (41, 50);
type = Stem;
},
{
place = (293, 54);
place = (293, 54);
type = Stem;
}
);
layerId = m01;
shapes = (
{
closed = 1;
nodes = (
(293,93,l),
(282,69,o),
(255,20,o),
(184,20,cs),
(127,20,o),
(91,53,o),
(91,111,cs),
(91,173,o),
(147,213,o),
(253,245,c),
(253,254,l),
(293,264,l),
(293,255,l)
);
},
{
closed = 1;
nodes = (
(347,24,o),
(347,80,o),
(347,80,c),
(347,271,ls),
(347,390,o),
(324,471,o),
(237,471,c),
(237,471,o),
(190,472,o),
(149,452,cs),
(96,423,o),
(76,390,o),
(71,378,cs),
(66,366,o),
(69,351,o),
(78,340,cs),
(91,324,o),
(113,323,o),
(128,336,cs),
(143,350,o),
(145,373,o),
(132,388,cs),
(125,396,o),
(117,399,o),
(108,401,cs),
(103,402,o),
(111,424,o),
(157,446,cs),
(248,484,o),
(293,420,o),
(293,318,cs),
(293,264,l),
(253,254,l),
(114,215,o),
(41,178,o),
(41,95,cs),
(41,-10,o),
(154,-9,o),
(154,-9,c),
(223,-9,o),
(280,26,o),
(293,78,c),
(293,-14,o),
(362,-9,o),
(362,-9,c),
(404,-9,o),
(425,27,o),
(430,56,c),
(422,59,l),
(415,24,o),
(389,24,o),
(389,24,c)
);
}
);
width = 445;
}
);
note = a;
unicode = 97;
},
{
glyphname = b;
kernRight = b;
lastChange = "2022-10-06 08:42:44 +0000";
layers = (
{
hints = (
{
horizontal = 1;
place = (0, 21);
target = up;
type = BottomGhost;
},
{
horizontal = 1;
place = (448, 23);
place = (448, 23);
type = Stem;
},
{
horizontal = 1;
place = (704, -20);
target = down;
type = TopGhost;
},
{
horizontal = 1;
place = (730, -20);
target = down;
type = TopGhost;
},
{
place = (65, 49);
place = (65, 49);
type = Stem;
},
{
place = (400, 66);
place = (400, 66);
type = Stem;
},
{
horizontal = 1;
place = (-9, 21);
target = up;
type = BottomGhost;
}
);
layerId = m01;
shapes = (
{
closed = 1;
nodes = (
(162,0,o),
(114,58,o),
(114,139,cs),
(114,315,l),
(114,397,l),
(154,437,l),
(154,417,l),
(175,434,o),
(208,448,o),
(240,448,cs),
(333,448,o),
(400,363,o),
(400,210,cs),
(400,44,o),
(300,0,o),
(240,0,cs)
);
},
{
closed = 1;
nodes = (
(225,471,o),
(184,456,o),
(154,437,c),
(114,397,l),
(114,730,l),
(14,713,l),
(14,704,l),
(56,704,o),
(65,690,o),
(65,656,cs),
(65,5,ls),
(65,-11,o),
(92,16,o),
(110,40,c),
(144,11,o),
(187,-9,o),
(244,-9,cs),
(371,-9,o),
(466,82,o),
(466,229,cs),
(466,346,o),
(413,471,o),
(259,471,cs)
);
}
);
width = 510;
}
);
note = b;
unicode = 98;
},
{
glyphname = c;
kernLeft = c;
kernRight = c;
lastChange = "2022-10-06 08:47:59 +0000";
layers = (
{
hints = (
{
horizontal = 1;
place = (-9, 22);
place = (-9, 22);
type = Stem;
},
{
horizontal = 1;
place = (462, -20);
target = down;
type = TopGhost;
},
{
place = (45, 60);
place = (45, 60);
type = Stem;
},
{
horizontal = 1;
place = (471, -20);
target = down;
type = TopGhost;
}
);
layerId = m01;
shapes = (
{
closed = 1;
nodes = (
(424,127,l),
(411,79,o),
(366,13,o),
(270,13,cs),
(197,13,o),
(105,73,o),
(105,232,cs),
(105,413,o),
(205,455,o),
(257,461,c),
(257,471,l),
(297,471,l),
(297,461,l),
(375,456,o),
(398,421,o),
(389,424,cs),
(384,426,o),
(374,426,o),
(364,422,cs),
(347,414,o),
(341,394,o),
(350,376,cs),
(357,360,o),
(380,356,o),
(396,363,cs),
(408,370,o),
(414,381,o),
(414,394,cs),
(414,410,o),
(404,465,o),
(297,471,c),
(257,471,l),
(131,463,o),
(45,353,o),
(45,228,cs),
(45,51,o),
(168,-9,o),
(260,-9,cs),
(381,-9,o),
(423,77,o),
(431,126,c)
);
}
);
width = 465;
}
);
note = c;
unicode = 99;
},
{
glyphname = d;
kernLeft = d;
kernRight = d;
lastChange = "2022-10-06 08:49:09 +0000";
layers = (
{
hints = (
{
horizontal = 1;
place = (-9, 23);
place = (-9, 23);
type = Stem;
},
{
horizontal = 1;
place = (462, -20);
target = down;
type = TopGhost;
},
{
horizontal = 1;
place = (704, -20);
target = down;
type = TopGhost;
},
{
horizontal = 1;
place = (730, -20);
target = down;
type = TopGhost;
},
{
place = (40, 66);
place = (40, 66);
type = Stem;
},
{
place = (389, 49);
place = (389, 49);
type = Stem;
},
{
horizontal = 1;
place = (471, -20);
target = down;
type = TopGhost;
}
);
layerId = m01;
shapes = (
{
closed = 1;
nodes = (
(389,130,ls),
(389,60,o),
(331,14,o),
(267,14,cs),
(174,14,o),
(106,99,o),
(106,255,cs),
(106,424,o),
(207,462,o),
(267,462,cs),
(300,462,o),
(326,449,o),
(349,425,c),
(349,451,l),
(389,428,l),
(389,339,l)
);
},
{
closed = 1;
nodes = (
(438,730,l),
(338,713,l),
(338,704,l),
(379,704,o),
(389,687,o),
(389,652,cs),
(389,428,l),
(349,451,l),
(324,464,o),
(297,471,o),
(263,471,cs),
(136,471,o),
(40,386,o),
(40,236,cs),
(40,115,o),
(93,-9,o),
(248,-9,cs),
(300,-9,o),
(359,15,o),
(389,58,c),
(389,10,l),
(389,10,o),
(389,-14,o),
(417,-8,cs),
(489,7,l),
(489,15,l),
(449,11,o),
(438,11,o),
(438,60,cs)
);
}
);
width = 499;
}
);
note = d;
unicode = 100;
},
{
glyphname = e;
kernLeft = e;
kernRight = e;
lastChange = "2022-10-06 08:50:17 +0000";
layers = (
{
hints = (
{
horizontal = 1;
place = (-9, 20);
place = (-9, 20);
type = Stem;
},
{
horizontal = 1;
place = (240, 231);
place = (240, 231);
type = Stem;
},
{
place = (37, 59);
place = (37, 59);
type = Stem;
},
{
place = (367, 50);
place = (367, 50);
type = Stem;
},
{
horizontal = 1;
place = (250, -20);
target = down;
type = TopGhost;
},
{
horizontal = 1;
place = (462, -20);
target = down;
type = TopGhost;
}
);
layerId = m01;
shapes = (
{
closed = 1;
nodes = (
(166,11,o),
(96,69,o),
(96,240,c),
(417,240,l),
(417,399,o),
(326,471,o),
(238,471,cs),
(129,471,o),
(37,380,o),
(37,225,cs),
(37,78,o),
(125,-9,o),
(243,-9,cs),
(345,-9,o),
(397,73,o),
(402,115,c),
(396,116,l),
(384,64,o),
(323,11,o),
(256,11,cs)
);
},
{
closed = 1;
nodes = (
(136,250,l),
(136,240,l),
(96,240,l),
(96,250,l),
(96,405,o),
(182,462,o),
(238,462,cs),
(278,462,o),
(367,415,o),
(367,250,c)
);
}
);
width = 457;
}
);
note = e;
unicode = 101;
},
{
glyphname = f;
kernRight = f;
lastChange = "2022-10-06 08:50:44 +0000";
layers = (
{
hints = (
{
horizontal = 1;
place = (0, 21);
target = up;
type = BottomGhost;
},
{
horizontal = 1;
place = (462, -20);
target = down;
type = TopGhost;
},
{
horizontal = 1;
place = (743, -20);
target = down;
type = TopGhost;
},
{
place = (77, 50);
place = (77, 50);
type = Stem;
}
);
layerId = m01;
shapes = (
{
closed = 1;
nodes = (
(282,727,o),
(250,743,o),
(213,743,cs),
(105,743,o),
(77,667,o),
(77,462,c),
(12,462,l),
(13,453,l),
(77,453,l),
(77,58,ls),
(77,12,o),
(76,13,o),
(38,8,c),
(38,0,l),
(183,0,l),
(183,8,l),
(147,12,o),
(127,8,o),
(127,58,cs),
(127,453,l),
(242,453,l),
(244,462,l),
(167,462,l),
(167,453,l),
(127,453,l),
(127,462,l),
(127,696,o),
(156,735,o),
(213,735,cs),
(234,735,o),
(250,721,o),
(245,718,cs),
(238,715,o),
(231,707,o),
(228,697,cs),
(221,676,o),
(233,656,o),
(253,650,cs),
(273,644,o),
(294,655,o),
(300,675,cs),
(304,689,o),
(299,707,o),
(290,717,cs)
);
}
);
width = 264;
}
);
note = f;
unicode = 102;
},
{
glyphname = g;
lastChange = "2022-10-06 08:51:51 +0000";
layers = (
{
hints = (
{
horizontal = 1;
place = (0, 49);
place = (0, 49);
type = Stem;
},
{
horizontal = 1;
place = (158, -20);
target = down;
type = TopGhost;
},
{
horizontal = 1;
place = (474, -20);
target = down;
type = TopGhost;
},
{
place = (63, 57);
place = (63, 57);
type = Stem;
},
{
place = (371, 57);
place = (371, 57);
type = Stem;
},
{
horizontal = 1;
place = (471, -20);
target = down;
type = TopGhost;
},
{
horizontal = 1;
place = (0, 166);
place = (0, 166);
type = Stem;
},
{
horizontal = 1;
place = (462, -20);
target = down;
type = TopGhost;
}
);
layerId = m01;
shapes = (
{
closed = 1;
nodes = (
(498,469,o),
(484,474,o),
(470,474,cs),
(446,474,o),
(407,457,o),
(384,422,c),
(354,449,o),
(317,468,o),
(269,471,c),
(229,471,l),
(129,464,o),
(63,392,o),
(63,315,cs),
(63,262,o),
(83,205,o),
(139,180,c),
(50,163,o),
(57,86,o),
(57,86,c),
(57,59,o),
(64,32,o),
(95,17,c),
(22,-32,o),
(-6,-100,o),
(33,-163,cs),
(76,-233,o),
(209,-253,o),
(342,-178,cs),
(447,-119,o),
(449,-47,o),
(449,-47,c),
(465,64,o),
(340,49,o),
(271,49,cs),
(171,49,ls),
(40,49,o),
(80,172,o),
(146,176,c),
(174,164,o),
(206,158,o),
(245,158,cs),
(355,158,o),
(428,234,o),
(428,315,cs),
(428,351,o),
(415,392,o),
(389,417,c),
(408,449,o),
(447,452,o),
(444,444,cs),
(441,435,o),
(443,425,o),
(449,417,cs),
(459,401,o),
(481,399,o),
(497,410,cs),
(512,421,o),
(516,442,o),
(506,458,cs)
);
},
{
closed = 1;
nodes = (
(134,1,o),
(172,0,o),
(183,0,cs),
(324,0,ls),
(423,0,o),
(421,-48,o),
(421,-48,c),
(421,-48,o),
(427,-113,o),
(337,-170,cs),
(253,-224,o),
(124,-197,o),
(85,-151,cs),
(89,-155,o),
(5,-61,o),
(103,12,c)
);
},
{
closed = 1;
nodes = (
(201,166,o),
(120,203,o),
(120,315,cs),
(120,416,o),
(181,455,o),
(229,461,c),
(229,471,l),
(269,471,l),
(269,461,l),
(313,454,o),
(371,416,o),
(371,315,cs),
(371,203,o),
(291,166,o),
(245,166,cs)
);
}
);
width = 514;
}
);
note = g;
unicode = 103;
},
{
glyphname = h;
kernLeft = h;
kernRight = h;
lastChange = "2022-10-06 08:52:39 +0000";
layers = (
{
hints = (
{
horizontal = 1;
place = (0, 21);
target = up;
type = BottomGhost;
},
{
horizontal = 1;
place = (444, 27);
place = (444, 27);
type = Stem;
},
{
horizontal = 1;
place = (704, -20);
target = down;
type = TopGhost;
},
{
horizontal = 1;
place = (730, -20);
target = down;
type = TopGhost;
},
{
place = (66, 50);
place = (66, 50);
type = Stem;
},
{
place = (363, 49);
place = (363, 49);
type = Stem;
}
);
layerId = m01;
shapes = (
{
closed = 1;
nodes = (
(412,304,ls),
(412,424,o),
(346,471,o),
(262,471,cs),
(220,471,o),
(184,450,o),
(156,420,c),
(116,353,l),
(116,730,l),
(16,713,l),
(16,704,l),
(58,704,o),
(66,690,o),
(66,655,cs),
(66,64,ls),
(66,13,o),
(64,20,o),
(26,9,c),
(26,0,l),
(157,0,l),
(157,9,l),
(121,18,o),
(116,9,o),
(116,64,cs),
(116,353,l),
(156,420,l),
(156,402,l),
(177,424,o),
(202,444,o),
(239,444,cs),
(321,444,o),
(363,388,o),
(363,300,cs),
(363,64,ls),
(363,13,o),
(361,19,o),
(323,8,c),
(323,0,l),
(453,0,l),
(453,8,l),
(418,17,o),
(412,9,o),
(412,64,cs)
);
}
);
width = 474;
}
);
note = h;
unicode = 104;
},
{
glyphname = i;
kernLeft = i;
kernRight = i;
layers = (
{
hints = (
{
horizontal = 1;
place = (0, 21);
target = up;
type = BottomGhost;
},
{
horizontal = 1;
place = (558, 68);
place = (558, 68);
type = Stem;
},
{
place = (79, 50);
place = (79, 50);
type = Stem;
},
{
place = (61, 68);
place = (61, 68);
type = Stem;
}
);
layerId = m01;
shapes = (
{
closed = 1;
nodes = (
(129,471,l),
(30,454,l),
(30,446,l),
(72,446,o),
(79,432,o),
(79,397,cs),
(79,64,ls),
(79,13,o),
(77,20,o),
(39,9,c),
(39,0,l),
(170,0,l),
(170,9,l),
(134,18,o),
(129,9,o),
(129,64,cs)
);
},
{
closed = 1;
nodes = (
(128,611,o),
(112,626,o),
(94,626,cs),
(75,626,o),
(61,611,o),
(61,591,cs),
(61,573,o),
(75,558,o),
(94,558,cs),
(112,558,o),
(128,573,o),
(128,591,cs)
);
}
);
width = 208;
}
);
note = i;
unicode = 105;
},
{
glyphname = j;
layers = (
{
hints = (
{
horizontal = 1;
place = (-228, 21);
target = up;
type = BottomGhost;
},
{
horizontal = 1;
place = (558, 68);
place = (558, 68);
type = Stem;
},
{
place = (64, 68);
place = (64, 68);
type = Stem;
},
{
place = (82, 50);
place = (82, 50);
type = Stem;
}
);
layerId = m01;
shapes = (
{
closed = 1;
nodes = (
(82,27,ls),
(82,-43,o),
(82,-185,o),
(-18,-220,c),
(-18,-228,l),
(81,-203,o),
(132,-139,o),
(132,50,cs),
(132,471,l),
(33,454,l),
(33,446,l),
(77,446,o),
(82,426,o),
(82,392,cs)
);
},
{
closed = 1;
nodes = (
(131,611,o),
(115,626,o),
(97,626,cs),
(78,626,o),
(64,611,o),
(64,591,cs),
(64,573,o),
(78,558,o),
(97,558,cs),
(115,558,o),
(131,573,o),
(131,591,cs)
);
}
);
width = 211;
}
);
note = j;
unicode = 106;
},
{
glyphname = k;
kernLeft = k;
kernRight = k;
layers = (
{
hints = (
{
horizontal = 1;
place = (0, 21);
target = up;
type = BottomGhost;
},
{
horizontal = 1;
place = (462, -20);
target = down;
type = TopGhost;
},
{
horizontal = 1;
place = (704, -20);
target = down;
type = TopGhost;
},
{
horizontal = 1;
place = (730, -20);
target = down;
type = TopGhost;
},
{
place = (60, 50);
place = (60, 50);
type = Stem;
}
);
layerId = m01;
shapes = (
{
closed = 1;
nodes = (
(186,246,l),
(376,436,o),
(388,454,o),
(463,454,c),
(463,462,l),
(255,462,l),
(255,454,l),
(392,454,o),
(238,321,o),
(238,321,c),
(144,228,l),
(240,118,ls),
(324,24,o),
(346,0,o),
(415,0,cs),
(452,0,l),
(452,9,l),
(423,9,o),
(406,12,o),
(380,39,cs)
);
},
{
closed = 1;
nodes = (
(110,730,l),
(10,713,l),
(10,704,l),
(52,704,o),
(60,690,o),
(60,655,cs),
(60,64,ls),
(60,13,o),
(58,20,o),
(20,9,c),
(20,0,l),
(151,0,l),
(151,9,l),
(115,18,o),
(110,9,o),
(110,64,cs)
);
}
);
width = 467;
}
);
note = k;
unicode = 107;
},
{
glyphname = l;
kernRight = l;
layers = (
{
hints = (
{
horizontal = 1;
place = (0, 21);
target = up;
type = BottomGhost;
},
{
horizontal = 1;
place = (704, -20);
target = down;
type = TopGhost;
},
{
horizontal = 1;
place = (730, -20);
target = down;
type = TopGhost;
},
{
place = (73, 50);
place = (73, 50);
type = Stem;
}
);
layerId = m01;
shapes = (
{
closed = 1;
nodes = (
(123,730,l),
(23,713,l),
(23,704,l),
(65,704,o),
(73,690,o),
(73,655,cs),
(73,64,ls),
(73,13,o),
(71,20,o),
(33,9,c),
(33,0,l),
(164,0,l),
(164,9,l),
(128,18,o),
(123,9,o),
(123,64,cs)
);
}
);
width = 197;
}
);
note = l;
unicode = 108;
},
{
glyphname = m;
kernRight = m;
lastChange = "2022-10-06 08:54:18 +0000";
layers = (
{
hints = (
{
horizontal = 1;
place = (0, 21);
target = up;
type = BottomGhost;
},
{
horizontal = 1;
place = (444, 27);
place = (444, 27);
type = Stem;
},
{
place = (61, 50);
place = (61, 50);
type = Stem;
},
{
place = (329, 49);
place = (329, 49);
type = Stem;
},
{
place = (593, 49);
place = (593, 49);
type = Stem;
}
);
layerId = m01;
shapes = (
{
closed = 1;
nodes = (
(642,304,ls),
(642,424,o),
(591,471,o),
(506,471,cs),
(470,471,o),
(437,454,o),
(413,430,c),
(373,363,l),
(359,440,o),
(313,471,o),
(243,471,cs),
(201,471,o),
(177,457,o),
(151,427,c),
(111,369,l),
(111,471,l),
(11,454,l),
(11,446,l),
(53,446,o),
(61,431,o),
(61,396,cs),
(61,64,ls),
(61,13,o),
(59,20,o),
(21,9,c),
(21,0,l),
(152,0,l),
(152,9,l),
(116,18,o),
(111,9,o),
(111,64,cs),
(111,369,l),
(151,427,l),
(151,408,l),
(169,431,o),
(183,444,o),
(220,444,cs),
(303,444,o),
(329,388,o),
(329,300,cs),
(329,64,ls),
(329,13,o),
(327,19,o),
(289,8,c),
(289,0,l),
(419,0,l),
(419,8,l),
(384,17,o),
(378,9,o),
(378,64,cs),
(378,304,ls),
(378,322,o),
(375,349,o),
(373,363,c),
(413,430,l),
(413,413,l),
(430,431,o),
(454,444,o),
(484,444,cs),
(566,444,o),
(593,388,o),
(593,300,cs),
(593,64,ls),
(593,13,o),
(591,19,o),
(553,8,c),
(553,0,l),
(683,0,l),
(683,8,l),
(648,17,o),
(642,9,o),
(642,64,cs)
);
}
);
width = 701;
}
);
note = m;
unicode = 109;
},
{
glyphname = n;
kernRight = n;
lastChange = "2022-10-06 08:55:07 +0000";
layers = (
{
hints = (
{
horizontal = 1;
place = (0, 21);
target = up;
type = BottomGhost;
},
{
horizontal = 1;
place = (444, 27);
place = (444, 27);
type = Stem;
},
{
place = (61, 50);
place = (61, 50);
type = Stem;
},
{
place = (354, 49);
place = (354, 49);
type = Stem;
}
);
layerId = m01;
shapes = (
{
closed = 1;
nodes = (
(403,304,ls),
(403,424,o),
(337,471,o),
(253,471,cs),
(216,471,o),
(178,454,o),
(151,430,c),
(111,369,l),
(111,471,l),
(11,454,l),
(11,446,l),
(53,446,o),
(61,431,o),
(61,396,cs),
(61,64,ls),
(61,13,o),
(59,20,o),
(21,9,c),
(21,0,l),
(152,0,l),
(152,9,l),
(116,18,o),
(111,9,o),
(111,64,cs),
(111,369,l),
(151,430,l),
(151,411,l),
(171,429,o),
(198,444,o),
(230,444,cs),
(312,444,o),
(354,388,o),
(354,300,cs),
(354,64,ls),
(354,13,o),
(352,19,o),
(314,8,c),
(314,0,l),
(444,0,l),
(444,8,l),
(409,17,o),
(403,9,o),
(403,64,cs)
);
}
);
width = 468;
}
);
note = n;
unicode = 110;
},
{
glyphname = o;
kernLeft = o;
kernRight = o;
lastChange = "2022-10-06 08:56:18 +0000";
layers = (
{
hints = (
{
horizontal = 1;
place = (-9, 21);
target = up;
type = BottomGhost;
},
{
horizontal = 1;
place = (471, -20);
target = down;
type = TopGhost;
},
{
place = (41, 57);
place = (41, 57);
type = Stem;
},
{
place = (429, 58);
place = (429, 58);
type = Stem;
},
{
horizontal = 1;
place = (0, 21);
target = up;
type = BottomGhost;
},
{
horizontal = 1;
place = (462, -20);
target = down;
type = TopGhost;
}
);
layerId = m01;
shapes = (
{
closed = 1;
nodes = (
(239,471,l),
(99,463,o),
(41,358,o),
(41,231,cs),
(41,100,o),
(112,-9,o),
(264,-9,cs),
(417,-9,o),
(487,100,o),
(487,231,cs),
(487,359,o),
(422,464,o),
(279,471,c)
);
},
{
closed = 1;
nodes = (
(183,0,o),
(98,50,o),
(98,231,cs),
(98,398,o),
(164,454,o),
(239,461,c),
(239,471,l),
(279,471,l),
(279,461,l),
(355,455,o),
(429,400,o),
(429,231,cs),
(429,50,o),
(345,0,o),
(264,0,cs)
);
}
);
width = 534;
}
);
note = o;
unicode = 111;
},
{
glyphname = p;
kernLeft = p;
kernRight = p;
lastChange = "2022-10-06 08:58:12 +0000";
layers = (
{
hints = (
{
horizontal = 1;
place = (-265, 21);
target = up;
type = BottomGhost;
},
{
horizontal = 1;
place = (0, 21);
target = up;
type = BottomGhost;
},
{
horizontal = 1;
place = (448, 23);
place = (448, 23);
type = Stem;
},
{
place = (67, 50);
place = (67, 50);
type = Stem;
},
{
place = (403, 66);
place = (403, 66);
type = Stem;
},
{
horizontal = 1;
place = (-9, 21);
target = up;
type = BottomGhost;
}
);
layerId = m01;
shapes = (
{
closed = 1;
nodes = (
(168,0,o),
(117,53,o),
(117,130,cs),
(117,397,l),
(157,437,l),
(157,412,l),
(179,440,o),
(200,448,o),
(243,448,cs),
(335,448,o),
(403,364,o),
(403,208,cs),
(403,39,o),
(303,0,o),
(243,0,cs)
);
},
{
closed = 1;
nodes = (
(221,471,o),
(189,464,o),
(157,437,c),
(117,397,l),
(117,471,l),
(17,454,l),
(17,446,l),
(59,446,o),
(67,431,o),
(67,396,cs),
(67,-201,ls),
(67,-252,o),
(65,-245,o),
(27,-256,c),
(27,-265,l),
(158,-265,l),
(158,-256,l),
(122,-247,o),
(117,-256,o),
(117,-201,cs),
(117,36,l),
(150,9,o),
(192,-9,o),
(247,-9,cs),
(374,-9,o),
(469,77,o),
(469,227,cs),
(469,347,o),
(416,471,o),
(262,471,cs)
);
}
);
width = 518;
}
);
note = p;
unicode = 112;
},
{
glyphname = q;
kernLeft = q;
lastChange = "2022-10-06 11:00:23 +0000";
layers = (
{
hints = (
{
horizontal = 1;
place = (-265, 21);
target = up;
type = BottomGhost;
},
{
horizontal = 1;
place = (-9, 23);
place = (-9, 23);
type = Stem;
},
{
horizontal = 1;
place = (462, -20);
target = down;
type = TopGhost;
},
{
place = (39, 66);
place = (39, 66);
type = Stem;
},
{
place = (387, 50);
place = (387, 50);
type = Stem;
},
{
horizontal = 1;
place = (471, -20);
target = down;
type = TopGhost;
}
);
layerId = m01;
shapes = (
{
closed = 1;
nodes = (
(387,58,l),
(347,16,l),
(347,36,l),
(328,26,o),
(288,14,o),
(265,14,cs),
(172,14,o),
(105,99,o),
(105,255,cs),
(105,424,o),
(205,462,o),
(265,462,cs),
(326,462,o),
(380,415,o),
(387,353,c)
);
},
{
closed = 1;
nodes = (
(437,458,ls),
(437,474,o),
(401,452,o),
(390,427,c),
(356,454,o),
(313,471,o),
(261,471,cs),
(134,471,o),
(39,386,o),
(39,236,cs),
(39,116,o),
(92,-9,o),
(246,-9,cs),
(273,-9,o),
(321,3,o),
(347,16,c),
(387,58,l),
(387,-201,ls),
(387,-252,o),
(385,-245,o),
(347,-256,c),
(347,-265,l),
(478,-265,l),
(478,-256,l),
(442,-247,o),
(437,-256,o),
(437,-201,cs)
);
}
);
width = 505;
}
);
note = q;
unicode = 113;
},
{
glyphname = r;
kernLeft = r;
kernRight = r;
lastChange = "2022-10-06 11:01:17 +0000";
layers = (
{
hints = (
{
horizontal = 1;
place = (0, 21);
target = up;
type = BottomGhost;
},
{
place = (64, 50);
place = (64, 50);
type = Stem;
}
);
layerId = m01;
shapes = (
{
closed = 1;
nodes = (
(222,475,o),
(186,456,o),
(154,419,c),
(154,404,l),
(114,355,l),
(114,471,l),
(14,454,l),
(14,446,l),
(56,446,o),
(64,432,o),
(64,397,cs),
(64,64,ls),
(64,13,o),
(62,20,o),
(24,9,c),
(24,0,l),
(155,0,l),
(155,9,l),
(119,18,o),
(114,9,o),
(114,64,cs),
(114,355,l),
(154,404,l),
(192,450,o),
(233,461,o),
(226,444,cs),
(223,435,o),
(223,425,o),
(226,416,cs),
(235,396,o),
(258,387,o),
(277,395,cs),
(297,404,o),
(306,425,o),
(298,445,cs),
(291,459,o),
(279,468,o),
(265,470,cs)
);
}
);
width = 320;
}
);
note = r;
unicode = 114;
},
{
glyphname = s;
kernLeft = s;
kernRight = s;
lastChange = "2022-10-06 11:02:22 +0000";
layers = (
{
hints = (
{
horizontal = 1;
place = (0, 21);
target = up;
type = BottomGhost;
},
{
horizontal = 1;
place = (171, -20);
target = down;
type = TopGhost;
},
{
horizontal = 1;
place = (306, -20);
target = down;
type = TopGhost;
},
{
horizontal = 1;
place = (462, -20);
target = down;
type = TopGhost;
},
{
horizontal = 1;
place = (471, -20);
target = down;
type = TopGhost;
},
{
horizontal = 1;
place = (-9, 21);
target = up;
type = BottomGhost;
}
);
layerId = m01;
shapes = (
{
closed = 1;
nodes = (
(155,297,ls),
(75,347,o),
(67,444,o),
(159,460,c),
(159,471,l),
(199,471,l),
(199,461,l),
(308,453,o),
(333,383,o),
(333,306,c),
(341,306,l),
(341,438,l),
(341,438,o),
(297,467,o),
(199,471,c),
(159,471,l),
(80,461,o),
(54,407,o),
(54,407,c),
(28,342,o),
(47,303,o),
(141,234,c),
(242,173,ls),
(320,126,o),
(357,0,o),
(216,0,cs),
(72,0,o),
(55,78,o),
(55,171,c),
(47,171,l),
(47,25,l),
(47,25,o),
(95,-9,o),
(216,-9,cs),
(299,-9,o),
(330,36,o),
(330,36,c),
(376,101,o),
(348,177,o),
(256,234,cs)
);
}
);
width = 396;
}
);
note = s;
unicode = 115;
},
{
glyphname = t;
kernLeft = t;
lastChange = "2022-10-06 11:02:49 +0000";
layers = (
{
hints = (
{
horizontal = 1;
place = (-9, 27);
place = (-9, 27);
type = Stem;
},
{
horizontal = 1;
place = (462, -20);
target = down;
type = TopGhost;
},
{
horizontal = 1;
place = (619, -20);
target = down;
type = TopGhost;
},
{
place = (70, 50);
place = (70, 50);
type = Stem;
}
);
layerId = m01;
shapes = (
{
closed = 1;
nodes = (
(153,18,o),
(120,44,o),
(120,147,cs),
(120,453,l),
(160,453,l),
(236,453,l),
(238,462,l),
(160,462,l),
(160,453,l),
(120,453,l),
(120,619,l),
(70,613,l),
(70,462,l),
(18,462,l),
(19,453,l),
(70,453,l),
(70,144,ls),
(70,23,o),
(112,-9,o),
(178,-9,cs),
(227,-9,o),
(257,25,o),
(265,66,c),
(259,68,l),
(252,41,o),
(227,18,o),
(198,18,cs)
);
}
);
width = 280;
}
);
note = t;
unicode = 116;
},
{
glyphname = u;
kernLeft = u;
lastChange = "2022-10-06 11:04:36 +0000";
layers = (
{
hints = (
{
horizontal = 1;
place = (-9, 26);
place = (-9, 26);
type = Stem;
},
{
horizontal = 1;
place = (471, -20);
target = down;
type = TopGhost;
},
{
place = (73, 48);
place = (73, 48);
type = Stem;
},
{
place = (363, 50);
place = (363, 50);
type = Stem;
}
);
layerId = m01;
shapes = (
{
closed = 1;
nodes = (
(413,471,l),
(316,453,l),
(316,445,l),
(363,445,o),
(363,444,o),
(363,383,cs),
(363,85,l),
(323,22,l),
(323,44,l),
(305,31,o),
(273,17,o),
(243,17,cs),
(185,17,o),
(121,48,o),
(121,143,cs),
(121,471,l),
(17,453,l),
(17,445,l),
(73,445,o),
(73,445,o),
(73,376,cs),
(73,140,ls),
(73,11,o),
(167,-9,o),
(232,-9,cs),
(265,-9,o),
(301,7,o),
(323,22,c),
(363,85,l),
(363,3,l),
(363,3,o),
(362,-12,o),
(384,-8,cs),
(464,5,l),
(464,13,l),
(422,18,o),
(413,27,o),
(413,75,cs)
);
}
);
width = 482;
}
);
note = u;
unicode = 117;
},
{
glyphname = v;
kernLeft = v;
kernRight = v;
lastChange = "2022-10-06 11:05:48 +0000";
layers = (
{
hints = (
{
horizontal = 1;
place = (-9, 21);
target = up;
type = BottomGhost;
},
{
horizontal = 1;
place = (462, -20);
target = down;
type = TopGhost;
}
);
layerId = m01;
shapes = (
{
closed = 1;
nodes = (
(322,462,l),
(322,454,l),
(432,454,o),
(387,338,o),
(387,338,c),
(264,-9,l),
(236,51,l),
(260,126,l),
(139,390,l),
(139,390,o),
(105,454,o),
(182,454,c),
(182,462,l),
(3,462,l),
(3,454,l),
(19,452,o),
(49,453,o),
(74,406,c),
(74,406,o),
(85,379,o),
(228,68,c),
(264,-9,l),
(273,-9,l),
(402,352,l),
(443,453,o),
(460,454,o),
(513,454,c),
(513,462,l)
);
}
);
width = 513;
}
);
note = v;
unicode = 118;
},
{
glyphname = w;
kernLeft = w;
kernRight = w;
lastChange = "2022-10-06 11:08:53 +0000";
layers = (
{
hints = (
{
horizontal = 1;
place = (-9, 21);
target = up;
type = BottomGhost;
},
{
horizontal = 1;
place = (462, -20);
target = down;
type = TopGhost;
}
);
layerId = m01;
shapes = (
{
closed = 1;
nodes = (
(517,462,l),
(517,454,l),
(607,454,o),
(581,369,o),
(581,369,c),
(460,-9,l),
(441,51,l),
(463,125,l),
(358,394,l),
(358,394,o),
(330,454,o),
(396,454,c),
(396,462,l),
(248,462,l),
(248,454,l),
(262,452,o),
(286,444,o),
(306,392,c),
(306,392,o),
(310,383,o),
(341,306,c),
(237,-9,l),
(217,51,l),
(239,125,l),
(133,399,l),
(133,399,o),
(110,454,o),
(164,454,c),
(164,462,l),
(16,462,l),
(16,454,l),
(30,452,o),
(62,444,o),
(83,392,c),
(83,392,o),
(97,356,o),
(217,51,c),
(237,-9,l),
(247,-9,l),
(346,292,l),
(365,243,o),
(398,157,o),
(441,51,c),
(460,-9,l),
(470,-9,l),
(588,362,ls),
(615,447,o),
(644,454,o),
(676,454,c),
(676,462,l)
);
}
);
width = 680;
}
);
note = w;
unicode = 119;
},
{
glyphname = x;
kernLeft = x;
kernRight = x;
lastChange = "2022-10-06 11:10:18 +0000";
layers = (
{
hints = (
{
horizontal = 1;
place = (0, 21);
target = up;
type = BottomGhost;
},
{
horizontal = 1;
place = (462, -20);
target = down;
type = TopGhost;
}
);
layerId = m01;
shapes = (
{
closed = 1;
nodes = (
(261,249,l),
(294,297,ls),
(402,454,o),
(429,454,o),
(485,454,c),
(485,462,l),
(285,462,l),
(285,454,l),
(388,454,o),
(356,406,o),
(287,303,cs),
(256,257,l),
(228,299,l),
(173,377,ls),
(130,439,o),
(154,454,o),
(179,454,c),
(179,462,l),
(12,462,l),
(12,454,l),
(49,454,o),
(61,444,o),
(103,391,c),
(201,250,l),
(228,299,l),
(256,257,l),
(229,210,l),
(197,163,ls),
(86,-1,o),
(46,8,o),
(3,8,c),
(3,0,l),
(183,0,l),
(183,8,l),
(107,8,o),
(114,27,o),
(204,158,cs),
(235,203,l),
(322,79,l),
(322,79,o),
(376,8,o),
(321,8,c),
(321,0,l),
(481,0,l),
(481,8,l),
(462,10,o),
(427,10,o),
(386,69,cs)
);
}
);
width = 494;
}
);
note = x;
unicode = 120;
},
{
glyphname = y;
kernLeft = y;
kernRight = y;
lastChange = "2022-10-06 11:11:16 +0000";
layers = (
{
hints = (
{
horizontal = 1;
place = (462, -20);
target = down;
type = TopGhost;
}
);
layerId = m01;
shapes = (
{
closed = 1;
nodes = (
(320,462,l),
(320,454,l),
(436,456,o),
(377,292,o),
(377,292,c),
(274,0,l),
(250,50,l),
(272,117,l),
(155,370,l),
(155,370,o),
(112,454,o),
(189,454,c),
(189,462,l),
(11,462,l),
(11,454,l),
(27,452,o),
(65,444,o),
(89,392,c),
(89,392,o),
(108,358,o),
(250,50,c),
(274,0,l),
(222,-150,ls),
(210,-183,o),
(191,-204,o),
(187,-187,cs),
(185,-179,o),
(178,-169,o),
(168,-165,cs),
(150,-157,o),
(129,-165,o),
(120,-184,cs),
(113,-202,o),
(120,-223,o),
(139,-232,cs),
(152,-238,o),
(171,-235,o),
(181,-227,cs),
(191,-219,o),
(212,-200,o),
(229,-153,cs),
(386,290,ls),
(439,439,o),
(462,454,o),
(511,454,c),
(511,462,l)
);
}
);
width = 526;
}
);
note = y;
unicode = 121;
},
{
glyphname = z;
lastChange = "2022-10-06 11:11:55 +0000";
layers = (
{
hints = (
{
horizontal = 1;
place = (0, 21);
target = up;
type = BottomGhost;
},
{
horizontal = 1;
place = (152, -20);
target = down;
type = TopGhost;
},
{
horizontal = 1;
place = (330, -20);
target = down;
type = TopGhost;
},
{
horizontal = 1;
place = (462, -20);
target = down;
type = TopGhost;
}
);
layerId = m01;
shapes = (
{
closed = 1;
nodes = (
(350,462,l),
(35,462,l),
(30,330,l),
(40,330,l),
(47,442,o),
(109,453,o),
(228,454,c),
(233,462,l),
(293,462,l),
(32,0,l),
(342,0,l),
(351,152,l),
(341,152,l),
(328,13,o),
(249,8,o),
(99,8,c)
);
}
);
width = 409;
}
);
note = z;
unicode = 122;
},
{
glyphname = braceleft;
layers = (
{
hints = (
{
horizontal = 1;
place = (-164, 21);
target = up;
type = BottomGhost;
},
{
horizontal = 1;
place = (280, -20);
target = down;
type = TopGhost;
},
{
horizontal = 1;
place = (735, -20);
target = down;
type = TopGhost;
},
{
place = (128, 50);
place = (128, 50);
type = Stem;
}
);
layerId = m01;
shapes = (
{
closed = 1;
nodes = (
(178,147,ls),
(178,256,o),
(105,280,o),
(86,280,c),
(105,280,o),
(178,314,o),
(178,424,cs),
(178,568,ls),
(178,672,o),
(217,716,o),
(258,731,c),
(257,735,l),
(178,724,o),
(128,683,o),
(128,568,cs),
(128,451,ls),
(128,293,o),
(90,297,o),
(49,282,c),
(49,278,l),
(90,263,o),
(128,268,o),
(128,120,cs),
(128,3,ls),
(128,-112,o),
(178,-153,o),
(257,-164,c),
(258,-160,l),
(217,-146,o),
(178,-101,o),
(178,3,cs)
);
}
);
width = 316;
}
);
note = braceleft;
unicode = 123;
},
{
glyphname = bar;
layers = (
{
hints = (
{
horizontal = 1;
place = (-164, 21);
target = up;
type = BottomGhost;
},
{
horizontal = 1;
place = (735, -20);
target = down;
type = TopGhost;
},
{
place = (76, 40);
place = (76, 40);
type = Stem;
}
);
layerId = m01;
shapes = (
{
closed = 1;
nodes = (
(76,-164,l),
(116,-164,l),
(116,735,l),
(76,735,l)
);
}
);
width = 194;
}
);
note = bar;
unicode = 124;
},
{
glyphname = braceright;
layers = (
{
hints = (
{
horizontal = 1;
place = (-165, 21);
target = up;
type = BottomGhost;
},
{
horizontal = 1;
place = (279, -20);
target = down;
type = TopGhost;
},
{
horizontal = 1;
place = (734, -20);
target = down;
type = TopGhost;
},
{
place = (132, 50);
place = (132, 50);
type = Stem;
}
);
layerId = m01;
shapes = (
{
closed = 1;
nodes = (
(53,-165,l),
(132,-154,o),
(182,-113,o),
(182,2,cs),
(182,119,ls),
(182,267,o),
(220,262,o),
(261,277,c),
(261,281,l),
(220,296,o),
(182,292,o),
(182,450,cs),
(182,567,ls),
(182,682,o),
(132,723,o),
(53,734,c),
(52,730,l),
(93,715,o),
(132,671,o),
(132,567,cs),
(132,423,ls),
(132,313,o),
(205,279,o),
(224,279,c),
(205,279,o),
(132,255,o),
(132,146,cs),
(132,2,ls),
(132,-102,o),
(93,-147,o),
(52,-161,c)
);
}
);
width = 314;
}
);
note = braceright;
unicode = 125;
},
{
glyphname = asciitilde;
layers = (
{
hints = (
{
horizontal = 1;
place = (273, 42);
place = (273, 42);
type = Stem;
},
{
place = (63, 436);
place = (63, 436);
type = Stem;
},
{
horizontal = 1;
place = (214, 44);
place = (214, 44);
type = Stem;
}
);
layerId = m01;
shapes = (
{
closed = 1;
nodes = (
(323,222,l),
(323,222,o),
(449,175,o),
(499,307,c),
(495,308,l),
(472,253,o),
(379,252,o),
(348,265,cs),
(238,308,l),
(238,308,o),
(112,353,o),
(63,223,c),
(66,222,l),
(94,283,o),
(182,277,o),
(214,265,cs)
);
}
);
width = 564;
}
);
note = asciitilde;
unicode = 126;
},
{
glyphname = exclamdown;
layers = (
{
hints = (
{
horizontal = 1;
place = (-175, 21);
target = up;
type = BottomGhost;
},
{
horizontal = 1;
place = (407, -20);
target = down;
type = TopGhost;
},
{
horizontal = 1;
place = (485, 84);
place = (485, 84);
type = Stem;
},
{
place = (103, 43);
place = (103, 43);
type = Stem;
},
{
place = (83, 85);
place = (83, 85);
type = Stem;
}
);
layerId = m01;
shapes = (
{
closed = 1;
nodes = (
(109,407,l),
(97,-175,l),
(152,-175,l),
(140,407,l)
);
},
{
closed = 1;
nodes = (
(83,503,o),
(102,485,o),
(125,485,cs),
(149,485,o),
(168,503,o),
(168,527,cs),
(168,550,o),
(149,569,o),
(125,569,cs),
(102,569,o),
(83,550,o),
(83,527,cs)
);
}
);
width = 250;
}
);
note = exclamdown;
unicode = 161;
},
{
glyphname = cent;
layers = (
{
hints = (
{
horizontal = 1;
place = (-118, 21);
target = up;
type = BottomGhost;
},
{
horizontal = 1;
place = (-9, 22);
place = (-9, 22);
type = Stem;
},
{
horizontal = 1;
place = (462, -20);
target = down;
type = TopGhost;
},
{
horizontal = 1;
place = (593, -20);
target = down;
type = TopGhost;
},
{
place = (74, 60);
place = (74, 60);
type = Stem;
},
{
place = (280, 20);
place = (280, 20);
type = Stem;
},
{
horizontal = 1;
place = (471, -20);
target = down;
type = TopGhost;
},
{
place = (280, 163);
place = (280, 163);
type = Stem;
}
);
layerId = m01;
shapes = (
{
closed = 1;
nodes = (
(280,14,l),
(211,24,o),
(134,86,o),
(134,232,cs),
(134,407,o),
(227,454,o),
(280,462,c)
);
},
{
closed = 1;
nodes = (
(453,127,l),
(440,79,o),
(395,13,o),
(300,13,c),
(300,462,l),
(393,462,o),
(428,421,o),
(418,424,cs),
(413,426,o),
(403,426,o),
(393,422,cs),
(376,414,o),
(370,394,o),
(379,376,cs),
(386,360,o),
(409,356,o),
(425,363,cs),
(437,370,o),
(443,381,o),
(443,394,cs),
(443,411,o),
(425,471,o),
(300,471,c),
(300,593,l),
(280,593,l),
(280,471,l),
(156,460,o),
(74,351,o),
(74,228,cs),
(74,56,o),
(189,-5,o),
(280,-9,c),
(280,-118,l),
(300,-118,l),
(300,-9,l),
(412,-4,o),
(452,78,o),
(460,126,c)
);
}
);
width = 527;
}
);
note = cent;
unicode = 162;
},
{
glyphname = sterling;
layers = (
{
hints = (
{
horizontal = 1;
place = (0, 21);
target = up;
type = BottomGhost;
},
{
horizontal = 1;
place = (119, -20);
target = down;
type = TopGhost;
},
{
horizontal = 1;
place = (363, -20);
target = down;
type = TopGhost;
},
{
horizontal = 1;
place = (-9, 21);
target = up;
type = BottomGhost;
},
{
horizontal = 1;
place = (373, -20);
target = down;
type = TopGhost;
}
);
layerId = m01;
shapes = (
{
closed = 1;
nodes = (
(125,0,o),
(60,0,o),
(43,66,cs),
(31,110,o),
(99,194,o),
(204,150,cs),
(233,138,o),
(267,118,o),
(300,92,c),
(270,30,o),
(206,0,o),
(138,0,cs)
);
},
{
closed = 1;
nodes = (
(57,-4,o),
(129,-9,o),
(139,-9,cs),
(206,-9,o),
(271,6,o),
(317,81,c),
(380,31,o),
(420,-9,o),
(461,-9,cs),
(501,-9,o),
(575,17,o),
(574,119,c),
(563,119,l),
(563,50,o),
(495,33,o),
(450,52,c),
(450,52,o),
(405,73,o),
(338,118,c),
(355,162,o),
(369,237,o),
(324,310,cs),
(288,363,l),
(456,363,l),
(456,373,l),
(281,373,l),
(106,653,o),
(248,775,o),
(396,720,cs),
(439,704,o),
(448,670,o),
(438,672,cs),
(428,674,o),
(418,672,o),
(409,665,cs),
(390,652,o),
(386,626,o),
(400,608,cs),
(413,590,o),
(439,585,o),
(456,599,cs),
(469,608,o),
(475,625,o),
(473,638,cs),
(469,655,o),
(456,704,o),
(401,728,cs),
(258,793,o),
(48,665,o),
(212,373,c),
(119,373,l),
(119,363,l),
(218,363,l),
(241,330,o),
(255,307,o),
(271,282,cs),
(312,218,o),
(321,183,o),
(312,134,c),
(286,154,o),
(246,173,o),
(246,173,c),
(81,242,o),
(20,112,o),
(35,66,cs)
);
}
);
width = 622;
}
);
note = sterling;
unicode = 163;
},
{
glyphname = currency;
layers = (
{
hints = (
{
horizontal = 1;
place = (125, 35);
place = (125, 35);
type = Stem;
},
{
horizontal = 1;
place = (575, -20);
target = down;
type = TopGhost;
},
{
place = (432, 35);
place = (432, 35);
type = Stem;
},
{
horizontal = 1;
place = (529, 35);
place = (529, 35);
type = Stem;
},
{
horizontal = 1;
place = (115, 21);
target = up;
type = BottomGhost;
}
);
layerId = m01;
shapes = (
{
closed = 1;
nodes = (
(467,397,o),
(449,447,o),
(415,487,c),
(478,550,l),
(454,575,l),
(390,512,l),
(351,546,o),
(301,564,o),
(248,564,cs),
(195,564,o),
(146,546,o),
(106,512,c),
(43,575,l),
(18,550,l),
(81,487,l),
(47,447,o),
(29,397,o),
(29,345,cs),
(29,292,o),
(47,242,o),
(81,203,c),
(18,139,l),
(43,115,l),
(106,178,l),
(146,144,o),
(195,125,o),
(248,125,cs),
(301,125,o),
(351,144,o),
(390,178,c),
(454,115,l),
(478,139,l),
(415,203,l),
(449,242,o),
(467,292,o),
(467,345,cs)
);
},
{
closed = 1;
nodes = (
(46,286,o),
(46,403,o),
(118,475,cs),
(153,510,o),
(199,529,o),
(248,529,cs),
(297,529,o),
(344,510,o),
(378,475,cs),
(413,440,o),
(432,394,o),
(432,345,cs),
(432,296,o),
(413,249,o),
(378,214,cs),
(344,180,o),
(297,160,o),
(248,160,cs),
(199,160,o),
(153,180,o),
(118,214,cs)
);
}
);
width = 499;
}
);
note = currency;
unicode = 164;
},
{
glyphname = yen;
layers = (
{
hints = (
{
horizontal = 1;
place = (221, 91);
place = (221, 91);
type = Stem;
},
{
horizontal = 1;
place = (704, -20);
target = down;
type = TopGhost;
},
{
place = (257, 43);
place = (257, 43);
type = Stem;
},
{
horizontal = 1;
place = (0, 234);
place = (0, 234);
type = Stem;
},
{
horizontal = 1;
place = (299, -20);
target = down;
type = TopGhost;
}
);
layerId = m01;
shapes = (
{
closed = 1;
nodes = (
(347,704,l),
(347,696,l),
(474,696,o),
(448,626,o),
(380,488,cs),
(296,319,l),
(144,583,ls),
(76,698,o),
(133,697,o),
(167,697,c),
(167,704,l),
(-27,704,l),
(-27,697,l),
(14,693,o),
(30,696,o),
(75,618,c),
(75,618,o),
(109,562,o),
(250,312,c),
(58,312,l),
(58,299,l),
(257,299,l),
(257,299,l),
(257,234,l),
(58,234,l),
(58,221,l),
(257,221,l),
(257,103,ls),
(257,9,o),
(234,9,o),
(192,9,c),
(192,0,l),
(365,0,l),
(365,9,l),
(323,9,o),
(300,9,o),
(300,103,cs),
(300,221,l),
(478,221,l),
(478,234,l),
(300,234,l),
(300,299,l),
(478,299,l),
(478,312,l),
(303,312,l),
(386,478,ls),
(496,698,o),
(502,696,o),
(562,696,c),
(562,704,l)
);
}
);
width = 538;
}
);
note = yen;
unicode = 165;
},
{
glyphname = brokenbar;
layers = (
{
hints = (
{
horizontal = 1;
place = (-191, 21);
target = up;
type = BottomGhost;
},
{
horizontal = 1;
place = (186, -20);
target = down;
type = TopGhost;
},
{
horizontal = 1;
place = (360, -20);
target = down;
type = TopGhost;
},
{
horizontal = 1;
place = (735, -20);
target = down;
type = TopGhost;
},
{
place = (71, 38);
place = (71, 38);
type = Stem;
}
);
layerId = m01;
shapes = (
{
closed = 1;
nodes = (
(109,735,l),
(71,735,l),
(71,360,l),
(109,360,l)
);
},
{
closed = 1;
nodes = (
(109,186,l),
(71,186,l),
(71,-191,l),
(109,-191,l)
);
}
);
width = 169;
}
);
note = brokenbar;
unicode = 166;
},
{
glyphname = section;
layers = (
{
hints = (
{
horizontal = 1;
place = (-255, 10);
place = (-255, 10);
type = Stem;
},
{
horizontal = 1;
place = (710, 10);
place = (710, 10);
type = Stem;
},
{
place = (57, 33);
place = (57, 33);
type = Stem;
},
{
place = (422, 33);
place = (422, 33);
type = Stem;
},
{
horizontal = 1;
place = (588, 76);
place = (588, 76);
type = Stem;
},
{
place = (101, 32);
place = (101, 32);
type = Stem;
},
{
place = (321, 75);
place = (321, 75);
type = Stem;
},
{
place = (378, 33);
place = (378, 33);
type = Stem;
},
{
horizontal = 1;
place = (-200, 77);
place = (-200, 77);
type = Stem;
},
{
place = (115, 76);
place = (115, 76);
type = Stem;
}
);
layerId = m01;
shapes = (
{
closed = 1;
nodes = (
(509,145,o),
(473,281,o),
(357,365,cs),
(227,457,l),
(145,523,o),
(124,553,o),
(133,616,cs),
(144,694,o),
(214,718,o),
(292,710,cs),
(336,705,o),
(377,661,o),
(362,664,cs),
(353,666,o),
(343,662,o),
(335,656,cs),
(319,643,o),
(316,620,o),
(328,603,cs),
(342,586,o),
(367,583,o),
(383,596,cs),
(394,605,o),
(399,621,o),
(396,633,cs),
(387,675,o),
(331,718,o),
(279,720,cs),
(229,722,o),
(116,714,o),
(101,593,cs),
(90,511,o),
(123,478,o),
(178,431,c),
(3,320,o),
(39,184,o),
(155,99,cs),
(285,7,ls),
(367,-54,o),
(388,-87,o),
(378,-152,cs),
(368,-228,o),
(284,-253,o),
(224,-245,cs),
(181,-239,o),
(134,-196,o),
(149,-200,cs),
(159,-202,o),
(168,-198,o),
(177,-191,cs),
(194,-179,o),
(196,-154,o),
(183,-137,cs),
(169,-121,o),
(145,-118,o),
(129,-131,cs),
(118,-140,o),
(112,-156,o),
(115,-169,cs),
(125,-209,o),
(180,-253,o),
(229,-255,cs),
(279,-258,o),
(395,-250,o),
(411,-129,cs),
(422,-46,o),
(389,-12,o),
(334,34,c)
);
},
{
closed = 1;
nodes = (
(87,212,o),
(36,330,o),
(185,425,c),
(185,425,o),
(286,355,o),
(339,315,cs),
(426,253,o),
(476,134,o),
(327,40,c),
(327,40,o),
(225,113,o),
(173,150,cs)
);
}
);
width = 515;
}
);
note = section;
unicode = 167;
},
{
glyphname = dieresis;
layers = (
{
hints = (
{
horizontal = 1;
place = (612, 68);
place = (612, 68);
type = Stem;
},
{
place = (-4, 67);
place = (-4, 67);
type = Stem;
},
{
place = (127, 67);
place = (127, 67);
type = Stem;
}
);
layerId = m01;
shapes = (
{
closed = 1;
nodes = (
(63,665,o),
(47,680,o),
(29,680,cs),
(10,680,o),
(-4,665,o),
(-4,645,cs),
(-4,627,o),
(10,612,o),
(29,612,cs),
(47,612,o),
(63,627,o),
(63,645,cs)
);
},
{
closed = 1;
nodes = (
(194,665,o),
(178,680,o),
(160,680,cs),
(141,680,o),
(127,665,o),
(127,645,cs),
(127,627,o),
(141,612,o),
(160,612,cs),
(178,612,o),
(194,627,o),
(194,645,cs)
);
}
);
width = 190;
}
);
note = dieresis;
unicode = 168;
},
{
glyphname = copyright;
layers = (
{
hints = (
{
horizontal = 1;
place = (12, 24);
place = (12, 24);
type = Stem;
},
{
horizontal = 1;
place = (156, -20);
target = down;
type = TopGhost;
},
{
horizontal = 1;
place = (277, -20);
target = down;
type = TopGhost;
},
{
horizontal = 1;
place = (703, 23);
place = (703, 23);
type = Stem;
},
{
place = (30, 25);
place = (30, 25);
type = Stem;
},
{
place = (202, 44);
place = (202, 44);
type = Stem;
},
{
place = (722, 26);
place = (722, 26);
type = Stem;
},
{
horizontal = 1;
place = (12, 153);
place = (12, 153);
type = Stem;
},
{
horizontal = 1;
place = (553, 173);
place = (553, 173);
type = Stem;
},
{
place = (513, 235);
place = (513, 235);
type = Stem;
}
);
layerId = m01;
shapes = (
{
closed = 1;
nodes = (
(189,726,o),
(30,567,o),
(30,369,cs),
(30,171,o),
(189,12,o),
(389,12,cs),
(587,12,o),
(748,171,o),
(748,369,cs),
(748,567,o),
(587,726,o),
(389,726,cs)
);
},
{
closed = 1;
nodes = (
(205,36,o),
(55,185,o),
(55,369,cs),
(55,553,o),
(205,703,o),
(389,703,cs),
(571,703,o),
(722,553,o),
(722,369,cs),
(722,185,o),
(571,36,o),
(389,36,cs)
);
},
{
closed = 1;
nodes = (
(513,277,l),
(513,166,o),
(421,165,o),
(398,165,cs),
(351,165,o),
(246,169,o),
(246,360,cs),
(246,545,o),
(343,553,o),
(398,553,cs),
(424,553,o),
(513,552,o),
(513,442,c),
(518,442,l),
(523,528,l),
(488,557,o),
(456,562,o),
(398,562,cs),
(284,562,o),
(202,500,o),
(202,360,cs),
(202,221,o),
(284,156,o),
(398,156,cs),
(458,156,o),
(481,163,o),
(523,191,c),
(518,277,l)
);
}
);
width = 778;
}
);
note = copyright;
unicode = 169;
},
{
glyphname = ordfeminine;
layers = (
{
hints = (
{
horizontal = 1;
place = (469, -20);
target = down;
type = TopGhost;
},
{
horizontal = 1;
place = (705, -20);
target = down;
type = TopGhost;
},
{
place = (19, 26);
place = (19, 26);
type = Stem;
},
{
place = (151, 28);
place = (151, 28);
type = Stem;
},
{
horizontal = 1;
place = (471, -20);
target = down;
type = TopGhost;
},
{
horizontal = 1;
place = (454, 21);
target = up;
type = BottomGhost;
}
);
layerId = m01;
shapes = (
{
closed = 1;
nodes = (
(151,509,l),
(145,497,o),
(131,469,o),
(94,469,cs),
(64,469,o),
(45,486,o),
(45,517,cs),
(45,553,o),
(85,569,o),
(151,588,c)
);
},
{
closed = 1;
nodes = (
(179,471,o),
(179,500,o),
(179,500,c),
(179,600,ls),
(179,663,o),
(167,705,o),
(122,705,c),
(122,705,o),
(93,705,o),
(74,695,cs),
(47,680,o),
(37,663,o),
(35,657,cs),
(32,650,o),
(34,642,o),
(38,637,cs),
(45,628,o),
(59,629,o),
(65,635,cs),
(73,643,o),
(73,653,o),
(67,661,cs),
(63,665,o),
(59,668,o),
(54,668,cs),
(51,668,o),
(57,679,o),
(81,690,cs),
(128,710,o),
(151,679,o),
(151,625,cs),
(151,597,l),
(63,574,o),
(19,556,o),
(19,508,cs),
(19,453,o),
(78,454,o),
(78,454,c),
(114,454,o),
(141,466,o),
(151,492,c),
(151,454,o),
(187,454,o),
(187,454,c),
(209,454,o),
(225,469,o),
(226,486,c),
(218,489,l),
(215,471,o),
(201,471,o),
(201,471,c)
);
}
);
width = 269;
}
);
note = ordfeminine;
unicode = 170;
},
{
glyphname = guillemotleft;
layers = (
{
hints = (
{
horizontal = 1;
place = (33, 21);
target = up;
type = BottomGhost;
},
{
horizontal = 1;
place = (505, -20);
target = down;
type = TopGhost;
}
);
layerId = m01;
shapes = (
{
closed = 1;
nodes = (
(318,505,l),
(87,266,l),
(318,33,l),
(318,46,l),
(143,266,l),
(318,492,l)
);
},
{
closed = 1;
nodes = (
(522,505,l),
(291,266,l),
(522,33,l),
(522,46,l),
(348,266,l),
(522,492,l)
);
}
);
width = 610;
}
);
note = guillemotleft;
unicode = 171;
},
{
glyphname = logicalnot;
layers = (
{
hints = (
{
horizontal = 1;
place = (79, 21);
target = up;
type = BottomGhost;
},
{
horizontal = 1;
place = (337, 38);
place = (337, 38);
type = Stem;
},
{
place = (544, 41);
place = (544, 41);
type = Stem;
}
);
layerId = m01;
shapes = (
{
closed = 1;
nodes = (
(41,375,l),
(41,337,l),
(544,337,l),
(544,79,l),
(585,79,l),
(585,375,l)
);
}
);
width = 629;
}
);
note = logicalnot;
unicode = 172;
},
{
glyphname = uni00AD;
layers = (
{
hints = (
{
horizontal = 1;
place = (233, 43);
place = (233, 43);
type = Stem;
}
);
layerId = m01;
shapes = (
{
closed = 1;
nodes = (
(379,233,l),
(379,276,l),
(64,276,l),
(64,233,l)
);
}
);
width = 444;
}
);
note = uni00AD;
unicode = 173;
},
{
glyphname = registered;
layers = (
{
hints = (
{
horizontal = 1;
place = (12, 24);
place = (12, 24);
type = Stem;
},
{
horizontal = 1;
place = (344, -20);
target = down;
type = TopGhost;
},
{
horizontal = 1;
place = (347, 213);
place = (347, 213);
type = Stem;
},
{
horizontal = 1;
place = (703, 23);
place = (703, 23);
type = Stem;
},
{
place = (30, 25);
place = (30, 25);
type = Stem;
},
{
place = (300, 28);
place = (300, 28);
type = Stem;
},
{
place = (470, 32);
place = (470, 32);
type = Stem;
},
{
place = (722, 26);
place = (722, 26);
type = Stem;
},
{
horizontal = 1;
place = (12, 162);
place = (12, 162);
type = Stem;
},
{
horizontal = 1;
place = (551, 175);
place = (551, 175);
type = Stem;
},
{
horizontal = 1;
place = (165, 188);
place = (165, 188);
type = Stem;
}
);
layerId = m01;
shapes = (
{
closed = 1;
nodes = (
(189,726,o),
(30,567,o),
(30,369,cs),
(30,171,o),
(189,12,o),
(389,12,cs),
(587,12,o),
(748,171,o),
(748,369,cs),
(748,567,o),
(587,726,o),
(389,726,cs)
);
},
{
closed = 1;
nodes = (
(205,36,o),
(55,185,o),
(55,369,cs),
(55,553,o),
(205,703,o),
(389,703,cs),
(571,703,o),
(722,553,o),
(722,369,cs),
(722,185,o),
(571,36,o),
(389,36,cs)
);
},
{
closed = 1;
nodes = (
(488,347,o),
(436,344,o),
(413,347,c),
(455,347,o),
(502,369,o),
(502,453,cs),
(502,546,o),
(457,560,o),
(345,560,cs),
(271,560,l),
(271,551,l),
(295,551,o),
(300,550,o),
(300,515,cs),
(300,232,ls),
(300,176,o),
(295,174,o),
(271,174,c),
(271,165,l),
(359,165,l),
(359,174,l),
(335,174,o),
(328,178,o),
(328,218,cs),
(328,344,l),
(354,344,l),
(354,344,o),
(446,344,o),
(458,288,cs),
(484,166,o),
(475,165,o),
(519,165,cs),
(558,165,l),
(558,174,l),
(544,174,o),
(508,174,o),
(503,215,cs)
);
},
{
closed = 1;
nodes = (
(328,353,l),
(328,551,l),
(345,551,ls),
(411,551,o),
(470,551,o),
(470,453,cs),
(470,351,o),
(418,353,o),
(345,353,cs)
);
}
);
width = 783;
}
);
note = registered;
unicode = 174;
},
{
glyphname = macron;
layers = (
{
hints = (
{
horizontal = 1;
place = (603, 33);
place = (603, 33);
type = Stem;
}
);
layerId = m01;
shapes = (
{
closed = 1;
nodes = (
(377,603,l),
(377,636,l),
(-16,636,l),
(-16,603,l)
);
}
);
width = 360;
}
);
note = macron;
unicode = 175;
},
{
glyphname = degree;
layers = (
{
hints = (
{
horizontal = 1;
place = (478, 24);
place = (478, 24);
type = Stem;
},
{
horizontal = 1;
place = (713, 24);
place = (713, 24);
type = Stem;
},
{
place = (58, 23);
place = (58, 23);
type = Stem;
},
{
place = (293, 24);
place = (293, 24);
type = Stem;
}
);
layerId = m01;
shapes = (
{
closed = 1;
nodes = (
(258,478,o),
(317,536,o),
(317,607,cs),
(317,679,o),
(258,737,o),
(188,737,cs),
(116,737,o),
(58,679,o),
(58,607,cs),
(58,536,o),
(116,478,o),
(188,478,cs)
);
},
{
closed = 1;
nodes = (
(246,713,o),
(293,665,o),
(293,607,cs),
(293,549,o),
(246,502,o),
(188,502,cs),
(129,502,o),
(81,549,o),
(81,607,cs),
(81,665,o),
(129,713,o),
(188,713,cs)
);
}
);
width = 382;
}
);
note = degree;
unicode = 176;
},
{
glyphname = plusminus;
layers = (
{
hints = (
{
horizontal = 1;
place = (0, 42);
place = (0, 42);
type = Stem;
},
{
horizontal = 1;
place = (140, -20);
target = down;
type = TopGhost;
},
{
horizontal = 1;
place = (315, 42);
place = (315, 42);
type = Stem;
},
{
horizontal = 1;
place = (535, -20);
target = down;
type = TopGhost;
},
{
place = (279, 43);
place = (279, 43);
type = Stem;
}
);
layerId = m01;
shapes = (
{
closed = 1;
nodes = (
(322,357,l),
(322,535,l),
(279,535,l),
(279,357,l),
(41,357,l),
(41,315,l),
(279,315,l),
(279,140,l),
(322,140,l),
(322,315,l),
(560,315,l),
(560,357,l)
);
},
{
closed = 1;
nodes = (
(41,0,l),
(560,0,l),
(560,42,l),
(41,42,l)
);
}
);
width = 608;
}
);
note = plusminus;
unicode = 177;
},
{
glyphname = twosuperior;
layers = (
{
hints = (
{
horizontal = 1;
place = (379, 22);
place = (379, 22);
type = Stem;
},
{
horizontal = 1;
place = (704, -20);
target = down;
type = TopGhost;
},
{
place = (32, 160);
place = (32, 160);
type = Stem;
}
);
layerId = m01;
shapes = (
{
closed = 1;
nodes = (
(196,426,l),
(186,409,o),
(173,401,o),
(158,401,cs),
(57,401,l),
(57,401,o),
(117,494,o),
(138,525,cs),
(173,574,o),
(192,599,o),
(192,628,cs),
(192,670,o),
(159,704,o),
(113,704,c),
(113,704,o),
(31,709,o),
(32,619,c),
(43,619,l),
(45,730,o),
(246,696,o),
(129,531,c),
(31,379,l),
(192,379,l),
(205,426,l)
);
}
);
width = 248;
}
);
note = twosuperior;
unicode = 178;
},
{
glyphname = threesuperior;
layers = (
{
hints = (
{
horizontal = 1;
place = (375, 171);
place = (375, 171);
type = Stem;
},
{
place = (189, 28);
place = (189, 28);
type = Stem;
},
{
horizontal = 1;
place = (383, -20);
target = down;
type = TopGhost;
},
{
horizontal = 1;
place = (539, 165);
place = (539, 165);
type = Stem;
},
{
horizontal = 1;
place = (395, -20);
target = down;
type = TopGhost;
}
);
layerId = m01;
shapes = (
{
closed = 1;
nodes = (
(217,502,o),
(192,539,o),
(139,546,c),
(234,568,o),
(209,704,o),
(125,704,cs),
(116,704,o),
(36,704,o),
(36,630,c),
(46,630,l),
(46,677,o),
(110,706,o),
(148,673,cs),
(201,627,o),
(164,546,o),
(101,546,c),
(101,539,l),
(164,539,o),
(187,501,o),
(189,463,cs),
(194,395,o),
(161,383,o),
(114,383,cs),
(77,383,o),
(60,395,o),
(63,395,cs),
(64,395,o),
(67,396,o),
(70,400,cs),
(75,407,o),
(74,417,o),
(67,423,cs),
(60,428,o),
(51,427,o),
(44,420,cs),
(41,417,o),
(39,408,o),
(42,402,cs),
(49,392,o),
(74,375,o),
(114,375,cs),
(154,375,o),
(217,386,o),
(217,464,cs)
);
}
);
width = 256;
}
);
note = threesuperior;
unicode = 179;
},
{
glyphname = acute;
layers = (
{
hints = (
{
horizontal = 1;
place = (558, 21);
target = up;
type = BottomGhost;
},
{
horizontal = 1;
place = (718, -20);
target = down;
type = TopGhost;
}
);
layerId = m01;
shapes = (
{
closed = 1;
nodes = (
(82,558,l),
(89,558,l),
(315,704,l),
(256,718,l)
);
}
);
width = 339;
}
);
note = acute;
unicode = 180;
},
{
glyphname = mu;
layers = (
{
hints = (
{
horizontal = 1;
place = (471, -20);
target = down;
type = TopGhost;
},
{
place = (72, 48);
place = (72, 48);
type = Stem;
},
{
place = (362, 50);
place = (362, 50);
type = Stem;
}
);
layerId = m01;
shapes = (
{
closed = 1;
nodes = (
(421,18,o),
(412,27,o),
(412,75,cs),
(412,471,l),
(315,453,l),
(315,445,l),
(362,445,o),
(362,444,o),
(362,383,cs),
(362,106,l),
(348,62,o),
(313,17,o),
(242,17,cs),
(187,17,o),
(126,45,o),
(120,129,c),
(120,471,l),
(16,453,l),
(16,445,l),
(72,445,o),
(72,445,o),
(72,376,cs),
(72,-253,l),
(72,-253,o),
(70,-269,o),
(92,-264,cs),
(171,-251,l),
(171,-243,l),
(129,-238,o),
(120,-229,o),
(120,-181,cs),
(120,22,l),
(230,-47,o),
(348,13,o),
(362,85,c),
(362,3,l),
(362,3,o),
(361,-13,o),
(383,-8,cs),
(463,5,l),
(463,13,l)
);
}
);
width = 483;
}
);
note = mu;
unicode = 181;
},
{
glyphname = paragraph;
layers = (
{
hints = (
{
horizontal = 1;
place = (-265, 21);
target = up;
type = BottomGhost;
},
{
horizontal = 1;
place = (300, -20);
target = down;
type = TopGhost;
},
{
horizontal = 1;
place = (704, -20);
target = down;
type = TopGhost;
},
{
place = (287, 46);
place = (287, 46);
type = Stem;
},
{
place = (384, 48);
place = (384, 48);
type = Stem;
}
);
layerId = m01;
shapes = (
{
closed = 1;
nodes = (
(514,704,l),
(384,704,l),
(384,-265,l),
(507,-265,l),
(507,-256,l),
(459,-256,o),
(432,-229,o),
(432,-151,cs),
(432,602,ls),
(432,672,o),
(464,694,o),
(514,694,c)
);
},
{
closed = 1;
nodes = (
(288,704,l),
(287,704,ls),
(167,703,o),
(37,665,o),
(37,500,cs),
(37,334,o),
(151,300,o),
(287,300,c),
(287,-188,ls),
(287,-238,o),
(240,-256,o),
(192,-256,c),
(192,-265,l),
(333,-265,l),
(333,704,l)
);
}
);
width = 584;
}
);
note = paragraph;
unicode = 182;
},
{
glyphname = periodcentered;
layers = (
{
hints = (
{
horizontal = 1;
place = (266, 67);
place = (266, 67);
type = Stem;
},
{
place = (78, 68);
place = (78, 68);
type = Stem;
}
);
layerId = m01;
shapes = (
{
closed = 1;
nodes = (
(146,318,o),
(130,333,o),
(112,333,cs),
(93,333,o),
(78,318,o),
(78,299,cs),
(78,281,o),
(93,266,o),
(112,266,cs),
(130,266,o),
(146,281,o),
(146,299,cs)
);
}
);
width = 214;
}
);
note = periodcentered;
unicode = 183;
},
{
glyphname = cedilla;
layers = (
{
hints = (
{
horizontal = 1;
place = (-226, 21);
target = up;
type = BottomGhost;
},
{
horizontal = 1;
place = (-4, -20);
target = down;
type = TopGhost;
}
);
layerId = m01;
shapes = (
{
closed = 1;
nodes = (
(102,-4,l),
(73,-89,l),
(166,-65,o),
(186,-124,o),
(186,-158,cs),
(186,-203,o),
(154,-223,o),
(117,-223,cs),
(87,-224,o),
(73,-211,o),
(76,-211,cs),
(80,-211,o),
(84,-209,o),
(88,-204,cs),
(93,-196,o),
(91,-185,o),
(82,-180,cs),
(74,-174,o),
(63,-176,o),
(58,-184,cs),
(54,-190,o),
(54,-198,o),
(57,-203,cs),
(60,-208,o),
(74,-227,o),
(117,-226,cs),
(151,-226,o),
(207,-220,o),
(217,-148,cs),
(223,-97,o),
(182,-49,o),
(88,-70,c),
(112,-4,l)
);
}
);
width = 258;
}
);
note = cedilla;
unicode = 184;
},
{
glyphname = onesuperior;
layers = (
{
hints = (
{
horizontal = 1;
place = (389, -20);
target = down;
type = TopGhost;
},
{
horizontal = 1;
place = (705, -20);
target = down;
type = TopGhost;
},
{
place = (79, 23);
place = (79, 23);
type = Stem;
},
{
horizontal = 1;
place = (380, 21);
target = up;
type = BottomGhost;
}
);
layerId = m01;
shapes = (
{
closed = 1;
nodes = (
(102,705,l),
(87,705,l),
(35,657,l),
(40,650,l),
(70,672,o),
(79,673,o),
(79,648,cs),
(79,424,ls),
(79,391,o),
(66,389,o),
(47,389,c),
(47,380,l),
(134,380,l),
(134,389,l),
(118,389,o),
(102,389,o),
(102,424,cs)
);
}
);
width = 188;
}
);
note = onesuperior;
unicode = 185;
},
{
glyphname = ordmasculine;
layers = (
{
hints = (
{
horizontal = 1;
place = (373, 21);
target = up;
type = BottomGhost;
},
{
horizontal = 1;
place = (707, -20);
target = down;
type = TopGhost;
},
{
place = (34, 29);
place = (34, 29);
type = Stem;
},
{
place = (255, 29);
place = (255, 29);
type = Stem;
},
{
horizontal = 1;
place = (382, -20);
target = down;
type = TopGhost;
}
);
layerId = m01;
shapes = (
{
closed = 1;
nodes = (
(53,707,o),
(34,607,o),
(34,536,cs),
(34,468,o),
(53,373,o),
(159,373,cs),
(264,373,o),
(284,468,o),
(284,536,cs),
(284,607,o),
(264,707,o),
(159,707,cs)
);
},
{
closed = 1;
nodes = (
(117,382,o),
(63,405,o),
(63,536,cs),
(63,670,o),
(116,698,o),
(159,698,cs),
(201,698,o),
(255,670,o),
(255,536,cs),
(255,405,o),
(203,382,o),
(159,382,cs)
);
}
);
width = 322;
}
);
note = ordmasculine;
unicode = 186;
},
{
glyphname = guillemotright;
layers = (
{
hints = (
{
horizontal = 1;
place = (33, 21);
target = up;
type = BottomGhost;
},
{
horizontal = 1;
place = (505, -20);
target = down;
type = TopGhost;
}
);
layerId = m01;
shapes = (
{
closed = 1;
nodes = (
(288,492,l),
(463,266,l),
(288,46,l),
(288,33,l),
(519,266,l),
(288,505,l)
);
},
{
closed = 1;
nodes = (
(84,492,l),
(258,266,l),
(84,46,l),
(84,33,l),
(315,266,l),
(84,505,l)
);
}
);
width = 606;
}
);
note = guillemotright;
unicode = 187;
},
{
glyphname = onequarter;
layers = (
{
hints = (
{
horizontal = 1;
place = (0, 128);
place = (0, 128);
type = Stem;
},
{
horizontal = 1;
place = (384, -20);
target = down;
type = TopGhost;
},
{
horizontal = 1;
place = (710, -20);
target = down;
type = TopGhost;
},
{
horizontal = 1;
place = (746, -20);
target = down;
type = TopGhost;
},
{
place = (160, 26);
place = (160, 26);
type = Stem;
},
{
place = (456, 28);
place = (456, 28);
type = Stem;
},
{
horizontal = 1;
place = (375, -20);
target = down;
type = TopGhost;
},
{
horizontal = 1;
place = (110, -20);
target = down;
type = TopGhost;
},
{
horizontal = 1;
place = (366, -20);
target = down;
type = TopGhost;
}
);
layerId = m01;
shapes = (
{
closed = 1;
nodes = (
(575,710,l),
(18,37,l),
(52,37,l),
(610,710,l)
);
},
{
closed = 1;
nodes = (
(186,746,l),
(169,746,l),
(110,691,l),
(115,684,l),
(149,710,o),
(160,713,o),
(160,684,cs),
(160,424,ls),
(160,386,o),
(145,384,o),
(124,384,c),
(124,375,l),
(223,375,l),
(223,384,l),
(205,384,o),
(186,384,o),
(186,424,cs)
);
},
{
closed = 1;
nodes = (
(530,110,l),
(530,128,l),
(484,128,l),
(484,366,l),
(469,366,l),
(299,116,l),
(299,110,l),
(456,110,l),
(456,52,ls),
(456,11,o),
(444,9,o),
(423,9,c),
(423,0,l),
(518,0,l),
(518,9,l),
(496,9,o),
(484,10,o),
(484,54,cs),
(484,110,l)
);
},
{
closed = 1;
nodes = (
(456,128,l),
(339,128,ls),
(321,128,o),
(321,128,o),
(331,143,cs),
(456,330,l)
);
}
);
width = 625;
}
);
note = onequarter;
unicode = 188;
},
{
glyphname = onehalf;
layers = (
{
hints = (
{
horizontal = 1;
place = (0, 25);
place = (0, 25);
type = Stem;
},
{
horizontal = 1;
place = (373, -20);
target = down;
type = TopGhost;
},
{
horizontal = 1;
place = (710, -20);
target = down;
type = TopGhost;
},
{
horizontal = 1;
place = (746, -20);
target = down;
type = TopGhost;
},
{
place = (160, 26);
place = (160, 26);
type = Stem;
},
{
place = (393, 183);
place = (393, 183);
type = Stem;
},
{
place = (160, 240);
place = (160, 240);
type = Stem;
},
{
horizontal = 1;
place = (384, -20);
target = down;
type = TopGhost;
},
{
horizontal = 1;
place = (375, -20);
target = down;
type = TopGhost;
}
);
layerId = m01;
shapes = (
{
closed = 1;
nodes = (
(575,710,l),
(18,37,l),
(52,37,l),
(610,710,l)
);
},
{
closed = 1;
nodes = (
(587,54,l),
(575,34,o),
(555,25,o),
(537,25,cs),
(420,25,l),
(420,25,o),
(489,132,o),
(513,167,cs),
(554,224,o),
(576,252,o),
(576,286,cs),
(576,334,o),
(539,373,o),
(486,373,c),
(486,373,o),
(392,379,o),
(393,275,c),
(400,274,l),
(402,405,o),
(639,364,o),
(504,174,c),
(392,0,l),
(576,0,l),
(591,54,l)
);
},
{
closed = 1;
nodes = (
(186,746,l),
(169,746,l),
(110,691,l),
(115,684,l),
(149,710,o),
(160,713,o),
(160,684,cs),
(160,424,ls),
(160,386,o),
(145,384,o),
(124,384,c),
(124,375,l),
(223,375,l),
(223,384,l),
(205,384,o),
(186,384,o),
(186,424,cs)
);
}
);
width = 625;
}
);
note = onehalf;
unicode = 189;
},
{
glyphname = threequarters;
layers = (
{
hints = (
{
horizontal = 1;
place = (0, 128);
place = (0, 128);
type = Stem;
},
{
horizontal = 1;
place = (366, -20);
target = down;
type = TopGhost;
},
{
horizontal = 1;
place = (374, 193);
place = (374, 193);
type = Stem;
},
{
horizontal = 1;
place = (710, -20);
target = down;
type = TopGhost;
},
{
place = (229, 32);
place = (229, 32);
type = Stem;
},
{
place = (456, 28);
place = (456, 28);
type = Stem;
},
{
horizontal = 1;
place = (383, -20);
target = down;
type = TopGhost;
},
{
horizontal = 1;
place = (560, 186);
place = (560, 186);
type = Stem;
},
{
horizontal = 1;
place = (397, -20);
target = down;
type = TopGhost;
},
{
horizontal = 1;
place = (110, -20);
target = down;
type = TopGhost;
}
);
layerId = m01;
shapes = (
{
closed = 1;
nodes = (
(575,710,l),
(18,37,l),
(52,37,l),
(610,710,l)
);
},
{
closed = 1;
nodes = (
(261,518,o),
(232,559,o),
(172,567,c),
(280,592,o),
(251,746,o),
(156,746,cs),
(146,746,o),
(56,746,o),
(56,663,c),
(67,663,l),
(67,716,o),
(139,748,o),
(182,711,cs),
(242,659,o),
(201,567,o),
(129,567,c),
(129,560,l),
(201,560,o),
(227,516,o),
(229,474,cs),
(235,397,o),
(197,383,o),
(144,383,cs),
(102,383,o),
(83,397,o),
(86,397,cs),
(88,397,o),
(91,398,o),
(94,402,cs),
(100,410,o),
(99,421,o),
(91,428,cs),
(83,434,o),
(73,433,o),
(65,425,cs),
(61,421,o),
(59,411,o),
(63,405,cs),
(70,393,o),
(99,374,o),
(144,374,cs),
(189,374,o),
(261,387,o),
(261,475,cs)
);
},
{
closed = 1;
nodes = (
(530,110,l),
(530,128,l),
(484,128,l),
(484,366,l),
(469,366,l),
(299,116,l),
(299,110,l),
(456,110,l),
(456,52,ls),
(456,11,o),
(444,9,o),
(423,9,c),
(423,0,l),
(518,0,l),
(518,9,l),
(496,9,o),
(484,10,o),
(484,54,cs),
(484,110,l)
);
},
{
closed = 1;
nodes = (
(456,128,l),
(339,128,ls),
(321,128,o),
(321,128,o),
(331,143,cs),
(456,330,l)
);
}
);
width = 623;
}
);
note = threequarters;
unicode = 190;
},
{
glyphname = questiondown;
layers = (
{
hints = (
{
horizontal = 1;
place = (387, 84);
place = (387, 84);
type = Stem;
},
{
place = (101, 69);
place = (101, 69);
type = Stem;
},
{
place = (276, 85);
place = (276, 85);
type = Stem;
}
);
layerId = m01;
shapes = (
{
closed = 1;
nodes = (
(110,-237,o),
(260,-309,o),
(421,-237,cs),
(467,-217,o),
(491,-175,o),
(494,-161,cs),
(498,-149,o),
(499,-134,o),
(490,-122,cs),
(478,-105,o),
(454,-100,o),
(437,-112,cs),
(420,-124,o),
(416,-148,o),
(428,-165,cs),
(434,-174,o),
(442,-180,o),
(451,-180,cs),
(465,-181,o),
(469,-211,o),
(416,-231,cs),
(329,-265,o),
(185,-263,o),
(170,-73,cs),
(157,69,o),
(238,110,o),
(280,146,cs),
(344,199,o),
(337,262,o),
(331,301,c),
(317,299,l),
(322,239,o),
(309,186,o),
(261,159,cs),
(208,129,o),
(95,68,o),
(101,-77,cs)
);
},
{
closed = 1;
nodes = (
(361,453,o),
(342,471,o),
(319,471,cs),
(295,471,o),
(276,453,o),
(276,429,cs),
(276,406,o),
(295,387,o),
(319,387,cs),
(342,387,o),
(361,406,o),
(361,429,cs)
);
}
);
width = 576;
}
);
note = questiondown;
unicode = 191;
},
{
glyphname = Agrave;
kernLeft = A;
kernRight = A;
layers = (
{
hints = (
{
horizontal = 1;
place = (735, 21);
target = up;
type = BottomGhost;
},
{
horizontal = 1;
place = (895, -20);
target = down;
type = TopGhost;
},
{
horizontal = 1;
place = (0, 239);
place = (0, 239);
type = Stem;
},
{
horizontal = 1;
place = (704, -20);
target = down;
type = TopGhost;
},
{
horizontal = 1;
place = (230, -20);
target = down;
type = TopGhost;
}
);
layerId = m01;
shapes = (
{
closed = 1;
nodes = (
(278,895,l),
(219,881,l),
(445,735,l),
(452,735,l)
);
},
{
closed = 1;
nodes = (
(333,704,l),
(329,704,l),
(167,250,ls),
(92,26,o),
(67,9,o),
(17,9,c),
(17,0,l),
(217,0,l),
(217,9,l),
(97,9,o),
(122,70,o),
(177,230,c),
(458,230,l),
(497,128,ls),
(544,16,o),
(512,9,o),
(482,9,c),
(482,0,l),
(652,0,l),
(652,9,l),
(622,11,o),
(604,19,o),
(572,99,cs)
);
},
{
closed = 1;
nodes = (
(180,239,l),
(313,610,l),
(455,239,l)
);
}
);
width = 666;
}
);
note = Agrave;
unicode = 192;
},
{
glyphname = Aacute;
kernLeft = A;
kernRight = A;
layers = (
{
hints = (
{
horizontal = 1;
place = (735, 21);
target = up;
type = BottomGhost;
},
{
horizontal = 1;
place = (895, -20);
target = down;
type = TopGhost;
},
{
horizontal = 1;
place = (0, 239);
place = (0, 239);
type = Stem;
},
{
horizontal = 1;
place = (704, -20);
target = down;
type = TopGhost;
},
{
horizontal = 1;
place = (230, -20);
target = down;
type = TopGhost;
}
);
layerId = m01;
shapes = (
{
closed = 1;
nodes = (
(218,735,l),
(225,735,l),
(451,881,l),
(392,895,l)
);
},
{
closed = 1;
nodes = (
(333,704,l),
(329,704,l),
(167,250,ls),
(92,26,o),
(67,9,o),
(17,9,c),
(17,0,l),
(217,0,l),
(217,9,l),
(97,9,o),
(122,70,o),
(177,230,c),
(458,230,l),
(497,128,ls),
(544,16,o),
(512,9,o),
(482,9,c),
(482,0,l),
(652,0,l),
(652,9,l),
(622,11,o),
(604,19,o),
(572,99,cs)
);
},
{
closed = 1;
nodes = (
(180,239,l),
(313,610,l),
(455,239,l)
);
}
);
width = 666;
}
);
note = Aacute;
unicode = 193;
},
{
glyphname = Acircumflex;
kernLeft = A;
kernRight = A;
layers = (
{
hints = (
{
horizontal = 1;
place = (735, 20);
place = (735, 20);
type = Stem;
},
{
horizontal = 1;
place = (902, 21);
place = (902, 21);
type = Stem;
},
{
horizontal = 1;
place = (0, 239);
place = (0, 239);
type = Stem;
},
{
horizontal = 1;
place = (704, -20);
target = down;
type = TopGhost;
},
{
horizontal = 1;
place = (230, -20);
target = down;
type = TopGhost;
}
);
layerId = m01;
shapes = (
{
closed = 1;
nodes = (
(451,735,l),
(462,735,l),
(332,923,l),
(202,735,l),
(213,735,l),
(332,862,l)
);
},
{
closed = 1;
nodes = (
(333,704,l),
(329,704,l),
(167,250,ls),
(92,26,o),
(67,9,o),
(17,9,c),
(17,0,l),
(217,0,l),
(217,9,l),
(97,9,o),
(122,70,o),
(177,230,c),
(458,230,l),
(497,128,ls),
(544,16,o),
(512,9,o),
(482,9,c),
(482,0,l),
(652,0,l),
(652,9,l),
(622,11,o),
(604,19,o),
(572,99,cs)
);
},
{
closed = 1;
nodes = (
(180,239,l),
(313,610,l),
(455,239,l)
);
}
);
width = 666;
}
);
note = Acircumflex;
unicode = 194;
},
{
glyphname = Atilde;
kernLeft = A;
kernRight = A;
layers = (
{
hints = (
{
horizontal = 1;
place = (0, 239);
place = (0, 239);
type = Stem;
},
{
horizontal = 1;
place = (704, -20);
target = down;
type = TopGhost;
},
{
horizontal = 1;
place = (230, -20);
target = down;
type = TopGhost;
}
);
layerId = m01;
shapes = (
{
closed = 1;
nodes = (
(375,784,l),
(375,784,o),
(501,737,o),
(551,869,c),
(547,870,l),
(524,815,o),
(431,814,o),
(400,827,cs),
(290,870,l),
(290,870,o),
(164,915,o),
(115,785,c),
(118,784,l),
(146,845,o),
(234,839,o),
(266,827,cs)
);
},
{
closed = 1;
nodes = (
(333,704,l),
(329,704,l),
(167,250,ls),
(92,26,o),
(67,9,o),
(17,9,c),
(17,0,l),
(217,0,l),
(217,9,l),
(97,9,o),
(122,70,o),
(177,230,c),
(458,230,l),
(497,128,ls),
(544,16,o),
(512,9,o),
(482,9,c),
(482,0,l),
(652,0,l),
(652,9,l),
(622,11,o),
(604,19,o),
(572,99,cs)
);
},
{
closed = 1;
nodes = (
(180,239,l),
(313,610,l),
(455,239,l)
);
}
);
width = 666;
}
);
note = Atilde;
unicode = 195;
},
{
glyphname = Adieresis;
kernLeft = A;
kernRight = A;
layers = (
{
hints = (
{
horizontal = 1;
place = (788, 68);
place = (788, 68);
type = Stem;
},
{
place = (232, 67);
place = (232, 67);
type = Stem;
},
{
place = (363, 67);
place = (363, 67);
type = Stem;
},
{
horizontal = 1;
place = (0, 239);
place = (0, 239);
type = Stem;
},
{
horizontal = 1;
place = (704, -20);
target = down;
type = TopGhost;
},
{
horizontal = 1;
place = (230, -20);
target = down;
type = TopGhost;
}
);
layerId = m01;
shapes = (
{
closed = 1;
nodes = (
(299,841,o),
(283,856,o),
(265,856,cs),
(246,856,o),
(232,841,o),
(232,821,cs),
(232,803,o),
(246,788,o),
(265,788,cs),
(283,788,o),
(299,803,o),
(299,821,cs)
);
},
{
closed = 1;
nodes = (
(430,841,o),
(414,856,o),
(396,856,cs),
(377,856,o),
(363,841,o),
(363,821,cs),
(363,803,o),
(377,788,o),
(396,788,cs),
(414,788,o),
(430,803,o),
(430,821,cs)
);
},
{
closed = 1;
nodes = (
(333,704,l),
(329,704,l),
(167,250,ls),
(92,26,o),
(67,9,o),
(17,9,c),
(17,0,l),
(217,0,l),
(217,9,l),
(97,9,o),
(122,70,o),
(177,230,c),
(458,230,l),
(497,128,ls),
(544,16,o),
(512,9,o),
(482,9,c),
(482,0,l),
(652,0,l),
(652,9,l),
(622,11,o),
(604,19,o),
(572,99,cs)
);
},
{
closed = 1;
nodes = (
(180,239,l),
(313,610,l),
(455,239,l)
);
}
);
width = 666;
}
);
note = Adieresis;
unicode = 196;
},
{
glyphname = Aring;
kernLeft = A;
kernRight = A;
layers = (
{
hints = (
{
horizontal = 1;
place = (788, 23);
place = (788, 23);
type = Stem;
},
{
horizontal = 1;
place = (950, 23);
place = (950, 23);
type = Stem;
},
{
place = (239, 23);
place = (239, 23);
type = Stem;
},
{
place = (400, 23);
place = (400, 23);
type = Stem;
},
{
horizontal = 1;
place = (0, 239);
place = (0, 239);
type = Stem;
},
{
horizontal = 1;
place = (704, -20);
target = down;
type = TopGhost;
},
{
horizontal = 1;
place = (230, -20);
target = down;
type = TopGhost;
}
);
layerId = m01;
shapes = (
{
closed = 1;
nodes = (
(382,788,o),
(423,830,o),
(423,880,cs),
(423,931,o),
(382,973,o),
(331,973,cs),
(280,973,o),
(239,931,o),
(239,880,cs),
(239,830,o),
(280,788,o),
(331,788,cs)
);
},
{
closed = 1;
nodes = (
(369,950,o),
(400,919,o),
(400,880,cs),
(400,842,o),
(369,811,o),
(331,811,cs),
(292,811,o),
(262,842,o),
(262,880,cs),
(262,919,o),
(292,950,o),
(331,950,cs)
);
},
{
closed = 1;
nodes = (
(333,704,l),
(329,704,l),
(167,250,ls),
(92,26,o),
(67,9,o),
(17,9,c),
(17,0,l),
(217,0,l),
(217,9,l),
(97,9,o),
(122,70,o),
(177,230,c),
(458,230,l),
(497,128,ls),
(544,16,o),
(512,9,o),
(482,9,c),
(482,0,l),
(652,0,l),
(652,9,l),
(622,11,o),
(604,19,o),
(572,99,cs)
);
},
{
closed = 1;
nodes = (
(180,239,l),
(313,610,l),
(455,239,l)
);
}
);
width = 666;
}
);
note = Aring;
unicode = 197;
},
{
glyphname = AE;
kernLeft = A;
layers = (
{
hints = (
{
horizontal = 1;
place = (0, 239);
place = (0, 239);
type = Stem;
},
{
horizontal = 1;
place = (351, -20);
target = down;
type = TopGhost;
},
{
horizontal = 1;
place = (704, -20);
target = down;
type = TopGhost;
},
{
place = (458, 61);
place = (458, 61);
type = Stem;
},
{
horizontal = 1;
place = (198, -20);
target = down;
type = TopGhost;
},
{
horizontal = 1;
place = (230, -20);
target = down;
type = TopGhost;
},
{
horizontal = 1;
place = (253, -20);
target = down;
type = TopGhost;
},
{
horizontal = 1;
place = (360, -20);
target = down;
type = TopGhost;
}
);
layerId = m01;
shapes = (
{
closed = 1;
nodes = (
(226,239,l),
(458,658,l),
(458,652,o),
(458,636,o),
(458,629,cs),
(458,239,l)
);
},
{
closed = 1;
nodes = (
(822,198,l),
(822,0,o),
(733,9,o),
(555,9,cs),
(519,9,l),
(519,351,l),
(593,351,ls),
(644,351,o),
(708,355,o),
(708,253,c),
(717,253,l),
(717,458,l),
(708,458,l),
(708,357,o),
(647,360,o),
(593,360,cs),
(519,360,l),
(519,695,l),
(572,695,ls),
(734,695,o),
(809,692,o),
(809,534,c),
(818,534,l),
(818,704,l),
(409,704,l),
(409,695,l),
(438,695,o),
(450,694,o),
(455,674,c),
(220,250,ls),
(98,26,o),
(62,9,o),
(12,9,c),
(12,0,l),
(212,0,l),
(212,9,l),
(92,9,o),
(132,70,o),
(221,230,c),
(458,230,l),
(458,97,ls),
(458,29,o),
(451,9,o),
(409,9,c),
(409,0,l),
(831,0,l),
(831,198,l)
);
}
);
width = 891;
}
);
note = AE;
unicode = 198;
},
{
glyphname = Ccedilla;
kernLeft = C;
kernRight = C;
layers = (
{
hints = (
{
horizontal = 1;
place = (-222, 222);
place = (-222, 222);
type = Stem;
},
{
horizontal = 1;
place = (205, -20);
target = down;
type = TopGhost;
},
{
horizontal = 1;
place = (704, -20);
target = down;
type = TopGhost;
},
{
place = (40, 76);
place = (40, 76);
type = Stem;
},
{
horizontal = 1;
place = (-9, 21);
target = up;
type = BottomGhost;
},
{
horizontal = 1;
place = (713, -20);
target = down;
type = TopGhost;
}
);
layerId = m01;
shapes = (
{
closed = 1;
nodes = (
(591,205,l),
(591,9,o),
(428,0,o),
(387,0,cs),
(292,0,o),
(116,13,o),
(116,352,cs),
(116,682,o),
(289,704,o),
(387,704,cs),
(434,704,o),
(591,695,o),
(591,500,c),
(600,500,l),
(609,652,l),
(546,703,o),
(490,713,o),
(387,713,cs),
(186,713,o),
(40,603,o),
(40,352,cs),
(40,112,o),
(179,-3,o),
(372,-9,cs),
(378,-9,l),
(352,-85,l),
(445,-61,o),
(465,-120,o),
(465,-154,cs),
(465,-199,o),
(433,-219,o),
(396,-219,cs),
(366,-220,o),
(352,-207,o),
(355,-207,cs),
(359,-207,o),
(363,-205,o),
(367,-200,cs),
(372,-192,o),
(370,-181,o),
(361,-176,cs),
(353,-170,o),
(342,-172,o),
(337,-180,cs),
(333,-186,o),
(333,-194,o),
(336,-199,cs),
(339,-204,o),
(353,-223,o),
(396,-222,cs),
(430,-222,o),
(486,-216,o),
(496,-144,cs),
(502,-93,o),
(461,-45,o),
(367,-66,c),
(388,-9,l),
(389,-9,ls),
(494,-9,o),
(535,4,o),
(609,53,c),
(600,205,l)
);
}
);
width = 674;
}
);
note = Ccedilla;
unicode = 199;
},
{
glyphname = Egrave;
layers = (
{
hints = (
{
horizontal = 1;
place = (735, 21);
target = up;
type = BottomGhost;
},
{
horizontal = 1;
place = (895, -20);
target = down;
type = TopGhost;
},
{
horizontal = 1;
place = (0, 21);
target = up;
type = BottomGhost;
},
{
horizontal = 1;
place = (198, -20);
target = down;
type = TopGhost;
},
{
horizontal = 1;
place = (253, -20);
target = down;
type = TopGhost;
},
{
horizontal = 1;
place = (351, -20);
target = down;
type = TopGhost;
},
{
horizontal = 1;
place = (704, -20);
target = down;
type = TopGhost;
},
{
place = (77, 61);
place = (77, 61);
type = Stem;
},
{
horizontal = 1;
place = (360, -20);
target = down;
type = TopGhost;
}
);
layerId = m01;
shapes = (
{
closed = 1;
nodes = (
(212,895,l),
(153,881,l),
(379,735,l),
(386,735,l)
);
},
{
closed = 1;
nodes = (
(461,198,l),
(461,0,o),
(372,9,o),
(194,9,cs),
(138,9,l),
(138,351,l),
(232,351,ls),
(283,351,o),
(347,350,o),
(347,253,c),
(356,253,l),
(356,458,l),
(347,458,l),
(347,361,o),
(286,360,o),
(232,360,cs),
(138,360,l),
(138,695,l),
(211,695,ls),
(373,695,o),
(448,692,o),
(448,534,c),
(457,534,l),
(457,704,l),
(28,704,l),
(28,695,l),
(72,695,o),
(77,691,o),
(77,629,cs),
(77,97,ls),
(77,29,o),
(70,9,o),
(28,9,c),
(28,0,l),
(470,0,l),
(470,198,l)
);
}
);
width = 530;
}
);
note = Egrave;
unicode = 200;
},
{
glyphname = Eacute;
layers = (
{
hints = (
{
horizontal = 1;
place = (0, 18);
place = (0, 18);
type = Stem;
},
{
horizontal = 1;
place = (362, 18);
place = (362, 18);
type = Stem;
},
{
horizontal = 1;
place = (686, 18);
place = (686, 18);
type = Stem;
},
{
place = (103, 156);
place = (103, 156);
type = Stem;
},
{
place = (427, 18);
place = (427, 18);
type = Stem;
},
{
place = (563, 18);
place = (563, 18);
type = Stem;
},
{
place = (591, 18);
place = (591, 18);
type = Stem;
},
{
horizontal = 1;
place = (735, 21);
target = up;
type = BottomGhost;
},
{
horizontal = 1;
place = (895, -20);
target = down;
type = TopGhost;
},
{
horizontal = 1;
place = (0, 21);
target = up;
type = BottomGhost;
},
{
horizontal = 1;
place = (198, -20);
target = down;
type = TopGhost;
},
{
horizontal = 1;
place = (253, -20);
target = down;
type = TopGhost;
},
{
horizontal = 1;
place = (351, -20);
target = down;
type = TopGhost;
},
{
horizontal = 1;
place = (704, -20);
target = down;
type = TopGhost;
},
{
place = (77, 61);
place = (77, 61);
type = Stem;
}
);
layerId = m01;
shapes = (
{
closed = 1;
nodes = (
(137,735,l),
(144,735,l),
(370,881,l),
(311,895,l)
);
},
{
closed = 1;
nodes = (
(461,198,l),
(461,0,o),
(372,9,o),
(194,9,cs),
(138,9,l),
(138,351,l),
(232,351,ls),
(283,351,o),
(347,350,o),
(347,253,c),
(356,253,l),
(356,458,l),
(347,458,l),
(347,361,o),
(286,360,o),
(232,360,cs),
(138,360,l),
(138,695,l),
(211,695,ls),
(373,695,o),
(448,692,o),
(448,534,c),
(457,534,l),
(457,704,l),
(28,704,l),
(28,695,l),
(72,695,o),
(77,691,o),
(77,629,cs),
(77,97,ls),
(77,29,o),
(70,9,o),
(28,9,c),
(28,0,l),
(470,0,l),
(470,198,l)
);
}
);
width = 530;
}
);
note = Eacute;
unicode = 201;
},
{
glyphname = Ecircumflex;
layers = (
{
hints = (
{
horizontal = 1;
place = (735, 20);
place = (735, 20);
type = Stem;
},
{
horizontal = 1;
place = (902, 21);
place = (902, 21);
type = Stem;
},
{
horizontal = 1;
place = (0, 21);
target = up;
type = BottomGhost;
},
{
horizontal = 1;
place = (198, -20);
target = down;
type = TopGhost;
},
{
horizontal = 1;
place = (253, -20);
target = down;
type = TopGhost;
},
{
horizontal = 1;
place = (351, -20);
target = down;
type = TopGhost;
},
{
horizontal = 1;
place = (704, -20);
target = down;
type = TopGhost;
},
{
place = (77, 61);
place = (77, 61);
type = Stem;
},
{
horizontal = 1;
place = (360, -20);
target = down;
type = TopGhost;
}
);
layerId = m01;
shapes = (
{
closed = 1;
nodes = (
(378,735,l),
(389,735,l),
(259,923,l),
(129,735,l),
(140,735,l),
(259,862,l)
);
},
{
closed = 1;
nodes = (
(461,198,l),
(461,0,o),
(372,9,o),
(194,9,cs),
(138,9,l),
(138,351,l),
(232,351,ls),
(283,351,o),
(347,350,o),
(347,253,c),
(356,253,l),
(356,458,l),
(347,458,l),
(347,361,o),
(286,360,o),
(232,360,cs),
(138,360,l),
(138,695,l),
(211,695,ls),
(373,695,o),
(448,692,o),
(448,534,c),
(457,534,l),
(457,704,l),
(28,704,l),
(28,695,l),
(72,695,o),
(77,691,o),
(77,629,cs),
(77,97,ls),
(77,29,o),
(70,9,o),
(28,9,c),
(28,0,l),
(470,0,l),
(470,198,l)
);
}
);
width = 530;
}
);
note = Ecircumflex;
unicode = 202;
},
{
glyphname = Edieresis;
layers = (
{
hints = (
{
horizontal = 1;
place = (788, 68);
place = (788, 68);
type = Stem;
},
{
place = (157, 67);
place = (157, 67);
type = Stem;
},
{
place = (288, 67);
place = (288, 67);
type = Stem;
},
{
horizontal = 1;
place = (0, 21);
target = up;
type = BottomGhost;
},
{
horizontal = 1;
place = (198, -20);
target = down;
type = TopGhost;
},
{
horizontal = 1;
place = (253, -20);
target = down;
type = TopGhost;
},
{
horizontal = 1;
place = (351, -20);
target = down;
type = TopGhost;
},
{
horizontal = 1;
place = (704, -20);
target = down;
type = TopGhost;
},
{
place = (77, 61);
place = (77, 61);
type = Stem;
},
{
horizontal = 1;
place = (360, -20);
target = down;
type = TopGhost;
}
);
layerId = m01;
shapes = (
{
closed = 1;
nodes = (
(224,841,o),
(208,856,o),
(190,856,cs),
(171,856,o),
(157,841,o),
(157,821,cs),
(157,803,o),
(171,788,o),
(190,788,cs),
(208,788,o),
(224,803,o),
(224,821,cs)
);
},
{
closed = 1;
nodes = (
(355,841,o),
(339,856,o),
(321,856,cs),
(302,856,o),
(288,841,o),
(288,821,cs),
(288,803,o),
(302,788,o),
(321,788,cs),
(339,788,o),
(355,803,o),
(355,821,cs)
);
},
{
closed = 1;
nodes = (
(461,198,l),
(461,0,o),
(372,9,o),
(194,9,cs),
(138,9,l),
(138,351,l),
(232,351,ls),
(283,351,o),
(347,350,o),
(347,253,c),
(356,253,l),
(356,458,l),
(347,458,l),
(347,361,o),
(286,360,o),
(232,360,cs),
(138,360,l),
(138,695,l),
(211,695,ls),
(373,695,o),
(448,692,o),
(448,534,c),
(457,534,l),
(457,704,l),
(28,704,l),
(28,695,l),
(72,695,o),
(77,691,o),
(77,629,cs),
(77,97,ls),
(77,29,o),
(70,9,o),
(28,9,c),
(28,0,l),
(470,0,l),
(470,198,l)
);
}
);
width = 530;
}
);
note = Edieresis;
unicode = 203;
},
{
glyphname = Igrave;
layers = (
{
hints = (
{
horizontal = 1;
place = (0, 21);
target = up;
type = BottomGhost;
},
{
horizontal = 1;
place = (704, -20);
target = down;
type = TopGhost;
},
{
place = (94, 60);
place = (94, 60);
type = Stem;
},
{
horizontal = 1;
place = (735, 21);
target = up;
type = BottomGhost;
},
{
horizontal = 1;
place = (895, -20);
target = down;
type = TopGhost;
}
);
layerId = m01;
shapes = (
{
closed = 1;
nodes = (
(39,704,l),
(39,696,l),
(83,696,o),
(94,689,o),
(94,627,cs),
(94,93,ls),
(94,25,o),
(82,9,o),
(39,9,c),
(39,0,l),
(209,0,l),
(209,9,l),
(167,9,o),
(154,25,o),
(154,93,cs),
(154,627,ls),
(154,689,o),
(166,696,o),
(209,696,c),
(209,704,l)
);
},
{
closed = 1;
nodes = (
(66,895,l),
(7,881,l),
(233,735,l),
(240,735,l)
);
}
);
width = 244;
}
);
note = Igrave;
unicode = 204;
},
{
glyphname = Iacute;
layers = (
{
hints = (
{
horizontal = 1;
place = (0, 21);
target = up;
type = BottomGhost;
},
{
horizontal = 1;
place = (704, -20);
target = down;
type = TopGhost;
},
{
place = (94, 60);
place = (94, 60);
type = Stem;
},
{
horizontal = 1;
place = (735, 21);
target = up;
type = BottomGhost;
},
{
horizontal = 1;
place = (895, -20);
target = down;
type = TopGhost;
}
);
layerId = m01;
shapes = (
{
closed = 1;
nodes = (
(39,704,l),
(39,696,l),
(83,696,o),
(94,689,o),
(94,627,cs),
(94,93,ls),
(94,25,o),
(82,9,o),
(39,9,c),
(39,0,l),
(209,0,l),
(209,9,l),
(167,9,o),
(154,25,o),
(154,93,cs),
(154,627,ls),
(154,689,o),
(166,696,o),
(209,696,c),
(209,704,l)
);
},
{
closed = 1;
nodes = (
(0,735,l),
(7,735,l),
(233,881,l),
(174,895,l)
);
}
);
width = 244;
}
);
note = Iacute;
unicode = 205;
},
{
glyphname = Icircumflex;
layers = (
{
hints = (
{
horizontal = 1;
place = (0, 21);
target = up;
type = BottomGhost;
},
{
horizontal = 1;
place = (704, -20);
target = down;
type = TopGhost;
},
{
place = (94, 60);
place = (94, 60);
type = Stem;
},
{
horizontal = 1;
place = (735, 20);
place = (735, 20);
type = Stem;
},
{
horizontal = 1;
place = (902, 21);
place = (902, 21);
type = Stem;
}
);
layerId = m01;
shapes = (
{
closed = 1;
nodes = (
(39,704,l),
(39,696,l),
(83,696,o),
(94,689,o),
(94,627,cs),
(94,93,ls),
(94,25,o),
(82,9,o),
(39,9,c),
(39,0,l),
(209,0,l),
(209,9,l),
(167,9,o),
(154,25,o),
(154,93,cs),
(154,627,ls),
(154,689,o),
(166,696,o),
(209,696,c),
(209,704,l)
);
},
{
closed = 1;
nodes = (
(240,735,l),
(251,735,l),
(121,923,l),
(-9,735,l),
(2,735,l),
(121,862,l)
);
}
);
width = 244;
}
);
note = Icircumflex;
unicode = 206;
},
{
glyphname = Idieresis;
layers = (
{
hints = (
{
horizontal = 1;
place = (0, 21);
target = up;
type = BottomGhost;
},
{
horizontal = 1;
place = (704, -20);
target = down;
type = TopGhost;
},
{
horizontal = 1;
place = (788, 68);
place = (788, 68);
type = Stem;
},
{
place = (25, 67);
place = (25, 67);
type = Stem;
},
{
place = (94, 60);
place = (94, 60);
type = Stem;
},
{
place = (156, 67);
place = (156, 67);
type = Stem;
},
{
horizontal = 1;
place = (696, 160);
place = (696, 160);
type = Stem;
}
);
layerId = m01;
shapes = (
{
closed = 1;
nodes = (
(39,704,l),
(39,696,l),
(83,696,o),
(94,689,o),
(94,627,cs),
(94,93,ls),
(94,25,o),
(82,9,o),
(39,9,c),
(39,0,l),
(209,0,l),
(209,9,l),
(167,9,o),
(154,25,o),
(154,93,cs),
(154,627,ls),
(154,689,o),
(166,696,o),
(209,696,c),
(209,704,l)
);
},
{
closed = 1;
nodes = (
(92,841,o),
(76,856,o),
(58,856,cs),
(39,856,o),
(25,841,o),
(25,821,cs),
(25,803,o),
(39,788,o),
(58,788,cs),
(76,788,o),
(92,803,o),
(92,821,cs)
);
},
{
closed = 1;
nodes = (
(223,841,o),
(207,856,o),
(189,856,cs),
(170,856,o),
(156,841,o),
(156,821,cs),
(156,803,o),
(170,788,o),
(189,788,cs),
(207,788,o),
(223,803,o),
(223,821,cs)
);
}
);
width = 244;
}
);
note = Idieresis;
unicode = 207;
},
{
glyphname = Eth;
kernRight = D;
layers = (
{
hints = (
{
horizontal = 1;
place = (0, 21);
target = up;
type = BottomGhost;
},
{
horizontal = 1;
place = (341, 21);
place = (341, 21);
type = Stem;
},
{
horizontal = 1;
place = (704, -20);
target = down;
type = TopGhost;
},
{
place = (104, 62);
place = (104, 62);
type = Stem;
},
{
place = (519, 66);
place = (519, 66);
type = Stem;
}
);
layerId = m01;
shapes = (
{
closed = 1;
nodes = (
(44,704,l),
(44,696,l),
(88,696,o),
(104,668,o),
(104,606,cs),
(104,362,l),
(-5,362,l),
(-5,341,l),
(104,341,l),
(104,101,ls),
(104,33,o),
(87,9,o),
(44,9,c),
(44,0,l),
(210,0,ls),
(409,0,o),
(585,39,o),
(585,352,cs),
(585,645,o),
(409,704,o),
(210,704,cs)
);
},
{
closed = 1;
nodes = (
(166,9,l),
(166,341,l),
(306,341,l),
(306,362,l),
(166,362,l),
(166,696,l),
(210,696,ls),
(332,696,o),
(519,686,o),
(519,352,cs),
(519,-1,o),
(327,9,o),
(210,9,cs)
);
}
);
width = 632;
}
);
note = Eth;
unicode = 208;
},
{
glyphname = Ntilde;
kernRight = N;
layers = (
{
hints = (
{
horizontal = 1;
place = (0, 21);
target = up;
type = BottomGhost;
},
{
horizontal = 1;
place = (704, -20);
target = down;
type = TopGhost;
}
);
layerId = m01;
shapes = (
{
closed = 1;
nodes = (
(413,784,l),
(413,784,o),
(539,737,o),
(589,869,c),
(585,870,l),
(562,815,o),
(469,814,o),
(438,827,cs),
(328,870,l),
(328,870,o),
(202,915,o),
(153,785,c),
(156,784,l),
(184,845,o),
(272,839,o),
(304,827,cs)
);
},
{
closed = 1;
nodes = (
(467,704,l),
(467,696,l),
(592,696,o),
(592,646,o),
(592,460,cs),
(592,85,l),
(130,704,l),
(5,704,l),
(5,696,l),
(31,694,o),
(60,696,o),
(124,616,cs),
(167,559,l),
(167,245,ls),
(167,65,o),
(166,9,o),
(28,9,c),
(28,0,l),
(302,0,l),
(302,9,l),
(177,9,o),
(176,68,o),
(176,245,cs),
(176,547,l),
(590,0,l),
(590,0,l),
(601,0,l),
(601,460,ls),
(601,646,o),
(597,696,o),
(735,696,c),
(735,704,l)
);
}
);
width = 747;
}
);
note = Ntilde;
unicode = 209;
},
{
glyphname = Ograve;
kernLeft = O;
kernRight = O;
layers = (
{
hints = (
{
horizontal = 1;
place = (0, 21);
target = up;
type = BottomGhost;
},
{
horizontal = 1;
place = (704, -20);
target = down;
type = TopGhost;
},
{
place = (42, 58);
place = (42, 58);
type = Stem;
},
{
place = (592, 60);
place = (592, 60);
type = Stem;
},
{
horizontal = 1;
place = (-9, 21);
target = up;
type = BottomGhost;
},
{
horizontal = 1;
place = (713, -20);
target = down;
type = TopGhost;
},
{
horizontal = 1;
place = (735, 21);
target = up;
type = BottomGhost;
},
{
horizontal = 1;
place = (895, -20);
target = down;
type = TopGhost;
}
);
layerId = m01;
shapes = (
{
closed = 1;
nodes = (
(228,0,o),
(100,72,o),
(100,347,cs),
(100,621,o),
(228,704,o),
(347,704,cs),
(465,704,o),
(592,621,o),
(592,347,cs),
(592,72,o),
(465,0,o),
(347,0,cs)
);
},
{
closed = 1;
nodes = (
(127,713,o),
(42,545,o),
(42,347,cs),
(42,148,o),
(127,-9,o),
(347,-9,cs),
(567,-9,o),
(652,148,o),
(652,347,cs),
(652,545,o),
(567,713,o),
(347,713,cs)
);
},
{
closed = 1;
nodes = (
(296,895,l),
(237,881,l),
(463,735,l),
(470,735,l)
);
}
);
width = 698;
}
);
note = Ograve;
unicode = 210;
},
{
glyphname = Oacute;
kernLeft = O;
kernRight = O;
layers = (
{
hints = (
{
horizontal = 1;
place = (0, 21);
target = up;
type = BottomGhost;
},
{
horizontal = 1;
place = (704, -20);
target = down;
type = TopGhost;
},
{
place = (42, 58);
place = (42, 58);
type = Stem;
},
{
place = (592, 60);
place = (592, 60);
type = Stem;
},
{
horizontal = 1;
place = (-9, 21);
target = up;
type = BottomGhost;
},
{
horizontal = 1;
place = (713, -20);
target = down;
type = TopGhost;
},
{
horizontal = 1;
place = (735, 21);
target = up;
type = BottomGhost;
},
{
horizontal = 1;
place = (895, -20);
target = down;
type = TopGhost;
}
);
layerId = m01;
shapes = (
{
closed = 1;
nodes = (
(228,0,o),
(100,72,o),
(100,347,cs),
(100,621,o),
(228,704,o),
(347,704,cs),
(465,704,o),
(592,621,o),
(592,347,cs),
(592,72,o),
(465,0,o),
(347,0,cs)
);
},
{
closed = 1;
nodes = (
(127,713,o),
(42,545,o),
(42,347,cs),
(42,148,o),
(127,-9,o),
(347,-9,cs),
(567,-9,o),
(652,148,o),
(652,347,cs),
(652,545,o),
(567,713,o),
(347,713,cs)
);
},
{
closed = 1;
nodes = (
(239,735,l),
(246,735,l),
(472,881,l),
(413,895,l)
);
}
);
width = 698;
}
);
note = Oacute;
unicode = 211;
},
{
glyphname = Ocircumflex;
kernLeft = O;
kernRight = O;
layers = (
{
hints = (
{
horizontal = 1;
place = (0, 21);
target = up;
type = BottomGhost;
},
{
horizontal = 1;
place = (704, -20);
target = down;
type = TopGhost;
},
{
place = (42, 58);
place = (42, 58);
type = Stem;
},
{
place = (592, 60);
place = (592, 60);
type = Stem;
},
{
horizontal = 1;
place = (-9, 21);
target = up;
type = BottomGhost;
},
{
horizontal = 1;
place = (713, -20);
target = down;
type = TopGhost;
},
{
horizontal = 1;
place = (735, 20);
place = (735, 20);
type = Stem;
},
{
horizontal = 1;
place = (902, 21);
place = (902, 21);
type = Stem;
}
);
layerId = m01;
shapes = (
{
closed = 1;
nodes = (
(228,0,o),
(100,72,o),
(100,347,cs),
(100,621,o),
(228,704,o),
(347,704,cs),
(465,704,o),
(592,621,o),
(592,347,cs),
(592,72,o),
(465,0,o),
(347,0,cs)
);
},
{
closed = 1;
nodes = (
(127,713,o),
(42,545,o),
(42,347,cs),
(42,148,o),
(127,-9,o),
(347,-9,cs),
(567,-9,o),
(652,148,o),
(652,347,cs),
(652,545,o),
(567,713,o),
(347,713,cs)
);
},
{
closed = 1;
nodes = (
(465,735,l),
(476,735,l),
(346,923,l),
(216,735,l),
(227,735,l),
(346,862,l)
);
}
);
width = 698;
}
);
note = Ocircumflex;
unicode = 212;
},
{
glyphname = Otilde;
kernLeft = O;
kernRight = O;
layers = (
{
hints = (
{
horizontal = 1;
place = (0, 21);
target = up;
type = BottomGhost;
},
{
horizontal = 1;
place = (704, -20);
target = down;
type = TopGhost;
},
{
place = (42, 58);
place = (42, 58);
type = Stem;
},
{
place = (592, 60);
place = (592, 60);
type = Stem;
},
{
horizontal = 1;
place = (-9, 21);
target = up;
type = BottomGhost;
},
{
horizontal = 1;
place = (713, -20);
target = down;
type = TopGhost;
}
);
layerId = m01;
shapes = (
{
closed = 1;
nodes = (
(228,0,o),
(100,72,o),
(100,347,cs),
(100,621,o),
(228,704,o),
(347,704,cs),
(465,704,o),
(592,621,o),
(592,347,cs),
(592,72,o),
(465,0,o),
(347,0,cs)
);
},
{
closed = 1;
nodes = (
(127,713,o),
(42,545,o),
(42,347,cs),
(42,148,o),
(127,-9,o),
(347,-9,cs),
(567,-9,o),
(652,148,o),
(652,347,cs),
(652,545,o),
(567,713,o),
(347,713,cs)
);
},
{
closed = 1;
nodes = (
(393,784,l),
(393,784,o),
(519,737,o),
(569,869,c),
(565,870,l),
(542,815,o),
(449,814,o),
(418,827,cs),
(308,870,l),
(308,870,o),
(182,915,o),
(133,785,c),
(136,784,l),
(164,845,o),
(252,839,o),
(284,827,cs)
);
}
);
width = 698;
}
);
note = Otilde;
unicode = 213;
},
{
glyphname = Odieresis;
kernLeft = O;
kernRight = O;
layers = (
{
hints = (
{
horizontal = 1;
place = (0, 21);
target = up;
type = BottomGhost;
},
{
horizontal = 1;
place = (704, 152);
place = (704, 152);
type = Stem;
},
{
place = (42, 58);
place = (42, 58);
type = Stem;
},
{
place = (249, 67);
place = (249, 67);
type = Stem;
},
{
place = (380, 67);
place = (380, 67);
type = Stem;
},
{
place = (592, 60);
place = (592, 60);
type = Stem;
},
{
horizontal = 1;
place = (-9, 21);
target = up;
type = BottomGhost;
},
{
horizontal = 1;
place = (713, -20);
target = down;
type = TopGhost;
},
{
horizontal = 1;
place = (788, 68);
place = (788, 68);
type = Stem;
}
);
layerId = m01;
shapes = (
{
closed = 1;
nodes = (
(228,0,o),
(100,72,o),
(100,347,cs),
(100,621,o),
(228,704,o),
(347,704,cs),
(465,704,o),
(592,621,o),
(592,347,cs),
(592,72,o),
(465,0,o),
(347,0,cs)
);
},
{
closed = 1;
nodes = (
(127,713,o),
(42,545,o),
(42,347,cs),
(42,148,o),
(127,-9,o),
(347,-9,cs),
(567,-9,o),
(652,148,o),
(652,347,cs),
(652,545,o),
(567,713,o),
(347,713,cs)
);
},
{
closed = 1;
nodes = (
(316,841,o),
(300,856,o),
(282,856,cs),
(263,856,o),
(249,841,o),
(249,821,cs),
(249,803,o),
(263,788,o),
(282,788,cs),
(300,788,o),
(316,803,o),
(316,821,cs)
);
},
{
closed = 1;
nodes = (
(447,841,o),
(431,856,o),
(413,856,cs),
(394,856,o),
(380,841,o),
(380,821,cs),
(380,803,o),
(394,788,o),
(413,788,cs),
(431,788,o),
(447,803,o),
(447,821,cs)
);
}
);
width = 698;
}
);
note = Odieresis;
unicode = 214;
},
{
glyphname = multiply;
layers = (
{
hints = (
{
horizontal = 1;
place = (13, 21);
target = up;
type = BottomGhost;
},
{
horizontal = 1;
place = (497, -20);
target = down;
type = TopGhost;
}
);
layerId = m01;
shapes = (
{
closed = 1;
nodes = (
(336,254,l),
(541,459,l),
(505,496,l),
(300,292,l),
(96,497,l),
(59,459,l),
(264,254,l),
(59,50,l),
(96,13,l),
(300,218,l),
(505,13,l),
(541,50,l)
);
}
);
width = 600;
}
);
note = multiply;
unicode = 215;
},
{
glyphname = Oslash;
kernLeft = O;
kernRight = O;
layers = (
{
hints = (
{
horizontal = 1;
place = (-35, 21);
target = up;
type = BottomGhost;
},
{
horizontal = 1;
place = (0, 21);
target = up;
type = BottomGhost;
},
{
horizontal = 1;
place = (704, -20);
target = down;
type = TopGhost;
},
{
horizontal = 1;
place = (745, -20);
target = down;
type = TopGhost;
},
{
place = (42, 58);
place = (42, 58);
type = Stem;
},
{
place = (592, 60);
place = (592, 60);
type = Stem;
},
{
horizontal = 1;
place = (-9, 21);
target = up;
type = BottomGhost;
},
{
horizontal = 1;
place = (713, -20);
target = down;
type = TopGhost;
}
);
layerId = m01;
shapes = (
{
closed = 1;
nodes = (
(294,0,o),
(240,14,o),
(195,54,c),
(525,615,l),
(565,559,o),
(592,474,o),
(592,348,cs),
(592,72,o),
(465,0,o),
(347,0,cs)
);
},
{
closed = 1;
nodes = (
(100,623,o),
(228,704,o),
(347,704,cs),
(406,704,o),
(467,686,o),
(513,631,c),
(182,67,l),
(134,119,o),
(100,207,o),
(100,348,cs)
);
},
{
closed = 1;
nodes = (
(602,745,l),
(580,745,l),
(530,660,l),
(484,695,o),
(424,713,o),
(347,713,cs),
(127,713,o),
(42,547,o),
(42,348,cs),
(42,216,o),
(79,103,o),
(168,42,c),
(122,-35,l),
(143,-35,l),
(182,32,l),
(226,6,o),
(280,-9,o),
(347,-9,cs),
(567,-9,o),
(652,148,o),
(652,348,cs),
(652,470,o),
(620,581,o),
(544,648,c)
);
}
);
width = 698;
}
);
note = Oslash;
unicode = 216;
},
{
glyphname = Ugrave;
kernLeft = U;
kernRight = U;
layers = (
{
hints = (
{
horizontal = 1;
place = (-9, 30);
place = (-9, 30);
type = Stem;
},
{
horizontal = 1;
place = (704, -20);
target = down;
type = TopGhost;
},
{
place = (73, 53);
place = (73, 53);
type = Stem;
},
{
horizontal = 1;
place = (735, 21);
target = up;
type = BottomGhost;
},
{
horizontal = 1;
place = (895, -20);
target = down;
type = TopGhost;
}
);
layerId = m01;
shapes = (
{
closed = 1;
nodes = (
(252,895,l),
(193,881,l),
(419,735,l),
(426,735,l)
);
},
{
closed = 1;
nodes = (
(528,479,ls),
(528,668,o),
(524,695,o),
(635,695,c),
(635,695,l),
(635,704,l),
(418,704,l),
(418,695,l),
(513,695,o),
(519,668,o),
(519,479,cs),
(519,232,ls),
(519,101,o),
(451,21,o),
(323,21,cs),
(201,21,o),
(126,93,o),
(126,224,cs),
(126,607,ls),
(126,693,o),
(149,695,o),
(192,695,c),
(192,704,l),
(12,704,l),
(12,695,l),
(56,695,o),
(73,684,o),
(73,610,cs),
(73,234,ls),
(73,71,o),
(166,-9,o),
(289,-9,cs),
(448,-9,o),
(529,88,o),
(528,232,cs)
);
}
);
width = 649;
}
);
note = Ugrave;
unicode = 217;
},
{
glyphname = Uacute;
kernLeft = U;
kernRight = U;
layers = (
{
hints = (
{
horizontal = 1;
place = (-16, 36);
place = (-16, 36);
type = Stem;
},
{
horizontal = 1;
place = (686, 18);
place = (686, 18);
type = Stem;
},
{
place = (94, 156);
place = (94, 156);
type = Stem;
},
{
place = (604, 24);
place = (604, 24);
type = Stem;
},
{
horizontal = 1;
place = (735, 21);
target = up;
type = BottomGhost;
},
{
horizontal = 1;
place = (895, -20);
target = down;
type = TopGhost;
}
);
layerId = m01;
shapes = (
{
closed = 1;
nodes = (
(195,735,l),
(202,735,l),
(428,881,l),
(369,895,l)
);
},
{
closed = 1;
nodes = (
(528,479,ls),
(528,668,o),
(524,695,o),
(635,695,c),
(635,695,l),
(635,704,l),
(418,704,l),
(418,695,l),
(513,695,o),
(519,668,o),
(519,479,cs),
(519,232,ls),
(519,101,o),
(451,21,o),
(323,21,cs),
(201,21,o),
(126,93,o),
(126,224,cs),
(126,607,ls),
(126,693,o),
(149,695,o),
(192,695,c),
(192,704,l),
(12,704,l),
(12,695,l),
(56,695,o),
(73,684,o),
(73,610,cs),
(73,234,ls),
(73,71,o),
(166,-9,o),
(289,-9,cs),
(448,-9,o),
(529,88,o),
(528,232,cs)
);
}
);
width = 649;
}
);
note = Uacute;
unicode = 218;
},
{
glyphname = Ucircumflex;
kernLeft = U;
kernRight = U;
layers = (
{
hints = (
{
horizontal = 1;
place = (-9, 30);
place = (-9, 30);
type = Stem;
},
{
horizontal = 1;
place = (704, -20);
target = down;
type = TopGhost;
},
{
place = (73, 53);
place = (73, 53);
type = Stem;
},
{
horizontal = 1;
place = (735, 20);
place = (735, 20);
type = Stem;
},
{
horizontal = 1;
place = (902, 21);
place = (902, 21);
type = Stem;
}
);
layerId = m01;
shapes = (
{
closed = 1;
nodes = (
(433,735,l),
(444,735,l),
(314,923,l),
(184,735,l),
(195,735,l),
(314,862,l)
);
},
{
closed = 1;
nodes = (
(528,479,ls),
(528,668,o),
(524,695,o),
(635,695,c),
(635,695,l),
(635,704,l),
(418,704,l),
(418,695,l),
(513,695,o),
(519,668,o),
(519,479,cs),
(519,232,ls),
(519,101,o),
(451,21,o),
(323,21,cs),
(201,21,o),
(126,93,o),
(126,224,cs),
(126,607,ls),
(126,693,o),
(149,695,o),
(192,695,c),
(192,704,l),
(12,704,l),
(12,695,l),
(56,695,o),
(73,684,o),
(73,610,cs),
(73,234,ls),
(73,71,o),
(166,-9,o),
(289,-9,cs),
(448,-9,o),
(529,88,o),
(528,232,cs)
);
}
);
width = 649;
}
);
note = Ucircumflex;
unicode = 219;
},
{
glyphname = Udieresis;
kernLeft = U;
kernRight = U;
layers = (
{
hints = (
{
horizontal = 1;
place = (788, 68);
place = (788, 68);
type = Stem;
},
{
place = (221, 67);
place = (221, 67);
type = Stem;
},
{
place = (352, 67);
place = (352, 67);
type = Stem;
},
{
horizontal = 1;
place = (-9, 30);
place = (-9, 30);
type = Stem;
},
{
horizontal = 1;
place = (704, -20);
target = down;
type = TopGhost;
},
{
place = (73, 53);
place = (73, 53);
type = Stem;
}
);
layerId = m01;
shapes = (
{
closed = 1;
nodes = (
(288,841,o),
(272,856,o),
(254,856,cs),
(235,856,o),
(221,841,o),
(221,821,cs),
(221,803,o),
(235,788,o),
(254,788,cs),
(272,788,o),
(288,803,o),
(288,821,cs)
);
},
{
closed = 1;
nodes = (
(419,841,o),
(403,856,o),
(385,856,cs),
(366,856,o),
(352,841,o),
(352,821,cs),
(352,803,o),
(366,788,o),
(385,788,cs),
(403,788,o),
(419,803,o),
(419,821,cs)
);
},
{
closed = 1;
nodes = (
(528,479,ls),
(528,668,o),
(524,695,o),
(635,695,c),
(635,695,l),
(635,704,l),
(418,704,l),
(418,695,l),
(513,695,o),
(519,668,o),
(519,479,cs),
(519,232,ls),
(519,101,o),
(451,21,o),
(323,21,cs),
(201,21,o),
(126,93,o),
(126,224,cs),
(126,607,ls),
(126,693,o),
(149,695,o),
(192,695,c),
(192,704,l),
(12,704,l),
(12,695,l),
(56,695,o),
(73,684,o),
(73,610,cs),
(73,234,ls),
(73,71,o),
(166,-9,o),
(289,-9,cs),
(448,-9,o),
(529,88,o),
(528,232,cs)
);
}
);
width = 649;
}
);
note = Udieresis;
unicode = 220;
},
{
glyphname = Yacute;
kernLeft = Y;
kernRight = Y;
layers = (
{
hints = (
{
horizontal = 1;
place = (0, 21);
target = up;
type = BottomGhost;
},
{
horizontal = 1;
place = (704, -20);
target = down;
type = TopGhost;
},
{
place = (293, 42);
place = (293, 42);
type = Stem;
},
{
horizontal = 1;
place = (735, 21);
target = up;
type = BottomGhost;
},
{
horizontal = 1;
place = (895, -20);
target = down;
type = TopGhost;
}
);
layerId = m01;
shapes = (
{
closed = 1;
nodes = (
(383,704,l),
(383,695,l),
(510,695,o),
(487,628,o),
(419,490,cs),
(333,316,l),
(180,584,ls),
(112,699,o),
(168,696,o),
(203,696,c),
(203,704,l),
(9,704,l),
(9,696,l),
(49,692,o),
(66,696,o),
(111,619,c),
(111,619,o),
(146,560,o),
(293,300,c),
(293,104,ls),
(293,9,o),
(270,10,o),
(228,10,c),
(228,0,l),
(401,0,l),
(401,10,l),
(359,10,o),
(335,9,o),
(335,104,cs),
(335,301,l),
(422,477,ls),
(531,698,o),
(537,695,o),
(598,695,c),
(598,704,l)
);
},
{
closed = 1;
nodes = (
(202,735,l),
(209,735,l),
(435,881,l),
(376,895,l)
);
}
);
width = 613;
}
);
note = Yacute;
unicode = 221;
},
{
glyphname = Thorn;
layers = (
{
hints = (
{
horizontal = 1;
place = (179, -20);
target = down;
type = TopGhost;
},
{
horizontal = 1;
place = (572, 132);
place = (572, 132);
type = Stem;
},
{
place = (76, 48);
place = (76, 48);
type = Stem;
},
{
place = (393, 54);
place = (393, 54);
type = Stem;
},
{
horizontal = 1;
place = (0, 188);
place = (0, 188);
type = Stem;
}
);
layerId = m01;
shapes = (
{
closed = 1;
nodes = (
(124,572,l),
(260,572,o),
(393,580,o),
(393,378,cs),
(393,185,o),
(271,188,o),
(124,188,c),
(124,188,l)
);
},
{
closed = 1;
nodes = (
(124,179,l),
(323,179,o),
(447,191,o),
(447,378,cs),
(447,567,o),
(323,580,o),
(124,580,c),
(124,580,l),
(124,607,ls),
(124,669,o),
(132,696,o),
(175,696,c),
(175,704,l),
(27,704,l),
(27,696,l),
(71,696,o),
(76,669,o),
(76,607,cs),
(76,113,ls),
(76,45,o),
(69,9,o),
(27,9,c),
(27,0,l),
(175,0,l),
(175,9,l),
(133,9,o),
(124,45,o),
(124,113,cs)
);
}
);
width = 468;
}
);
note = Thorn;
unicode = 222;
},
{
glyphname = germandbls;
kernRight = s;
layers = (
{
hints = (
{
horizontal = 1;
place = (0, 21);
target = up;
type = BottomGhost;
},
{
horizontal = 1;
place = (412, -20);
target = down;
type = TopGhost;
},
{
horizontal = 1;
place = (747, -20);
target = down;
type = TopGhost;
},
{
place = (68, 55);
place = (68, 55);
type = Stem;
},
{
place = (374, 62);
place = (374, 62);
type = Stem;
},
{
place = (444, 75);
place = (444, 75);
type = Stem;
},
{
horizontal = 1;
place = (-9, 21);
target = up;
type = BottomGhost;
}
);
layerId = m01;
shapes = (
{
closed = 1;
nodes = (
(308,418,o),
(436,451,o),
(436,572,cs),
(436,700,o),
(344,747,o),
(229,747,cs),
(115,747,o),
(68,671,o),
(68,518,cs),
(68,113,ls),
(68,62,o),
(66,20,o),
(28,8,c),
(28,0,l),
(123,0,l),
(123,581,l),
(123,581,o),
(122,738,o),
(229,738,cs),
(249,738,o),
(374,744,o),
(374,574,cs),
(374,433,o),
(288,420,o),
(235,420,c),
(235,412,l),
(315,412,o),
(440,398,o),
(444,204,cs),
(448,48,o),
(387,0,o),
(311,0,cs),
(268,0,o),
(243,25,o),
(255,25,cs),
(260,25,o),
(271,25,o),
(278,31,cs),
(290,40,o),
(295,67,o),
(284,80,cs),
(274,92,o),
(251,96,o),
(237,85,cs),
(227,77,o),
(222,62,o),
(223,50,cs),
(226,26,o),
(258,-9,o),
(311,-9,cs),
(451,-9,o),
(519,72,o),
(519,201,cs),
(519,380,o),
(366,418,o),
(288,418,cs)
);
}
);
width = 544;
}
);
note = germandbls;
unicode = 223;
},
{
glyphname = agrave;
kernLeft = a;
kernRight = a;
layers = (
{
hints = (
{
horizontal = 1;
place = (-8, 60);
place = (-8, 60);
type = Stem;
},
{
horizontal = 1;
place = (697, -20);
target = down;
type = TopGhost;
},
{
place = (40, 128);
place = (40, 128);
type = Stem;
},
{
place = (299, 126);
place = (299, 126);
type = Stem;
},
{
horizontal = 1;
place = (544, 21);
target = up;
type = BottomGhost;
},
{
horizontal = 1;
place = (704, -20);
target = down;
type = TopGhost;
},
{
horizontal = 1;
place = (-9, 29);
place = (-9, 29);
type = Stem;
},
{
horizontal = 1;
place = (471, -20);
target = down;
type = TopGhost;
},
{
place = (41, 50);
place = (41, 50);
type = Stem;
},
{
place = (293, 54);
place = (293, 54);
type = Stem;
}
);
layerId = m01;
shapes = (
{
closed = 1;
nodes = (
(191,704,l),
(132,690,l),
(358,544,l),
(365,544,l)
);
},
{
closed = 1;
nodes = (
(293,93,l),
(282,69,o),
(255,20,o),
(184,20,cs),
(127,20,o),
(91,53,o),
(91,111,cs),
(91,181,o),
(160,222,o),
(293,255,c)
);
},
{
closed = 1;
nodes = (
(347,24,o),
(347,80,o),
(347,80,c),
(347,271,ls),
(347,390,o),
(324,471,o),
(237,471,c),
(237,471,o),
(190,472,o),
(149,452,cs),
(96,423,o),
(76,390,o),
(71,378,cs),
(66,366,o),
(69,351,o),
(78,340,cs),
(91,324,o),
(113,323,o),
(128,336,cs),
(143,350,o),
(145,373,o),
(132,388,cs),
(125,396,o),
(117,399,o),
(108,401,cs),
(103,402,o),
(111,424,o),
(157,446,cs),
(248,484,o),
(293,420,o),
(293,318,cs),
(293,264,l),
(126,220,o),
(41,186,o),
(41,95,cs),
(41,-10,o),
(154,-9,o),
(154,-9,c),
(223,-9,o),
(280,26,o),
(293,78,c),
(293,-14,o),
(362,-9,o),
(362,-9,c),
(404,-9,o),
(425,27,o),
(430,56,c),
(422,59,l),
(415,24,o),
(389,24,o),
(389,24,c)
);
}
);
width = 445;
}
);
note = agrave;
unicode = 224;
},
{
glyphname = aacute;
kernLeft = a;
kernRight = a;
layers = (
{
hints = (
{
horizontal = 1;
place = (-10, 60);
place = (-10, 60);
type = Stem;
},
{
horizontal = 1;
place = (695, -20);
target = down;
type = TopGhost;
},
{
place = (39, 128);
place = (39, 128);
type = Stem;
},
{
place = (299, 125);
place = (299, 125);
type = Stem;
},
{
horizontal = 1;
place = (544, 21);
target = up;
type = BottomGhost;
},
{
horizontal = 1;
place = (704, -20);
target = down;
type = TopGhost;
}
);
layerId = m01;
shapes = (
{
closed = 1;
nodes = (
(118,544,l),
(125,544,l),
(351,690,l),
(292,704,l)
);
},
{
closed = 1;
nodes = (
(293,93,l),
(282,69,o),
(255,20,o),
(184,20,cs),
(127,20,o),
(91,53,o),
(91,111,cs),
(91,181,o),
(160,222,o),
(293,255,c)
);
},
{
closed = 1;
nodes = (
(347,24,o),
(347,80,o),
(347,80,c),
(347,271,ls),
(347,390,o),
(324,471,o),
(237,471,c),
(237,471,o),
(190,472,o),
(149,452,cs),
(96,423,o),
(76,390,o),
(71,378,cs),
(66,366,o),
(69,351,o),
(78,340,cs),
(91,324,o),
(113,323,o),
(128,336,cs),
(143,350,o),
(145,373,o),
(132,388,cs),
(125,396,o),
(117,399,o),
(108,401,cs),
(103,402,o),
(111,424,o),
(157,446,cs),
(248,484,o),
(293,420,o),
(293,318,cs),
(293,264,l),
(126,220,o),
(41,186,o),
(41,95,cs),
(41,-10,o),
(154,-9,o),
(154,-9,c),
(223,-9,o),
(280,26,o),
(293,78,c),
(293,-14,o),
(362,-9,o),
(362,-9,c),
(404,-9,o),
(425,27,o),
(430,56,c),
(422,59,l),
(415,24,o),
(389,24,o),
(389,24,c)
);
}
);
width = 445;
}
);
note = aacute;
unicode = 225;
},
{
glyphname = acircumflex;
kernLeft = a;
kernRight = a;
layers = (
{
hints = (
{
horizontal = 1;
place = (-10, 60);
place = (-10, 60);
type = Stem;
},
{
horizontal = 1;
place = (465, 66);
place = (465, 66);
type = Stem;
},
{
horizontal = 1;
place = (719, -20);
target = down;
type = TopGhost;
},
{
place = (41, 128);
place = (41, 128);
type = Stem;
},
{
place = (301, 125);
place = (301, 125);
type = Stem;
},
{
horizontal = 1;
place = (-9, 29);
place = (-9, 29);
type = Stem;
},
{
horizontal = 1;
place = (471, -20);
target = down;
type = TopGhost;
},
{
place = (41, 50);
place = (41, 50);
type = Stem;
},
{
place = (293, 54);
place = (293, 54);
type = Stem;
}
);
layerId = m01;
shapes = (
{
closed = 1;
nodes = (
(293,93,l),
(282,69,o),
(255,20,o),
(184,20,cs),
(127,20,o),
(91,53,o),
(91,111,cs),
(91,181,o),
(160,222,o),
(293,255,c)
);
},
{
closed = 1;
nodes = (
(347,24,o),
(347,80,o),
(347,80,c),
(347,271,ls),
(347,390,o),
(324,471,o),
(237,471,c),
(237,471,o),
(190,472,o),
(149,452,cs),
(96,423,o),
(76,390,o),
(71,378,cs),
(66,366,o),
(69,351,o),
(78,340,cs),
(91,324,o),
(113,323,o),
(128,336,cs),
(143,350,o),
(145,373,o),
(132,388,cs),
(125,396,o),
(117,399,o),
(108,401,cs),
(103,402,o),
(111,424,o),
(157,446,cs),
(248,484,o),
(293,420,o),
(293,318,cs),
(293,264,l),
(126,220,o),
(41,186,o),
(41,95,cs),
(41,-10,o),
(154,-9,o),
(154,-9,c),
(223,-9,o),
(280,26,o),
(293,78,c),
(293,-14,o),
(362,-9,o),
(362,-9,c),
(404,-9,o),
(425,27,o),
(430,56,c),
(422,59,l),
(415,24,o),
(389,24,o),
(389,24,c)
);
},
{
closed = 1;
nodes = (
(353,516,l),
(364,516,l),
(234,704,l),
(104,516,l),
(115,516,l),
(234,643,l)
);
}
);
width = 445;
}
);
note = acircumflex;
unicode = 226;
},
{
glyphname = atilde;
kernLeft = a;
kernRight = a;
layers = (
{
hints = (
{
horizontal = 1;
place = (-9, 29);
place = (-9, 29);
type = Stem;
},
{
horizontal = 1;
place = (471, -20);
target = down;
type = TopGhost;
},
{
place = (41, 50);
place = (41, 50);
type = Stem;
},
{
place = (293, 54);
place = (293, 54);
type = Stem;
}
);
layerId = m01;
shapes = (
{
closed = 1;
nodes = (
(282,577,l),
(282,577,o),
(408,530,o),
(458,662,c),
(454,663,l),
(431,608,o),
(338,607,o),
(307,620,cs),
(197,663,l),
(197,663,o),
(71,708,o),
(22,578,c),
(25,577,l),
(53,638,o),
(141,632,o),
(173,620,cs)
);
},
{
closed = 1;
nodes = (
(293,93,l),
(282,69,o),
(255,20,o),
(184,20,cs),
(127,20,o),
(91,53,o),
(91,111,cs),
(91,181,o),
(160,222,o),
(293,255,c)
);
},
{
closed = 1;
nodes = (
(347,24,o),
(347,80,o),
(347,80,c),
(347,271,ls),
(347,390,o),
(324,471,o),
(237,471,c),
(237,471,o),
(190,472,o),
(149,452,cs),
(96,423,o),
(76,390,o),
(71,378,cs),
(66,366,o),
(69,351,o),
(78,340,cs),
(91,324,o),
(113,323,o),
(128,336,cs),
(143,350,o),
(145,373,o),
(132,388,cs),
(125,396,o),
(117,399,o),
(108,401,cs),
(103,402,o),
(111,424,o),
(157,446,cs),
(248,484,o),
(293,420,o),
(293,318,cs),
(293,264,l),
(126,220,o),
(41,186,o),
(41,95,cs),
(41,-10,o),
(154,-9,o),
(154,-9,c),
(223,-9,o),
(280,26,o),
(293,78,c),
(293,-14,o),
(362,-9,o),
(362,-9,c),
(404,-9,o),
(425,27,o),
(430,56,c),
(422,59,l),
(415,24,o),
(389,24,o),
(389,24,c)
);
}
);
width = 445;
}
);
note = atilde;
unicode = 227;
},
{
glyphname = adieresis;
kernLeft = a;
kernRight = a;
layers = (
{
hints = (
{
horizontal = 1;
place = (583, 68);
place = (583, 68);
type = Stem;
},
{
place = (117, 67);
place = (117, 67);
type = Stem;
},
{
place = (248, 67);
place = (248, 67);
type = Stem;
},
{
horizontal = 1;
place = (-9, 29);
place = (-9, 29);
type = Stem;
},
{
horizontal = 1;
place = (471, -20);
target = down;
type = TopGhost;
},
{
place = (41, 50);
place = (41, 50);
type = Stem;
},
{
place = (293, 54);
place = (293, 54);
type = Stem;
}
);
layerId = m01;
shapes = (
{
closed = 1;
nodes = (
(184,636,o),
(168,651,o),
(150,651,cs),
(131,651,o),
(117,636,o),
(117,616,cs),
(117,598,o),
(131,583,o),
(150,583,cs),
(168,583,o),
(184,598,o),
(184,616,cs)
);
},
{
closed = 1;
nodes = (
(315,636,o),
(299,651,o),
(281,651,cs),
(262,651,o),
(248,636,o),
(248,616,cs),
(248,598,o),
(262,583,o),
(281,583,cs),
(299,583,o),
(315,598,o),
(315,616,cs)
);
},
{
closed = 1;
nodes = (
(293,93,l),
(282,69,o),
(255,20,o),
(184,20,cs),
(127,20,o),
(91,53,o),
(91,111,cs),
(91,181,o),
(160,222,o),
(293,255,c)
);
},
{
closed = 1;
nodes = (
(347,24,o),
(347,80,o),
(347,80,c),
(347,271,ls),
(347,390,o),
(324,471,o),
(237,471,c),
(237,471,o),
(190,472,o),
(149,452,cs),
(96,423,o),
(76,390,o),
(71,378,cs),
(66,366,o),
(69,351,o),
(78,340,cs),
(91,324,o),
(113,323,o),
(128,336,cs),
(143,350,o),
(145,373,o),
(132,388,cs),
(125,396,o),
(117,399,o),
(108,401,cs),
(103,402,o),
(111,424,o),
(157,446,cs),
(248,484,o),
(293,420,o),
(293,318,cs),
(293,264,l),
(126,220,o),
(41,186,o),
(41,95,cs),
(41,-10,o),
(154,-9,o),
(154,-9,c),
(223,-9,o),
(280,26,o),
(293,78,c),
(293,-14,o),
(362,-9,o),
(362,-9,c),
(404,-9,o),
(425,27,o),
(430,56,c),
(422,59,l),
(415,24,o),
(389,24,o),
(389,24,c)
);
}
);
width = 445;
}
);
note = adieresis;
unicode = 228;
},
{
glyphname = aring;
kernLeft = a;
kernRight = a;
layers = (
{
hints = (
{
horizontal = 1;
place = (546, 23);
place = (546, 23);
type = Stem;
},
{
horizontal = 1;
place = (708, 23);
place = (708, 23);
type = Stem;
},
{
place = (124, 23);
place = (124, 23);
type = Stem;
},
{
place = (285, 23);
place = (285, 23);
type = Stem;
},
{
horizontal = 1;
place = (-9, 29);
place = (-9, 29);
type = Stem;
},
{
horizontal = 1;
place = (471, -20);
target = down;
type = TopGhost;
},
{
place = (41, 50);
place = (41, 50);
type = Stem;
},
{
place = (293, 54);
place = (293, 54);
type = Stem;
}
);
layerId = m01;
shapes = (
{
closed = 1;
nodes = (
(267,546,o),
(308,588,o),
(308,638,cs),
(308,689,o),
(267,731,o),
(216,731,cs),
(165,731,o),
(124,689,o),
(124,638,cs),
(124,588,o),
(165,546,o),
(216,546,cs)
);
},
{
closed = 1;
nodes = (
(254,708,o),
(285,677,o),
(285,638,cs),
(285,600,o),
(254,569,o),
(216,569,cs),
(177,569,o),
(147,600,o),
(147,638,cs),
(147,677,o),
(177,708,o),
(216,708,cs)
);
},
{
closed = 1;
nodes = (
(293,93,l),
(282,69,o),
(255,20,o),
(184,20,cs),
(127,20,o),
(91,53,o),
(91,111,cs),
(91,181,o),
(160,222,o),
(293,255,c)
);
},
{
closed = 1;
nodes = (
(347,24,o),
(347,80,o),
(347,80,c),
(347,271,ls),
(347,390,o),
(324,471,o),
(237,471,c),
(237,471,o),
(190,472,o),
(149,452,cs),
(96,423,o),
(76,390,o),
(71,378,cs),
(66,366,o),
(69,351,o),
(78,340,cs),
(91,324,o),
(113,323,o),
(128,336,cs),
(143,350,o),
(145,373,o),
(132,388,cs),
(125,396,o),
(117,399,o),
(108,401,cs),
(103,402,o),
(111,424,o),
(157,446,cs),
(248,484,o),
(293,420,o),
(293,318,cs),
(293,264,l),
(126,220,o),
(41,186,o),
(41,95,cs),
(41,-10,o),
(154,-9,o),
(154,-9,c),
(223,-9,o),
(280,26,o),
(293,78,c),
(293,-14,o),
(362,-9,o),
(362,-9,c),
(404,-9,o),
(425,27,o),
(430,56,c),
(422,59,l),
(415,24,o),
(389,24,o),
(389,24,c)
);
}
);
width = 445;
}
);
note = aring;
unicode = 229;
},
{
glyphname = ae;
kernLeft = a;
kernRight = a;
layers = (
{
hints = (
{
horizontal = 1;
place = (-9, 29);
place = (-9, 29);
type = Stem;
},
{
horizontal = 1;
place = (245, -20);
target = down;
type = TopGhost;
},
{
horizontal = 1;
place = (462, -20);
target = down;
type = TopGhost;
},
{
place = (40, 50);
place = (40, 50);
type = Stem;
},
{
place = (276, 56);
place = (276, 56);
type = Stem;
},
{
place = (579, 52);
place = (579, 52);
type = Stem;
},
{
horizontal = 1;
place = (236, 235);
place = (236, 235);
type = Stem;
}
);
layerId = m01;
shapes = (
{
closed = 1;
nodes = (
(501,462,o),
(579,423,o),
(579,245,c),
(332,245,l),
(332,413,o),
(401,462,o),
(459,462,cs)
);
},
{
closed = 1;
nodes = (
(126,20,o),
(90,52,o),
(90,112,cs),
(90,200,o),
(242,236,o),
(276,247,c),
(276,222,ls),
(276,192,o),
(281,132,o),
(288,106,c),
(274,62,o),
(240,20,o),
(183,20,cs)
);
},
{
closed = 1;
nodes = (
(371,13,o),
(331,81,o),
(331,236,c),
(631,236,l),
(631,408,o),
(551,471,o),
(459,471,cs),
(394,471,o),
(355,444,o),
(317,392,c),
(302,439,o),
(272,471,o),
(220,471,c),
(220,471,o),
(183,471,o),
(142,451,cs),
(89,422,o),
(71,390,o),
(66,378,cs),
(61,366,o),
(64,351,o),
(73,340,cs),
(86,324,o),
(108,323,o),
(123,336,cs),
(138,350,o),
(140,373,o),
(127,388,cs),
(120,396,o),
(111,400,o),
(103,401,cs),
(98,402,o),
(106,424,o),
(152,446,cs),
(243,484,o),
(276,420,o),
(276,318,cs),
(276,256,l),
(120,212,o),
(40,178,o),
(40,95,cs),
(40,-9,o),
(153,-9,o),
(153,-9,c),
(221,-9,o),
(276,24,o),
(292,97,c),
(318,26,o),
(374,-9,o),
(453,-9,cs),
(560,-9,o),
(603,77,o),
(610,114,c),
(604,118,l),
(592,73,o),
(545,13,o),
(475,13,cs)
);
}
);
width = 672;
}
);
note = ae;
unicode = 230;
},
{
glyphname = ccedilla;
kernLeft = c;
kernRight = c;
layers = (
{
hints = (
{
horizontal = 1;
place = (-9, 22);
place = (-9, 22);
type = Stem;
},
{
horizontal = 1;
place = (462, -20);
target = down;
type = TopGhost;
},
{
place = (45, 60);
place = (45, 60);
type = Stem;
},
{
horizontal = 1;
place = (471, -20);
target = down;
type = TopGhost;
},
{
horizontal = 1;
place = (-222, 235);
place = (-222, 235);
type = Stem;
}
);
layerId = m01;
shapes = (
{
closed = 1;
nodes = (
(424,127,l),
(411,79,o),
(366,13,o),
(270,13,cs),
(197,13,o),
(105,73,o),
(105,232,cs),
(105,433,o),
(228,462,o),
(272,462,cs),
(365,462,o),
(399,421,o),
(389,424,cs),
(384,426,o),
(374,426,o),
(364,422,cs),
(347,414,o),
(341,394,o),
(350,376,cs),
(357,360,o),
(380,356,o),
(396,363,cs),
(408,370,o),
(414,381,o),
(414,394,cs),
(414,411,o),
(397,471,o),
(272,471,cs),
(137,471,o),
(45,358,o),
(45,228,cs),
(45,61,o),
(154,-3,o),
(244,-9,c),
(218,-85,l),
(311,-61,o),
(331,-120,o),
(331,-154,cs),
(331,-199,o),
(299,-219,o),
(262,-219,cs),
(232,-220,o),
(218,-207,o),
(221,-207,cs),
(225,-207,o),
(229,-205,o),
(233,-200,cs),
(238,-192,o),
(236,-181,o),
(227,-176,cs),
(219,-170,o),
(208,-172,o),
(203,-180,cs),
(199,-186,o),
(199,-194,o),
(202,-199,cs),
(205,-204,o),
(219,-223,o),
(262,-222,cs),
(296,-222,o),
(352,-216,o),
(362,-144,cs),
(368,-93,o),
(327,-45,o),
(233,-66,c),
(253,-9,l),
(260,-9,ls),
(381,-9,o),
(423,77,o),
(431,126,c)
);
}
);
width = 461;
}
);
note = ccedilla;
unicode = 231;
},
{
glyphname = egrave;
kernLeft = e;
kernRight = e;
layers = (
{
hints = (
{
horizontal = 1;
place = (-12, 24);
place = (-12, 24);
type = Stem;
},
{
horizontal = 1;
place = (242, 18);
place = (242, 18);
type = Stem;
},
{
horizontal = 1;
place = (434, 18);
place = (434, 18);
type = Stem;
},
{
horizontal = 1;
place = (720, -20);
target = down;
type = TopGhost;
},
{
place = (37, 150);
place = (37, 150);
type = Stem;
},
{
place = (313, 150);
place = (313, 150);
type = Stem;
},
{
horizontal = 1;
place = (544, 21);
target = up;
type = BottomGhost;
},
{
horizontal = 1;
place = (704, -20);
target = down;
type = TopGhost;
},
{
horizontal = 1;
place = (-9, 20);
place = (-9, 20);
type = Stem;
},
{
horizontal = 1;
place = (240, 231);
place = (240, 231);
type = Stem;
},
{
place = (37, 59);
place = (37, 59);
type = Stem;
},
{
place = (367, 50);
place = (367, 50);
type = Stem;
},
{
horizontal = 1;
place = (250, -20);
target = down;
type = TopGhost;
},
{
horizontal = 1;
place = (462, -20);
target = down;
type = TopGhost;
}
);
layerId = m01;
shapes = (
{
closed = 1;
nodes = (
(183,704,l),
(124,690,l),
(350,544,l),
(357,544,l)
);
},
{
closed = 1;
nodes = (
(166,11,o),
(96,69,o),
(96,240,c),
(417,240,l),
(417,399,o),
(326,471,o),
(238,471,cs),
(129,471,o),
(37,380,o),
(37,225,cs),
(37,78,o),
(125,-9,o),
(243,-9,cs),
(345,-9,o),
(397,73,o),
(402,115,c),
(396,116,l),
(384,64,o),
(323,11,o),
(256,11,cs)
);
},
{
closed = 1;
nodes = (
(96,250,l),
(96,405,o),
(182,462,o),
(238,462,cs),
(278,462,o),
(367,415,o),
(367,250,c)
);
}
);
width = 457;
}
);
note = egrave;
unicode = 232;
},
{
glyphname = eacute;
kernLeft = e;
kernRight = e;
layers = (
{
hints = (
{
horizontal = 1;
place = (-12, 24);
place = (-12, 24);
type = Stem;
},
{
horizontal = 1;
place = (242, 18);
place = (242, 18);
type = Stem;
},
{
horizontal = 1;
place = (434, 18);
place = (434, 18);
type = Stem;
},
{
horizontal = 1;
place = (720, -20);
target = down;
type = TopGhost;
},
{
place = (37, 150);
place = (37, 150);
type = Stem;
},
{
place = (313, 150);
place = (313, 150);
type = Stem;
},
{
horizontal = 1;
place = (544, 21);
target = up;
type = BottomGhost;
},
{
horizontal = 1;
place = (704, -20);
target = down;
type = TopGhost;
},
{
horizontal = 1;
place = (-9, 20);
place = (-9, 20);
type = Stem;
},
{
horizontal = 1;
place = (240, 231);
place = (240, 231);
type = Stem;
},
{
place = (37, 59);
place = (37, 59);
type = Stem;
},
{
place = (367, 50);
place = (367, 50);
type = Stem;
}
);
layerId = m01;
shapes = (
{
closed = 1;
nodes = (
(118,544,l),
(125,544,l),
(351,690,l),
(292,704,l)
);
},
{
closed = 1;
nodes = (
(166,11,o),
(96,69,o),
(96,240,c),
(417,240,l),
(417,399,o),
(326,471,o),
(238,471,cs),
(129,471,o),
(37,380,o),
(37,225,cs),
(37,78,o),
(125,-9,o),
(243,-9,cs),
(345,-9,o),
(397,73,o),
(402,115,c),
(396,116,l),
(384,64,o),
(323,11,o),
(256,11,cs)
);
},
{
closed = 1;
nodes = (
(96,250,l),
(96,405,o),
(182,462,o),
(238,462,cs),
(278,462,o),
(367,415,o),
(367,250,c)
);
}
);
width = 457;
}
);
note = eacute;
unicode = 233;
},
{
glyphname = ecircumflex;
kernLeft = e;
kernRight = e;
layers = (
{
hints = (
{
horizontal = 1;
place = (-8, 22);
place = (-8, 22);
type = Stem;
},
{
horizontal = 1;
place = (240, 227);
place = (240, 227);
type = Stem;
},
{
horizontal = 1;
place = (721, -20);
target = down;
type = TopGhost;
},
{
place = (37, 59);
place = (37, 59);
type = Stem;
},
{
place = (367, 50);
place = (367, 50);
type = Stem;
},
{
horizontal = 1;
place = (-9, 20);
place = (-9, 20);
type = Stem;
},
{
horizontal = 1;
place = (240, 231);
place = (240, 231);
type = Stem;
},
{
horizontal = 1;
place = (250, -20);
target = down;
type = TopGhost;
},
{
horizontal = 1;
place = (462, -20);
target = down;
type = TopGhost;
}
);
layerId = m01;
shapes = (
{
closed = 1;
nodes = (
(166,11,o),
(96,69,o),
(96,240,c),
(417,240,l),
(417,399,o),
(326,471,o),
(238,471,cs),
(129,471,o),
(37,380,o),
(37,225,cs),
(37,78,o),
(125,-9,o),
(243,-9,cs),
(345,-9,o),
(397,73,o),
(402,115,c),
(396,116,l),
(384,64,o),
(323,11,o),
(256,11,cs)
);
},
{
closed = 1;
nodes = (
(96,250,l),
(96,405,o),
(182,462,o),
(238,462,cs),
(278,462,o),
(367,415,o),
(367,250,c)
);
},
{
closed = 1;
nodes = (
(368,516,l),
(379,516,l),
(249,704,l),
(119,516,l),
(130,516,l),
(249,643,l)
);
}
);
width = 457;
}
);
note = ecircumflex;
unicode = 234;
},
{
glyphname = edieresis;
kernLeft = e;
kernRight = e;
layers = (
{
hints = (
{
horizontal = 1;
place = (583, 68);
place = (583, 68);
type = Stem;
},
{
place = (147, 67);
place = (147, 67);
type = Stem;
},
{
place = (278, 67);
place = (278, 67);
type = Stem;
},
{
horizontal = 1;
place = (-9, 20);
place = (-9, 20);
type = Stem;
},
{
horizontal = 1;
place = (240, 231);
place = (240, 231);
type = Stem;
},
{
place = (37, 59);
place = (37, 59);
type = Stem;
},
{
place = (367, 50);
place = (367, 50);
type = Stem;
},
{
horizontal = 1;
place = (250, -20);
target = down;
type = TopGhost;
},
{
horizontal = 1;
place = (462, -20);
target = down;
type = TopGhost;
}
);
layerId = m01;
shapes = (
{
closed = 1;
nodes = (
(214,636,o),
(198,651,o),
(180,651,cs),
(161,651,o),
(147,636,o),
(147,616,cs),
(147,598,o),
(161,583,o),
(180,583,cs),
(198,583,o),
(214,598,o),
(214,616,cs)
);
},
{
closed = 1;
nodes = (
(345,636,o),
(329,651,o),
(311,651,cs),
(292,651,o),
(278,636,o),
(278,616,cs),
(278,598,o),
(292,583,o),
(311,583,cs),
(329,583,o),
(345,598,o),
(345,616,cs)
);
},
{
closed = 1;
nodes = (
(166,11,o),
(96,69,o),
(96,240,c),
(417,240,l),
(417,399,o),
(326,471,o),
(238,471,cs),
(129,471,o),
(37,380,o),
(37,225,cs),
(37,78,o),
(125,-9,o),
(243,-9,cs),
(345,-9,o),
(397,73,o),
(402,115,c),
(396,116,l),
(384,64,o),
(323,11,o),
(256,11,cs)
);
},
{
closed = 1;
nodes = (
(96,250,l),
(96,405,o),
(182,462,o),
(238,462,cs),
(278,462,o),
(367,415,o),
(367,250,c)
);
}
);
width = 457;
}
);
note = edieresis;
unicode = 235;
},
{
glyphname = igrave;
kernLeft = i;
kernRight = i;
layers = (
{
hints = (
{
horizontal = 1;
place = (0, 21);
target = up;
type = BottomGhost;
},
{
horizontal = 1;
place = (471, -20);
target = down;
type = TopGhost;
},
{
place = (79, 50);
place = (79, 50);
type = Stem;
},
{
horizontal = 1;
place = (544, 21);
target = up;
type = BottomGhost;
},
{
horizontal = 1;
place = (704, -20);
target = down;
type = TopGhost;
}
);
layerId = m01;
shapes = (
{
closed = 1;
nodes = (
(129,471,l),
(29,454,l),
(29,446,l),
(71,446,o),
(79,432,o),
(79,397,cs),
(79,64,ls),
(79,13,o),
(77,20,o),
(39,9,c),
(39,0,l),
(170,0,l),
(170,9,l),
(134,18,o),
(129,9,o),
(129,64,cs)
);
},
{
closed = 1;
nodes = (
(17,704,l),
(-42,690,l),
(184,544,l),
(191,544,l)
);
}
);
width = 208;
}
);
note = igrave;
unicode = 236;
},
{
glyphname = iacute;
kernLeft = i;
kernRight = i;
layers = (
{
hints = (
{
horizontal = 1;
place = (0, 21);
target = up;
type = BottomGhost;
},
{
horizontal = 1;
place = (471, -20);
target = down;
type = TopGhost;
},
{
place = (79, 50);
place = (79, 50);
type = Stem;
},
{
horizontal = 1;
place = (544, 21);
target = up;
type = BottomGhost;
},
{
horizontal = 1;
place = (704, -20);
target = down;
type = TopGhost;
}
);
layerId = m01;
shapes = (
{
closed = 1;
nodes = (
(129,471,l),
(29,454,l),
(29,446,l),
(71,446,o),
(79,432,o),
(79,397,cs),
(79,64,ls),
(79,13,o),
(77,20,o),
(39,9,c),
(39,0,l),
(170,0,l),
(170,9,l),
(134,18,o),
(129,9,o),
(129,64,cs)
);
},
{
closed = 1;
nodes = (
(-15,544,l),
(-8,544,l),
(218,690,l),
(159,704,l)
);
}
);
width = 208;
}
);
note = iacute;
unicode = 237;
},
{
glyphname = icircumflex;
kernLeft = i;
kernRight = i;
layers = (
{
hints = (
{
horizontal = 1;
place = (0, 21);
target = up;
type = BottomGhost;
},
{
horizontal = 1;
place = (471, -20);
target = down;
type = TopGhost;
},
{
place = (79, 50);
place = (79, 50);
type = Stem;
},
{
horizontal = 1;
place = (516, 20);
place = (516, 20);
type = Stem;
},
{
horizontal = 1;
place = (683, 21);
place = (683, 21);
type = Stem;
}
);
layerId = m01;
shapes = (
{
closed = 1;
nodes = (
(129,471,l),
(29,454,l),
(29,446,l),
(71,446,o),
(79,432,o),
(79,397,cs),
(79,64,ls),
(79,13,o),
(77,20,o),
(39,9,c),
(39,0,l),
(170,0,l),
(170,9,l),
(134,18,o),
(129,9,o),
(129,64,cs)
);
},
{
closed = 1;
nodes = (
(219,516,l),
(230,516,l),
(100,704,l),
(-30,516,l),
(-19,516,l),
(100,643,l)
);
}
);
width = 208;
}
);
note = icircumflex;
unicode = 238;
},
{
glyphname = idieresis;
kernLeft = i;
kernRight = i;
layers = (
{
hints = (
{
horizontal = 1;
place = (0, 21);
target = up;
type = BottomGhost;
},
{
horizontal = 1;
place = (583, 68);
place = (583, 68);
type = Stem;
},
{
place = (-1, 67);
place = (-1, 67);
type = Stem;
},
{
place = (79, 50);
place = (79, 50);
type = Stem;
},
{
place = (130, 67);
place = (130, 67);
type = Stem;
}
);
layerId = m01;
shapes = (
{
closed = 1;
nodes = (
(66,636,o),
(50,651,o),
(32,651,cs),
(13,651,o),
(-1,636,o),
(-1,616,cs),
(-1,598,o),
(13,583,o),
(32,583,cs),
(50,583,o),
(66,598,o),
(66,616,cs)
);
},
{
closed = 1;
nodes = (
(197,636,o),
(181,651,o),
(163,651,cs),
(144,651,o),
(130,636,o),
(130,616,cs),
(130,598,o),
(144,583,o),
(163,583,cs),
(181,583,o),
(197,598,o),
(197,616,cs)
);
},
{
closed = 1;
nodes = (
(129,471,l),
(29,454,l),
(29,446,l),
(71,446,o),
(79,432,o),
(79,397,cs),
(79,64,ls),
(79,13,o),
(77,20,o),
(39,9,c),
(39,0,l),
(170,0,l),
(170,9,l),
(134,18,o),
(129,9,o),
(129,64,cs)
);
}
);
width = 208;
}
);
note = idieresis;
unicode = 239;
},
{
glyphname = eth;
layers = (
{
hints = (
{
horizontal = 1;
place = (-9, 21);
target = up;
type = BottomGhost;
},
{
horizontal = 1;
place = (415, 22);
place = (415, 22);
type = Stem;
},
{
horizontal = 1;
place = (713, -20);
target = down;
type = TopGhost;
},
{
place = (39, 65);
place = (39, 65);
type = Stem;
},
{
place = (401, 53);
place = (401, 53);
type = Stem;
},
{
horizontal = 1;
place = (704, -20);
target = down;
type = TopGhost;
},
{
horizontal = 1;
place = (0, 21);
target = up;
type = BottomGhost;
}
);
layerId = m01;
shapes = (
{
closed = 1;
nodes = (
(443,687,l),
(429,696,l),
(330,642,l),
(278,688,o),
(232,713,o),
(154,713,c),
(154,704,l),
(222,704,o),
(269,676,o),
(308,632,c),
(155,551,l),
(169,543,l),
(316,619,l),
(362,557,o),
(401,434,o),
(401,347,c),
(369,414,o),
(303,437,o),
(251,437,cs),
(122,437,o),
(48,331,o),
(39,211,cs),
(27,57,o),
(132,-9,o),
(217,-9,cs),
(389,-9,o),
(454,140,o),
(454,339,cs),
(454,454,o),
(393,568,o),
(341,631,c)
);
},
{
closed = 1;
nodes = (
(401,330,ls),
(401,97,o),
(345,0,o),
(217,0,cs),
(158,0,o),
(95,54,o),
(104,208,cs),
(111,339,o),
(165,415,o),
(262,415,cs),
(308,415,o),
(369,389,o),
(401,332,c)
);
}
);
width = 492;
}
);
note = eth;
unicode = 240;
},
{
glyphname = ntilde;
kernRight = n;
layers = (
{
hints = (
{
horizontal = 1;
place = (0, 21);
target = up;
type = BottomGhost;
},
{
horizontal = 1;
place = (444, 27);
place = (444, 27);
type = Stem;
},
{
place = (61, 50);
place = (61, 50);
type = Stem;
},
{
place = (354, 49);
place = (354, 49);
type = Stem;
}
);
layerId = m01;
shapes = (
{
closed = 1;
nodes = (
(292,577,l),
(292,577,o),
(418,530,o),
(468,662,c),
(464,663,l),
(441,608,o),
(348,607,o),
(317,620,cs),
(207,663,l),
(207,663,o),
(81,708,o),
(32,578,c),
(35,577,l),
(63,638,o),
(151,632,o),
(183,620,cs)
);
},
{
closed = 1;
nodes = (
(403,304,ls),
(403,424,o),
(337,471,o),
(253,471,cs),
(190,471,o),
(130,424,o),
(111,369,c),
(111,471,l),
(11,454,l),
(11,446,l),
(53,446,o),
(61,431,o),
(61,396,cs),
(61,64,ls),
(61,13,o),
(59,20,o),
(21,9,c),
(21,0,l),
(152,0,l),
(152,9,l),
(116,18,o),
(111,9,o),
(111,64,cs),
(111,354,l),
(127,386,o),
(166,444,o),
(230,444,cs),
(312,444,o),
(354,388,o),
(354,300,cs),
(354,64,ls),
(354,13,o),
(352,19,o),
(314,8,c),
(314,0,l),
(444,0,l),
(444,8,l),
(409,17,o),
(403,9,o),
(403,64,cs)
);
}
);
width = 468;
}
);
note = ntilde;
unicode = 241;
},
{
glyphname = ograve;
kernLeft = o;
kernRight = o;
layers = (
{
hints = (
{
horizontal = 1;
place = (544, 21);
target = up;
type = BottomGhost;
},
{
horizontal = 1;
place = (704, -20);
target = down;
type = TopGhost;
},
{
horizontal = 1;
place = (-9, 21);
target = up;
type = BottomGhost;
},
{
horizontal = 1;
place = (471, -20);
target = down;
type = TopGhost;
},
{
place = (41, 57);
place = (41, 57);
type = Stem;
},
{
place = (429, 58);
place = (429, 58);
type = Stem;
},
{
horizontal = 1;
place = (0, 21);
target = up;
type = BottomGhost;
},
{
horizontal = 1;
place = (462, -20);
target = down;
type = TopGhost;
}
);
layerId = m01;
shapes = (
{
closed = 1;
nodes = (
(208,704,l),
(149,690,l),
(375,544,l),
(382,544,l)
);
},
{
closed = 1;
nodes = (
(112,471,o),
(41,363,o),
(41,231,cs),
(41,100,o),
(112,-9,o),
(264,-9,cs),
(417,-9,o),
(487,100,o),
(487,231,cs),
(487,363,o),
(417,471,o),
(264,471,cs)
);
},
{
closed = 1;
nodes = (
(183,0,o),
(98,50,o),
(98,231,cs),
(98,412,o),
(183,462,o),
(264,462,cs),
(345,462,o),
(429,412,o),
(429,231,cs),
(429,50,o),
(345,0,o),
(264,0,cs)
);
}
);
width = 534;
}
);
note = ograve;
unicode = 242;
},
{
glyphname = oacute;
kernLeft = o;
kernRight = o;
layers = (
{
hints = (
{
horizontal = 1;
place = (-12, 18);
place = (-12, 18);
type = Stem;
},
{
horizontal = 1;
place = (434, 18);
place = (434, 18);
type = Stem;
},
{
horizontal = 1;
place = (720, -20);
target = down;
type = TopGhost;
},
{
place = (40, 156);
place = (40, 156);
type = Stem;
},
{
place = (360, 156);
place = (360, 156);
type = Stem;
},
{
horizontal = 1;
place = (544, 21);
target = up;
type = BottomGhost;
},
{
horizontal = 1;
place = (704, -20);
target = down;
type = TopGhost;
},
{
horizontal = 1;
place = (-9, 21);
target = up;
type = BottomGhost;
},
{
horizontal = 1;
place = (471, -20);
target = down;
type = TopGhost;
},
{
place = (41, 57);
place = (41, 57);
type = Stem;
},
{
place = (429, 58);
place = (429, 58);
type = Stem;
}
);
layerId = m01;
shapes = (
{
closed = 1;
nodes = (
(152,544,l),
(159,544,l),
(385,690,l),
(326,704,l)
);
},
{
closed = 1;
nodes = (
(112,471,o),
(41,363,o),
(41,231,cs),
(41,100,o),
(112,-9,o),
(264,-9,cs),
(417,-9,o),
(487,100,o),
(487,231,cs),
(487,363,o),
(417,471,o),
(264,471,cs)
);
},
{
closed = 1;
nodes = (
(183,0,o),
(98,50,o),
(98,231,cs),
(98,412,o),
(183,462,o),
(264,462,cs),
(345,462,o),
(429,412,o),
(429,231,cs),
(429,50,o),
(345,0,o),
(264,0,cs)
);
}
);
width = 534;
}
);
note = oacute;
unicode = 243;
},
{
glyphname = ocircumflex;
kernLeft = o;
kernRight = o;
layers = (
{
hints = (
{
horizontal = 1;
place = (-8, 21);
target = up;
type = BottomGhost;
},
{
horizontal = 1;
place = (721, -20);
target = down;
type = TopGhost;
},
{
place = (41, 57);
place = (41, 57);
type = Stem;
},
{
place = (429, 58);
place = (429, 58);
type = Stem;
},
{
horizontal = 1;
place = (516, 20);
place = (516, 20);
type = Stem;
},
{
horizontal = 1;
place = (683, 21);
place = (683, 21);
type = Stem;
},
{
horizontal = 1;
place = (-9, 21);
target = up;
type = BottomGhost;
},
{
horizontal = 1;
place = (471, -20);
target = down;
type = TopGhost;
},
{
horizontal = 1;
place = (0, 21);
target = up;
type = BottomGhost;
},
{
horizontal = 1;
place = (462, -20);
target = down;
type = TopGhost;
}
);
layerId = m01;
shapes = (
{
closed = 1;
nodes = (
(382,516,l),
(393,516,l),
(263,704,l),
(133,516,l),
(144,516,l),
(263,643,l)
);
},
{
closed = 1;
nodes = (
(112,471,o),
(41,363,o),
(41,231,cs),
(41,100,o),
(112,-9,o),
(264,-9,cs),
(417,-9,o),
(487,100,o),
(487,231,cs),
(487,363,o),
(417,471,o),
(264,471,cs)
);
},
{
closed = 1;
nodes = (
(183,0,o),
(98,50,o),
(98,231,cs),
(98,412,o),
(183,462,o),
(264,462,cs),
(345,462,o),
(429,412,o),
(429,231,cs),
(429,50,o),
(345,0,o),
(264,0,cs)
);
}
);
width = 534;
}
);
note = ocircumflex;
unicode = 244;
},
{
glyphname = otilde;
kernLeft = o;
kernRight = o;
layers = (
{
hints = (
{
horizontal = 1;
place = (-9, 21);
target = up;
type = BottomGhost;
},
{
horizontal = 1;
place = (471, -20);
target = down;
type = TopGhost;
},
{
place = (41, 57);
place = (41, 57);
type = Stem;
},
{
place = (429, 58);
place = (429, 58);
type = Stem;
},
{
horizontal = 1;
place = (0, 21);
target = up;
type = BottomGhost;
},
{
horizontal = 1;
place = (462, -20);
target = down;
type = TopGhost;
}
);
layerId = m01;
shapes = (
{
closed = 1;
nodes = (
(322,577,l),
(322,577,o),
(448,530,o),
(498,662,c),
(494,663,l),
(471,608,o),
(378,607,o),
(347,620,cs),
(237,663,l),
(237,663,o),
(111,708,o),
(62,578,c),
(65,577,l),
(93,638,o),
(181,632,o),
(213,620,cs)
);
},
{
closed = 1;
nodes = (
(112,471,o),
(41,363,o),
(41,231,cs),
(41,100,o),
(112,-9,o),
(264,-9,cs),
(417,-9,o),
(487,100,o),
(487,231,cs),
(487,363,o),
(417,471,o),
(264,471,cs)
);
},
{
closed = 1;
nodes = (
(183,0,o),
(98,50,o),
(98,231,cs),
(98,412,o),
(183,462,o),
(264,462,cs),
(345,462,o),
(429,412,o),
(429,231,cs),
(429,50,o),
(345,0,o),
(264,0,cs)
);
}
);
width = 534;
}
);
note = otilde;
unicode = 245;
},
{
glyphname = odieresis;
kernLeft = o;
kernRight = o;
layers = (
{
hints = (
{
horizontal = 1;
place = (583, 68);
place = (583, 68);
type = Stem;
},
{
place = (168, 67);
place = (168, 67);
type = Stem;
},
{
place = (299, 67);
place = (299, 67);
type = Stem;
},
{
horizontal = 1;
place = (-9, 21);
target = up;
type = BottomGhost;
},
{
horizontal = 1;
place = (471, -20);
target = down;
type = TopGhost;
},
{
place = (41, 57);
place = (41, 57);
type = Stem;
},
{
place = (429, 58);
place = (429, 58);
type = Stem;
},
{
horizontal = 1;
place = (0, 21);
target = up;
type = BottomGhost;
},
{
horizontal = 1;
place = (462, -20);
target = down;
type = TopGhost;
}
);
layerId = m01;
shapes = (
{
closed = 1;
nodes = (
(235,636,o),
(219,651,o),
(201,651,cs),
(182,651,o),
(168,636,o),
(168,616,cs),
(168,598,o),
(182,583,o),
(201,583,cs),
(219,583,o),
(235,598,o),
(235,616,cs)
);
},
{
closed = 1;
nodes = (
(366,636,o),
(350,651,o),
(332,651,cs),
(313,651,o),
(299,636,o),
(299,616,cs),
(299,598,o),
(313,583,o),
(332,583,cs),
(350,583,o),
(366,598,o),
(366,616,cs)
);
},
{
closed = 1;
nodes = (
(112,471,o),
(41,363,o),
(41,231,cs),
(41,100,o),
(112,-9,o),
(264,-9,cs),
(417,-9,o),
(487,100,o),
(487,231,cs),
(487,363,o),
(417,471,o),
(264,471,cs)
);
},
{
closed = 1;
nodes = (
(183,0,o),
(98,50,o),
(98,231,cs),
(98,412,o),
(183,462,o),
(264,462,cs),
(345,462,o),
(429,412,o),
(429,231,cs),
(429,50,o),
(345,0,o),
(264,0,cs)
);
}
);
width = 534;
}
);
note = odieresis;
unicode = 246;
},
{
glyphname = divide;
layers = (
{
hints = (
{
horizontal = 1;
place = (18, 85);
place = (18, 85);
type = Stem;
},
{
horizontal = 1;
place = (257, 38);
place = (257, 38);
type = Stem;
},
{
horizontal = 1;
place = (451, 85);
place = (451, 85);
type = Stem;
},
{
place = (270, 85);
place = (270, 85);
type = Stem;
}
);
layerId = m01;
shapes = (
{
closed = 1;
nodes = (
(581,257,l),
(581,295,l),
(45,295,l),
(45,257,l)
);
},
{
closed = 1;
nodes = (
(355,517,o),
(336,536,o),
(313,536,cs),
(289,536,o),
(270,517,o),
(270,493,cs),
(270,470,o),
(289,451,o),
(313,451,cs),
(336,451,o),
(355,470,o),
(355,493,cs)
);
},
{
closed = 1;
nodes = (
(355,84,o),
(336,103,o),
(313,103,cs),
(289,103,o),
(270,84,o),
(270,60,cs),
(270,37,o),
(289,18,o),
(313,18,cs),
(336,18,o),
(355,37,o),
(355,60,cs)
);
}
);
width = 625;
}
);
note = divide;
unicode = 247;
},
{
glyphname = oslash;
kernLeft = o;
kernRight = o;
layers = (
{
hints = (
{
horizontal = 1;
place = (-67, 21);
target = up;
type = BottomGhost;
},
{
horizontal = 1;
place = (-9, 21);
target = up;
type = BottomGhost;
},
{
horizontal = 1;
place = (471, -20);
target = down;
type = TopGhost;
},
{
horizontal = 1;
place = (525, -20);
target = down;
type = TopGhost;
},
{
place = (41, 57);
place = (41, 57);
type = Stem;
},
{
place = (429, 58);
place = (429, 58);
type = Stem;
},
{
horizontal = 1;
place = (0, 21);
target = up;
type = BottomGhost;
},
{
horizontal = 1;
place = (462, -20);
target = down;
type = TopGhost;
}
);
layerId = m01;
shapes = (
{
closed = 1;
nodes = (
(434,525,l),
(419,525,l),
(375,446,l),
(345,462,o),
(307,471,o),
(264,471,cs),
(112,471,o),
(41,361,o),
(41,229,cs),
(41,141,o),
(73,64,o),
(141,23,c),
(91,-67,l),
(107,-67,l),
(153,16,l),
(183,1,o),
(220,-9,o),
(264,-9,cs),
(417,-9,o),
(487,98,o),
(487,229,cs),
(487,319,o),
(456,400,o),
(387,440,c)
);
},
{
closed = 1;
nodes = (
(98,410,o),
(183,462,o),
(264,462,cs),
(299,462,o),
(334,452,o),
(363,427,c),
(153,44,l),
(120,79,o),
(98,136,o),
(98,229,cs)
);
},
{
closed = 1;
nodes = (
(229,0,o),
(192,9,o),
(163,35,c),
(374,417,l),
(406,383,o),
(429,323,o),
(429,229,cs),
(429,48,o),
(345,0,o),
(264,0,cs)
);
}
);
width = 535;
}
);
note = oslash;
unicode = 248;
},
{
glyphname = ugrave;
kernLeft = u;
layers = (
{
hints = (
{
horizontal = 1;
place = (-8, 72);
place = (-8, 72);
type = Stem;
},
{
horizontal = 1;
place = (698, -20);
target = down;
type = TopGhost;
},
{
place = (71, 124);
place = (71, 124);
type = Stem;
},
{
place = (366, 125);
place = (366, 125);
type = Stem;
},
{
horizontal = 1;
place = (544, 21);
target = up;
type = BottomGhost;
},
{
horizontal = 1;
place = (704, -20);
target = down;
type = TopGhost;
},
{
horizontal = 1;
place = (-9, 26);
place = (-9, 26);
type = Stem;
},
{
horizontal = 1;
place = (471, -20);
target = down;
type = TopGhost;
},
{
place = (73, 48);
place = (73, 48);
type = Stem;
},
{
place = (363, 50);
place = (363, 50);
type = Stem;
}
);
layerId = m01;
shapes = (
{
closed = 1;
nodes = (
(197,704,l),
(138,690,l),
(364,544,l),
(371,544,l)
);
},
{
closed = 1;
nodes = (
(413,471,l),
(316,453,l),
(316,445,l),
(363,445,o),
(363,444,o),
(363,383,cs),
(363,106,l),
(349,62,o),
(314,17,o),
(243,17,cs),
(185,17,o),
(121,48,o),
(121,143,cs),
(121,471,l),
(17,453,l),
(17,445,l),
(73,445,o),
(73,445,o),
(73,376,cs),
(73,140,ls),
(73,11,o),
(167,-9,o),
(232,-9,cs),
(304,-9,o),
(352,36,o),
(363,85,c),
(363,3,l),
(363,3,o),
(362,-13,o),
(384,-8,cs),
(464,5,l),
(464,13,l),
(422,18,o),
(413,27,o),
(413,75,cs)
);
}
);
width = 482;
}
);
note = ugrave;
unicode = 249;
},
{
glyphname = uacute;
kernLeft = u;
layers = (
{
hints = (
{
horizontal = 1;
place = (-8, 72);
place = (-8, 72);
type = Stem;
},
{
horizontal = 1;
place = (698, -20);
target = down;
type = TopGhost;
},
{
place = (71, 124);
place = (71, 124);
type = Stem;
},
{
place = (366, 125);
place = (366, 125);
type = Stem;
},
{
horizontal = 1;
place = (544, 21);
target = up;
type = BottomGhost;
},
{
horizontal = 1;
place = (704, -20);
target = down;
type = TopGhost;
}
);
layerId = m01;
shapes = (
{
closed = 1;
nodes = (
(122,544,l),
(129,544,l),
(355,690,l),
(296,704,l)
);
},
{
closed = 1;
nodes = (
(413,471,l),
(316,453,l),
(316,445,l),
(363,445,o),
(363,444,o),
(363,383,cs),
(363,106,l),
(349,62,o),
(314,17,o),
(243,17,cs),
(185,17,o),
(121,48,o),
(121,143,cs),
(121,471,l),
(17,453,l),
(17,445,l),
(73,445,o),
(73,445,o),
(73,376,cs),
(73,140,ls),
(73,11,o),
(167,-9,o),
(232,-9,cs),
(304,-9,o),
(352,36,o),
(363,85,c),
(363,3,l),
(363,3,o),
(362,-13,o),
(384,-8,cs),
(464,5,l),
(464,13,l),
(422,18,o),
(413,27,o),
(413,75,cs)
);
}
);
width = 482;
}
);
note = uacute;
unicode = 250;
},
{
glyphname = ucircumflex;
kernLeft = u;
layers = (
{
hints = (
{
horizontal = 1;
place = (-8, 72);
place = (-8, 72);
type = Stem;
},
{
horizontal = 1;
place = (719, -20);
target = down;
type = TopGhost;
},
{
place = (71, 124);
place = (71, 124);
type = Stem;
},
{
place = (366, 125);
place = (366, 125);
type = Stem;
},
{
horizontal = 1;
place = (-9, 26);
place = (-9, 26);
type = Stem;
},
{
horizontal = 1;
place = (471, -20);
target = down;
type = TopGhost;
},
{
place = (73, 48);
place = (73, 48);
type = Stem;
},
{
place = (363, 50);
place = (363, 50);
type = Stem;
}
);
layerId = m01;
shapes = (
{
closed = 1;
nodes = (
(413,471,l),
(316,453,l),
(316,445,l),
(363,445,o),
(363,444,o),
(363,383,cs),
(363,106,l),
(349,62,o),
(314,17,o),
(243,17,cs),
(185,17,o),
(121,48,o),
(121,143,cs),
(121,471,l),
(17,453,l),
(17,445,l),
(73,445,o),
(73,445,o),
(73,376,cs),
(73,140,ls),
(73,11,o),
(167,-9,o),
(232,-9,cs),
(304,-9,o),
(352,36,o),
(363,85,c),
(363,3,l),
(363,3,o),
(362,-13,o),
(384,-8,cs),
(464,5,l),
(464,13,l),
(422,18,o),
(413,27,o),
(413,75,cs)
);
},
{
closed = 1;
nodes = (
(357,516,l),
(368,516,l),
(238,704,l),
(108,516,l),
(119,516,l),
(238,643,l)
);
}
);
width = 482;
}
);
note = ucircumflex;
unicode = 251;
},
{
glyphname = udieresis;
kernLeft = u;
layers = (
{
hints = (
{
horizontal = 1;
place = (583, 68);
place = (583, 68);
type = Stem;
},
{
place = (137, 67);
place = (137, 67);
type = Stem;
},
{
place = (268, 67);
place = (268, 67);
type = Stem;
},
{
horizontal = 1;
place = (-9, 26);
place = (-9, 26);
type = Stem;
},
{
horizontal = 1;
place = (471, -20);
target = down;
type = TopGhost;
},
{
place = (73, 48);
place = (73, 48);
type = Stem;
},
{
place = (363, 50);
place = (363, 50);
type = Stem;
}
);
layerId = m01;
shapes = (
{
closed = 1;
nodes = (
(204,636,o),
(188,651,o),
(170,651,cs),
(151,651,o),
(137,636,o),
(137,616,cs),
(137,598,o),
(151,583,o),
(170,583,cs),
(188,583,o),
(204,598,o),
(204,616,cs)
);
},
{
closed = 1;
nodes = (
(335,636,o),
(319,651,o),
(301,651,cs),
(282,651,o),
(268,636,o),
(268,616,cs),
(268,598,o),
(282,583,o),
(301,583,cs),
(319,583,o),
(335,598,o),
(335,616,cs)
);
},
{
closed = 1;
nodes = (
(413,471,l),
(316,453,l),
(316,445,l),
(363,445,o),
(363,444,o),
(363,383,cs),
(363,106,l),
(349,62,o),
(314,17,o),
(243,17,cs),
(185,17,o),
(121,48,o),
(121,143,cs),
(121,471,l),
(17,453,l),
(17,445,l),
(73,445,o),
(73,445,o),
(73,376,cs),
(73,140,ls),
(73,11,o),
(167,-9,o),
(232,-9,cs),
(304,-9,o),
(352,36,o),
(363,85,c),
(363,3,l),
(363,3,o),
(362,-13,o),
(384,-8,cs),
(464,5,l),
(464,13,l),
(422,18,o),
(413,27,o),
(413,75,cs)
);
}
);
width = 482;
}
);
note = udieresis;
unicode = 252;
},
{
glyphname = yacute;
kernLeft = y;
kernRight = y;
layers = (
{
hints = (
{
horizontal = 1;
place = (462, -20);
target = down;
type = TopGhost;
},
{
horizontal = 1;
place = (544, 21);
target = up;
type = BottomGhost;
},
{
horizontal = 1;
place = (704, -20);
target = down;
type = TopGhost;
}
);
layerId = m01;
shapes = (
{
closed = 1;
nodes = (
(320,462,l),
(320,454,l),
(436,456,o),
(377,292,o),
(377,292,c),
(297,63,l),
(155,370,l),
(155,370,o),
(112,454,o),
(189,454,c),
(189,462,l),
(11,462,l),
(11,454,l),
(27,452,o),
(65,444,o),
(89,392,c),
(89,392,o),
(97,384,o),
(274,0,c),
(222,-150,ls),
(210,-183,o),
(191,-204,o),
(187,-187,cs),
(185,-179,o),
(178,-169,o),
(168,-165,cs),
(150,-157,o),
(129,-165,o),
(120,-184,cs),
(113,-202,o),
(120,-223,o),
(139,-232,cs),
(152,-238,o),
(171,-235,o),
(181,-227,cs),
(191,-219,o),
(214,-200,o),
(229,-153,cs),
(386,290,ls),
(439,439,o),
(462,454,o),
(511,454,c),
(511,462,l)
);
},
{
closed = 1;
nodes = (
(164,544,l),
(171,544,l),
(397,690,l),
(338,704,l)
);
}
);
width = 526;
}
);
note = yacute;
unicode = 253;
},
{
glyphname = thorn;
kernRight = b;
layers = (
{
hints = (
{
horizontal = 1;
place = (-265, 21);
target = up;
type = BottomGhost;
},
{
horizontal = 1;
place = (0, 21);
target = up;
type = BottomGhost;
},
{
horizontal = 1;
place = (448, 23);
place = (448, 23);
type = Stem;
},
{
horizontal = 1;
place = (705, -20);
target = down;
type = TopGhost;
},
{
horizontal = 1;
place = (730, -20);
target = down;
type = TopGhost;
},
{
place = (66, 50);
place = (66, 50);
type = Stem;
},
{
place = (402, 66);
place = (402, 66);
type = Stem;
},
{
horizontal = 1;
place = (-9, 21);
target = up;
type = BottomGhost;
}
);
layerId = m01;
shapes = (
{
closed = 1;
nodes = (
(167,0,o),
(119,53,o),
(116,130,cs),
(116,323,l),
(120,400,o),
(168,448,o),
(242,448,cs),
(334,448,o),
(402,364,o),
(402,208,cs),
(402,39,o),
(302,0,o),
(242,0,cs)
);
},
{
closed = 1;
nodes = (
(206,471,o),
(145,444,o),
(116,397,c),
(116,730,l),
(16,713,l),
(16,705,l),
(58,705,o),
(66,690,o),
(66,655,cs),
(66,-201,ls),
(66,-252,o),
(64,-245,o),
(26,-256,c),
(26,-265,l),
(157,-265,l),
(157,-256,l),
(121,-247,o),
(116,-256,o),
(116,-201,cs),
(116,36,l),
(149,9,o),
(191,-9,o),
(246,-9,cs),
(373,-9,o),
(468,77,o),
(468,227,cs),
(468,347,o),
(415,471,o),
(261,471,cs)
);
}
);
width = 512;
}
);
note = thorn;
unicode = 254;
},
{
glyphname = ydieresis;
kernLeft = y;
kernRight = y;
layers = (
{
hints = (
{
horizontal = 1;
place = (462, -20);
target = down;
type = TopGhost;
},
{
horizontal = 1;
place = (583, 68);
place = (583, 68);
type = Stem;
},
{
place = (168, 67);
place = (168, 67);
type = Stem;
},
{
place = (299, 67);
place = (299, 67);
type = Stem;
},
{
horizontal = 1;
place = (454, 197);
place = (454, 197);
type = Stem;
}
);
layerId = m01;
shapes = (
{
closed = 1;
nodes = (
(235,636,o),
(219,651,o),
(201,651,cs),
(182,651,o),
(168,636,o),
(168,616,cs),
(168,598,o),
(182,583,o),
(201,583,cs),
(219,583,o),
(235,598,o),
(235,616,cs)
);
},
{
closed = 1;
nodes = (
(366,636,o),
(350,651,o),
(332,651,cs),
(313,651,o),
(299,636,o),
(299,616,cs),
(299,598,o),
(313,583,o),
(332,583,cs),
(350,583,o),
(366,598,o),
(366,616,cs)
);
},
{
closed = 1;
nodes = (
(320,462,l),
(320,454,l),
(436,456,o),
(377,292,o),
(377,292,c),
(297,63,l),
(155,370,l),
(155,370,o),
(112,454,o),
(189,454,c),
(189,462,l),
(11,462,l),
(11,454,l),
(27,452,o),
(65,444,o),
(89,392,c),
(89,392,o),
(97,384,o),
(274,0,c),
(222,-150,ls),
(210,-183,o),
(191,-204,o),
(187,-187,cs),
(185,-179,o),
(178,-169,o),
(168,-165,cs),
(150,-157,o),
(129,-165,o),
(120,-184,cs),
(113,-202,o),
(120,-223,o),
(139,-232,cs),
(152,-238,o),
(171,-235,o),
(181,-227,cs),
(191,-219,o),
(214,-200,o),
(229,-153,cs),
(386,290,ls),
(439,439,o),
(462,454,o),
(511,454,c),
(511,462,l)
);
}
);
width = 526;
}
);
note = ydieresis;
unicode = 255;
},
{
glyphname = Abreve;
layers = (
{
hints = (
{
horizontal = 1;
place = (0, 239);
place = (0, 239);
type = Stem;
},
{
horizontal = 1;
place = (704, -20);
target = down;
type = TopGhost;
},
{
horizontal = 1;
place = (230, -20);
target = down;
type = TopGhost;
},
{
horizontal = 1;
place = (766, 40);
place = (766, 40);
type = Stem;
},
{
horizontal = 1;
place = (899, -20);
target = down;
type = TopGhost;
},
{
place = (208, 249);
place = (208, 249);
type = Stem;
}
);
layerId = m01;
shapes = (
{
closed = 1;
nodes = (
(333,704,l),
(329,704,l),
(167,250,ls),
(92,26,o),
(67,9,o),
(17,9,c),
(17,0,l),
(217,0,l),
(217,9,l),
(97,9,o),
(122,70,o),
(177,230,c),
(458,230,l),
(497,128,ls),
(544,16,o),
(512,9,o),
(482,9,c),
(482,0,l),
(652,0,l),
(652,9,l),
(622,11,o),
(604,19,o),
(572,99,cs)
);
},
{
closed = 1;
nodes = (
(180,239,l),
(313,610,l),
(455,239,l)
);
},
{
closed = 1;
nodes = (
(230,806,o),
(211,862,o),
(211,899,c),
(208,899,l),
(208,823,o),
(237,766,o),
(334,766,cs),
(429,766,o),
(457,823,o),
(457,899,c),
(455,899,l),
(455,862,o),
(435,806,o),
(334,806,cs)
);
}
);
width = 666;
}
);
note = Abreve;
unicode = 258;
},
{
glyphname = abreve;
layers = (
{
hints = (
{
horizontal = 1;
place = (-9, 29);
place = (-9, 29);
type = Stem;
},
{
horizontal = 1;
place = (471, -20);
target = down;
type = TopGhost;
},
{
place = (41, 50);
place = (41, 50);
type = Stem;
},
{
place = (293, 54);
place = (293, 54);
type = Stem;
},
{
horizontal = 1;
place = (568, 40);
place = (568, 40);
type = Stem;
},
{
horizontal = 1;
place = (701, -20);
target = down;
type = TopGhost;
},
{
place = (106, 249);
place = (106, 249);
type = Stem;
}
);
layerId = m01;
shapes = (
{
closed = 1;
nodes = (
(293,93,l),
(282,69,o),
(255,20,o),
(184,20,cs),
(127,20,o),
(91,53,o),
(91,111,cs),
(91,181,o),
(160,222,o),
(293,255,c)
);
},
{
closed = 1;
nodes = (
(347,24,o),
(347,80,o),
(347,80,c),
(347,271,ls),
(347,390,o),
(324,471,o),
(237,471,c),
(237,471,o),
(190,472,o),
(149,452,cs),
(96,423,o),
(76,390,o),
(71,378,cs),
(66,366,o),
(69,351,o),
(78,340,cs),
(91,324,o),
(113,323,o),
(128,336,cs),
(143,350,o),
(145,373,o),
(132,388,cs),
(125,396,o),
(117,399,o),
(108,401,cs),
(103,402,o),
(111,424,o),
(157,446,cs),
(248,484,o),
(293,420,o),
(293,318,cs),
(293,264,l),
(126,220,o),
(41,186,o),
(41,95,cs),
(41,-10,o),
(154,-9,o),
(154,-9,c),
(223,-9,o),
(280,26,o),
(293,78,c),
(293,-14,o),
(362,-9,o),
(362,-9,c),
(404,-9,o),
(425,27,o),
(430,56,c),
(422,59,l),
(415,24,o),
(389,24,o),
(389,24,c)
);
},
{
closed = 1;
nodes = (
(128,608,o),
(109,664,o),
(109,701,c),
(106,701,l),
(106,625,o),
(135,568,o),
(232,568,cs),
(327,568,o),
(355,625,o),
(355,701,c),
(353,701,l),
(353,664,o),
(333,608,o),
(232,608,cs)
);
}
);
width = 445;
}
);
note = abreve;
unicode = 259;
},
{
glyphname = Aogonek;
layers = (
{
hints = (
{
horizontal = 1;
place = (-194, 18);
place = (-194, 18);
type = Stem;
},
{
horizontal = 1;
place = (0, 9);
place = (0, 9);
type = Stem;
},
{
horizontal = 1;
place = (230, 9);
place = (230, 9);
type = Stem;
},
{
horizontal = 1;
place = (704, -20);
target = down;
type = TopGhost;
},
{
place = (17, 114);
place = (17, 114);
type = Stem;
},
{
place = (644, 8);
place = (644, 8);
type = Stem;
},
{
place = (521, 131);
place = (521, 131);
type = Stem;
}
);
layerId = m01;
shapes = (
{
closed = 1;
nodes = (
(333,704,l),
(329,704,l),
(167,250,ls),
(92,26,o),
(67,9,o),
(17,9,c),
(17,0,l),
(217,0,l),
(217,9,l),
(97,9,o),
(122,70,o),
(177,230,c),
(458,230,l),
(497,128,ls),
(544,16,o),
(512,9,o),
(482,9,c),
(482,0,l),
(607,0,l),
(523,-32,o),
(470,-87,o),
(500,-155,c),
(500,-155,o),
(518,-194,o),
(581,-194,cs),
(626,-194,o),
(652,-165,o),
(652,-114,c),
(644,-114,l),
(644,-137,o),
(627,-176,o),
(592,-176,c),
(592,-176,o),
(542,-184,o),
(529,-131,cs),
(520,-93,o),
(565,-24,o),
(621,0,c),
(652,0,l),
(652,9,l),
(622,11,o),
(604,19,o),
(572,99,cs)
);
},
{
closed = 1;
nodes = (
(180,239,l),
(313,610,l),
(455,239,l)
);
}
);
width = 666;
}
);
note = Aogonek;
unicode = 260;
},
{
glyphname = aogonek;
layers = (
{
hints = (
{
horizontal = 1;
place = (-194, 18);
place = (-194, 18);
type = Stem;
},
{
horizontal = 1;
place = (-9, 29);
place = (-9, 29);
type = Stem;
},
{
horizontal = 1;
place = (457, 14);
place = (457, 14);
type = Stem;
},
{
place = (41, 50);
place = (41, 50);
type = Stem;
},
{
place = (293, 54);
place = (293, 54);
type = Stem;
},
{
place = (409, 8);
place = (409, 8);
type = Stem;
},
{
horizontal = 1;
place = (-8, 32);
place = (-8, 32);
type = Stem;
},
{
horizontal = 1;
place = (327, 74);
place = (327, 74);
type = Stem;
},
{
place = (422, 8);
place = (422, 8);
type = Stem;
}
);
layerId = m01;
shapes = (
{
closed = 1;
nodes = (
(347,24,o),
(347,80,o),
(347,80,c),
(347,271,ls),
(347,390,o),
(324,471,o),
(237,471,c),
(237,471,o),
(190,472,o),
(149,452,cs),
(96,423,o),
(76,390,o),
(71,378,cs),
(66,366,o),
(69,351,o),
(78,340,cs),
(91,324,o),
(113,323,o),
(128,336,cs),
(143,350,o),
(145,373,o),
(132,388,cs),
(125,396,o),
(117,399,o),
(108,401,cs),
(103,402,o),
(111,424,o),
(157,446,cs),
(248,484,o),
(293,420,o),
(293,318,cs),
(293,264,l),
(126,220,o),
(41,186,o),
(41,95,cs),
(41,-10,o),
(154,-9,o),
(154,-9,c),
(223,-9,o),
(280,26,o),
(293,78,c),
(293,6,o),
(333,-6,o),
(351,-8,c),
(280,-41,o),
(238,-93,o),
(265,-155,c),
(265,-155,o),
(283,-194,o),
(346,-194,cs),
(391,-194,o),
(417,-165,o),
(417,-114,c),
(409,-114,l),
(409,-137,o),
(392,-176,o),
(357,-176,c),
(357,-176,o),
(307,-184,o),
(294,-131,cs),
(286,-97,o),
(321,-37,o),
(369,-8,c),
(406,-4,o),
(425,29,o),
(430,56,c),
(422,59,l),
(415,24,o),
(389,24,o),
(389,24,c)
);
},
{
closed = 1;
nodes = (
(293,93,l),
(282,69,o),
(255,20,o),
(184,20,cs),
(127,20,o),
(91,53,o),
(91,111,cs),
(91,181,o),
(160,222,o),
(293,255,c)
);
}
);
width = 445;
}
);
note = aogonek;
unicode = 261;
},
{
glyphname = Cacute;
layers = (
{
hints = (
{
horizontal = 1;
place = (735, 21);
target = up;
type = BottomGhost;
},
{
horizontal = 1;
place = (895, -20);
target = down;
type = TopGhost;
},
{
horizontal = 1;
place = (0, 21);
target = up;
type = BottomGhost;
},
{
horizontal = 1;
place = (205, -20);
target = down;
type = TopGhost;
},
{
horizontal = 1;
place = (704, -20);
target = down;
type = TopGhost;
},
{
place = (40, 76);
place = (40, 76);
type = Stem;
},
{
horizontal = 1;
place = (-9, 21);
target = up;
type = BottomGhost;
},
{
horizontal = 1;
place = (713, -20);
target = down;
type = TopGhost;
}
);
layerId = m01;
shapes = (
{
closed = 1;
nodes = (
(253,735,l),
(260,735,l),
(486,881,l),
(427,895,l)
);
},
{
closed = 1;
nodes = (
(591,205,l),
(591,9,o),
(428,0,o),
(387,0,cs),
(292,0,o),
(116,13,o),
(116,352,cs),
(116,682,o),
(289,704,o),
(387,704,cs),
(434,704,o),
(591,695,o),
(591,500,c),
(600,500,l),
(609,652,l),
(546,703,o),
(490,713,o),
(387,713,cs),
(186,713,o),
(40,603,o),
(40,352,cs),
(40,106,o),
(186,-9,o),
(387,-9,cs),
(494,-9,o),
(535,4,o),
(609,53,c),
(600,205,l)
);
}
);
width = 654;
}
);
note = Cacute;
unicode = 262;
},
{
glyphname = cacute;
layers = (
{
hints = (
{
horizontal = 1;
place = (-9, 22);
place = (-9, 22);
type = Stem;
},
{
horizontal = 1;
place = (462, -20);
target = down;
type = TopGhost;
},
{
place = (45, 60);
place = (45, 60);
type = Stem;
},
{
horizontal = 1;
place = (471, -20);
target = down;
type = TopGhost;
},
{
horizontal = 1;
place = (544, 21);
target = up;
type = BottomGhost;
},
{
horizontal = 1;
place = (704, -20);
target = down;
type = TopGhost;
}
);
layerId = m01;
shapes = (
{
closed = 1;
nodes = (
(424,127,l),
(411,79,o),
(366,13,o),
(270,13,cs),
(197,13,o),
(105,73,o),
(105,232,cs),
(105,433,o),
(228,462,o),
(272,462,cs),
(365,462,o),
(399,421,o),
(389,424,cs),
(384,426,o),
(374,426,o),
(364,422,cs),
(347,414,o),
(341,394,o),
(350,376,cs),
(357,360,o),
(380,356,o),
(396,363,cs),
(408,370,o),
(414,381,o),
(414,394,cs),
(414,411,o),
(397,471,o),
(272,471,cs),
(137,471,o),
(45,358,o),
(45,228,cs),
(45,51,o),
(168,-9,o),
(260,-9,cs),
(381,-9,o),
(423,77,o),
(431,126,c)
);
},
{
closed = 1;
nodes = (
(141,544,l),
(148,544,l),
(374,690,l),
(315,704,l)
);
}
);
width = 465;
}
);
note = cacute;
unicode = 263;
},
